{"glyphs":{"0":{"ha":949,"x_min":-14,"x_max":949,"o":"m 471 1014 q 614 963 614 1014 q 627 922 627 926 l 587 885 q 549 868 562 885 q 522 875 528 875 q 465 848 491 856 q 468 838 468 841 q 532 861 475 838 l 563 861 q 576 875 568 861 l 593 871 q 651 895 619 895 l 651 899 l 648 899 q 610 895 618 895 l 607 902 q 627 922 627 910 l 631 922 q 658 899 652 922 q 739 878 706 882 q 760 888 743 888 q 763 885 763 888 l 770 888 l 797 888 q 821 861 814 877 q 807 827 811 861 l 814 824 q 821 858 814 833 l 824 858 q 885 770 848 838 l 885 756 l 882 749 q 912 695 902 749 l 905 695 q 882 736 882 707 l 865 732 l 844 732 l 844 726 l 868 719 l 878 719 q 916 678 881 699 q 949 431 949 592 l 922 400 q 909 326 922 332 l 885 326 l 844 342 q 793 322 827 330 l 773 322 q 770 326 770 322 q 661 295 713 304 l 644 298 q 627 288 627 292 l 610 295 q 624 359 617 337 l 617 363 l 621 387 l 621 478 q 624 515 621 492 q 610 624 618 544 q 641 637 641 630 q 637 641 637 637 q 610 634 625 634 l 604 644 q 614 668 604 656 l 610 668 q 600 665 604 665 q 587 699 587 686 l 607 702 l 600 692 l 600 688 l 614 688 q 699 736 652 736 q 732 726 713 736 q 773 746 732 737 l 773 749 q 760 756 760 749 l 760 760 q 770 770 760 764 q 787 756 770 765 l 821 756 q 844 770 839 756 l 844 777 l 841 777 q 797 766 827 766 q 770 780 786 766 l 763 780 q 715 743 763 754 l 712 743 l 702 749 l 692 749 l 607 709 q 553 746 576 709 q 488 770 540 746 l 427 763 q 417 766 420 766 q 376 736 417 756 q 349 685 376 728 q 278 644 349 652 q 271 651 278 651 q 217 631 261 651 q 180 651 204 642 l 180 644 q 227 624 180 636 q 268 641 245 635 l 275 637 l 292 637 q 329 644 296 637 l 332 637 q 315 590 326 590 q 319 563 319 566 q 309 495 319 495 q 264 526 306 495 q 258 519 258 524 q 315 471 311 488 l 312 448 q 315 437 315 441 q 309 431 309 436 q 315 417 315 422 q 312 393 315 407 q 315 359 315 376 l 315 346 q 319 342 315 342 q 305 329 315 332 q 292 332 299 332 l 288 332 l 288 326 l 309 326 q 332 231 319 326 q 410 122 364 142 q 434 109 420 122 q 461 112 458 112 q 471 109 468 109 l 471 98 q 420 3 445 70 l 420 -10 q 417 -14 417 -10 q 366 10 383 10 q 326 24 357 10 l 315 24 q 281 0 303 24 q 288 -7 283 -7 q 315 7 302 7 l 336 7 l 349 -3 l 376 -3 q 407 -27 394 -3 q 434 -37 434 -27 q 431 -47 431 -44 l 437 -47 q 441 -41 437 -41 q 478 -71 478 -45 l 488 -88 l 488 -125 q 478 -136 488 -130 l 444 -136 q 420 -129 420 -136 l 407 -132 q 264 -95 264 -110 l 264 -88 q 281 -47 264 -82 l 275 -47 l 254 -88 q 251 -92 254 -92 q 234 -85 240 -85 l 237 -61 l 237 -34 q 261 0 249 -25 q 264 -3 261 -3 l 268 3 l 268 7 l 264 7 l 258 3 q 251 14 258 14 l 237 14 l 241 7 l 241 -10 q 224 -27 224 -24 l 224 -68 q 217 -75 224 -75 q 51 119 102 -6 q 17 214 19 180 q 71 248 52 242 q 112 237 102 237 l 153 244 q 203 227 203 235 q 200 176 200 193 l 203 170 q 200 156 200 163 q 254 78 200 136 q 264 54 261 54 q 248 31 264 51 l 248 24 l 258 24 q 268 41 260 41 l 275 41 q 285 17 275 19 l 288 17 q 251 105 266 105 l 220 146 q 210 200 214 154 q 220 258 214 253 l 220 271 q 193 254 208 254 l 176 254 l 153 261 q 122 254 131 254 l 112 254 q 71 264 80 264 q 41 254 53 254 q 27 275 27 254 l 20 275 l 20 251 q 44 241 42 251 l 44 237 l 17 237 q 0 295 0 245 q 7 302 7 295 l -3 342 q 27 387 3 368 l 27 390 l 24 390 l 14 383 l 10 383 l 10 400 l 3 400 l 0 387 l -14 387 l -14 498 q -3 526 -14 509 q -10 546 -10 536 q 0 549 -3 549 l 0 559 q 7 587 0 563 l 7 593 q 3 607 7 601 q 41 651 14 651 l 41 658 q 14 648 24 648 l 10 648 l 10 651 q 37 715 21 715 l 41 715 q 37 726 37 722 q 54 749 37 731 l 51 763 q 75 810 63 783 l 81 807 l 85 807 q 129 858 90 807 q 125 861 125 858 q 102 844 122 861 l 102 848 q 153 902 102 857 q 217 882 201 894 l 231 882 l 231 885 q 190 912 202 912 l 186 912 l 176 905 l 166 905 q 285 983 189 944 q 356 1000 345 1000 l 346 987 l 346 983 q 417 1010 382 1010 l 448 1007 q 471 1014 461 1014 m 631 1021 q 800 926 727 995 l 793 922 l 770 922 l 746 916 l 692 929 l 692 926 q 631 1021 631 975 m 309 956 l 309 953 l 312 953 q 326 970 312 970 l 326 980 l 322 980 q 309 956 309 975 m 248 943 l 251 943 q 258 949 258 943 l 258 953 q 248 943 253 953 m 529 946 l 529 943 q 536 949 536 943 l 536 953 q 529 946 529 951 m 210 916 l 214 916 q 224 926 218 916 l 220 926 q 210 916 216 926 m 532 902 l 532 895 q 539 888 534 888 l 543 888 l 543 895 q 536 902 543 902 l 532 902 m 217 878 l 214 871 l 214 865 l 227 865 l 227 868 q 217 878 227 873 m 217 854 l 217 848 l 227 834 l 227 817 q 214 810 214 817 l 214 807 l 227 807 q 234 817 227 817 l 241 817 q 264 773 241 787 l 275 780 q 356 749 336 762 q 370 746 362 746 l 373 753 l 353 773 q 359 800 359 794 l 353 800 q 346 790 353 790 l 342 790 l 332 797 l 332 793 l 339 783 l 339 773 l 322 773 q 258 793 298 789 q 231 834 253 834 l 231 854 l 217 854 m 410 844 l 414 844 q 420 851 420 844 l 417 851 q 410 844 410 850 m 390 838 l 400 838 q 407 844 407 838 l 397 844 q 390 838 390 843 m 326 834 q 319 821 326 829 l 319 817 q 326 810 320 810 l 329 810 l 329 827 l 332 834 l 326 834 m 420 831 l 420 827 l 427 817 l 427 814 l 420 804 l 420 797 q 454 827 454 825 l 454 831 q 451 827 451 831 l 427 831 l 420 831 m 376 817 l 380 817 q 387 824 387 817 l 387 827 q 376 817 382 827 m 502 804 l 502 797 q 519 780 502 792 l 519 783 q 502 804 507 804 m 81 793 l 81 777 l 88 777 l 88 793 l 81 793 m 109 793 l 105 787 l 115 787 q 109 793 115 793 m 532 773 l 532 770 q 546 753 541 753 l 549 753 q 536 773 541 773 l 532 773 m 264 766 l 264 756 l 271 756 l 271 766 l 264 766 m 71 743 l 71 719 l 88 715 l 88 729 q 78 743 78 729 l 71 743 m 176 699 l 183 695 q 193 699 190 699 l 193 702 q 186 709 193 709 q 176 699 182 709 m 88 671 q 115 634 115 671 l 125 627 q 173 651 147 627 l 173 654 l 163 654 q 122 641 163 641 q 98 685 113 669 q 88 671 94 685 m 271 682 l 271 675 q 292 685 289 675 q 271 682 287 682 m 773 441 l 773 437 l 777 437 q 787 448 781 437 l 787 451 q 773 441 773 446 m 54 417 l 51 410 l 51 407 l 54 407 q 61 414 61 407 l 54 417 m 763 410 l 760 404 l 760 400 l 763 400 q 770 407 770 400 l 763 410 m 939 339 l 943 332 q 939 322 939 326 q 932 329 932 322 l 932 332 q 939 339 934 339 m 865 309 q 905 298 875 309 l 905 292 l 899 281 l 926 203 q 939 197 934 203 q 885 81 906 81 l 888 64 q 529 -146 751 -146 q 522 -139 522 -146 l 522 -75 l 512 -61 l 512 -51 q 522 -27 522 -39 l 515 -27 q 495 -54 505 -54 q 451 -14 451 -37 q 505 81 492 66 q 549 112 505 102 q 624 237 598 142 q 661 264 624 258 q 671 271 671 268 l 678 268 l 699 268 q 634 173 699 173 q 607 136 634 149 l 607 109 l 614 109 q 682 183 614 130 q 709 264 699 197 q 851 298 794 292 q 865 309 851 302 m 919 315 l 939 305 q 926 237 936 295 l 922 237 q 899 302 909 237 q 919 315 919 313 m 220 285 l 220 281 q 241 302 225 281 l 241 309 q 220 285 235 309 m 593 98 l 580 64 l 587 61 q 600 95 600 87 l 593 98 m 509 75 l 505 68 q 522 44 513 68 l 526 44 q 553 64 526 64 l 553 71 l 526 71 l 509 75 m 509 0 l 515 0 q 526 20 515 8 l 526 27 q 509 0 520 27 m 132 10 l 132 0 l 136 0 q 142 7 142 0 l 142 14 q 132 10 136 10 m 770 -10 l 770 -20 l 773 -20 q 780 -14 780 -20 l 773 -10 l 770 -10 z "},"1":{"ha":610,"x_min":0,"x_max":610,"o":"m 383 1027 q 414 973 414 1027 q 397 946 413 967 l 397 939 q 417 902 397 928 q 390 871 417 890 l 387 858 q 400 773 400 793 q 349 746 380 773 q 288 729 330 746 l 275 732 q 234 719 239 719 q 170 756 220 719 l 125 763 q 98 760 113 760 q 78 766 89 760 q 61 760 61 766 q 41 773 41 768 q 217 827 155 788 q 332 1014 296 878 q 383 1027 332 1027 m 515 1027 l 515 1024 l 522 1027 l 546 1027 q 553 1021 553 1026 l 553 1017 q 498 994 553 998 q 485 1007 485 997 l 478 1007 l 471 1004 q 448 1017 471 1009 l 448 1024 l 475 1024 l 515 1027 m 573 1027 q 583 1017 578 1027 l 583 1007 q 573 980 583 997 q 549 1000 549 996 q 573 1027 569 1027 m 431 1024 q 441 1021 437 1021 l 441 1010 q 431 990 441 993 l 417 1014 q 431 1024 417 1019 m 481 1024 q 498 1021 487 1021 l 498 1010 l 492 1010 l 492 1000 l 495 1000 q 505 1010 498 1000 q 529 1004 507 1010 l 570 1010 q 576 997 570 997 l 583 1000 q 590 994 585 994 l 607 997 l 610 973 l 610 970 q 607 939 610 939 q 610 888 610 905 l 610 604 l 607 604 q 576 658 595 610 l 576 682 l 556 743 l 559 760 q 519 787 559 775 q 495 807 519 798 l 461 797 l 454 797 q 441 827 449 797 l 444 834 q 434 875 439 875 q 465 926 465 911 q 441 960 447 945 q 478 1017 457 1004 l 481 1024 m 380 994 l 366 980 l 387 980 l 387 987 q 380 994 387 994 m 468 922 l 468 916 l 475 916 q 485 926 479 916 l 485 932 q 468 922 474 922 m 539 848 l 543 848 q 549 854 549 848 l 549 878 q 563 902 549 890 l 563 905 l 559 905 q 539 848 544 905 m 329 899 l 329 888 l 336 888 l 336 899 l 329 899 m 536 834 q 522 810 536 827 l 522 807 q 539 831 530 809 l 539 834 l 536 834 m 17 777 l 17 773 q 3 763 17 768 l 3 773 q 17 777 11 773 m 417 766 q 427 763 420 766 l 461 766 q 509 736 483 736 q 529 651 509 713 l 529 624 q 570 556 545 577 l 566 515 l 566 478 q 583 451 583 463 l 583 393 q 573 376 583 376 l 573 370 q 583 353 583 370 l 583 305 q 543 217 583 298 q 475 244 479 244 l 471 244 q 458 241 464 244 l 434 248 l 346 224 q 254 312 277 267 l 254 380 q 258 383 254 383 l 254 390 l 254 549 q 241 553 241 549 l 234 549 l 190 549 q 186 553 186 549 l 180 549 l 159 549 q 139 556 150 549 q 119 549 128 549 l 10 549 q 0 559 5 549 l 0 566 q 7 573 1 573 l 27 573 l 27 580 l 10 580 q 0 600 0 583 l 0 661 l 3 702 l 0 702 l 3 709 l 3 712 q 0 726 3 720 q 31 760 8 751 l 34 760 q 58 749 57 756 q 71 753 60 749 q 153 749 133 749 q 231 705 180 739 q 271 722 261 722 l 278 722 l 288 715 l 302 715 q 370 739 320 728 q 417 766 374 753 m 444 715 l 444 712 l 448 712 q 458 715 454 715 l 458 722 l 451 722 q 444 715 444 721 m 173 621 l 173 617 q 180 610 174 610 l 186 610 l 186 621 l 173 621 m 75 580 q 98 566 75 573 l 109 566 l 109 570 q 81 580 94 570 l 75 580 m 410 566 l 410 559 q 434 570 434 564 l 434 573 l 424 573 q 410 566 416 566 m 281 559 l 278 553 l 278 549 l 288 549 l 288 553 q 281 559 288 559 m 417 526 l 424 526 q 532 556 521 545 q 529 559 529 556 q 417 526 417 534 m 366 543 l 363 529 l 366 529 q 373 536 373 529 l 373 543 l 366 543 m 387 539 l 387 529 l 393 529 q 400 536 400 529 l 400 543 l 397 543 q 387 539 390 539 m 336 509 q 329 502 336 502 l 329 495 l 339 495 l 339 509 l 336 509 m 376 498 l 376 495 l 383 495 q 393 498 390 498 l 393 502 l 387 502 q 376 498 380 498 m 261 261 q 271 258 268 258 l 271 251 l 268 244 q 278 248 275 248 q 346 207 299 231 l 431 231 q 458 224 448 224 q 478 231 469 231 q 543 210 501 220 q 546 197 546 204 l 546 183 l 488 166 l 485 166 q 454 197 481 166 l 454 190 q 488 153 474 157 q 451 81 479 81 q 434 44 444 81 q 349 -31 371 1 q 312 -51 320 -31 q 298 -54 300 -54 q 295 -44 295 -47 l 288 -44 l 288 -51 q 268 -95 288 -80 l 264 -95 q 254 -85 260 -95 l 254 14 q 261 20 256 20 l 264 20 q 298 -10 264 14 l 298 -17 l 302 -17 l 302 3 q 254 51 254 23 l 254 220 q 264 244 254 232 q 258 251 258 244 l 258 254 l 261 261 m 576 217 l 583 217 l 583 197 l 580 180 l 576 180 q 570 186 570 180 q 576 217 570 195 m 580 176 l 583 159 q 573 156 576 156 q 563 159 566 159 l 563 163 q 580 176 563 168 m 529 156 l 556 156 q 583 122 583 138 l 583 115 l 580 81 l 583 81 l 580 75 l 580 61 q 583 47 580 54 q 580 44 583 44 l 583 20 l 583 -41 q 580 -44 583 -44 l 583 -51 l 583 -85 q 573 -95 583 -90 l 532 -95 q 529 -92 529 -95 l 522 -95 l 502 -95 q 420 -34 487 -95 q 400 -17 410 -34 q 458 27 422 6 q 498 78 473 78 q 515 139 498 94 q 529 156 515 149 m 383 -27 l 387 -27 q 454 -88 404 -34 q 448 -95 454 -95 l 346 -95 l 326 -92 q 309 -95 320 -95 l 302 -95 q 295 -88 295 -95 q 356 -41 295 -66 q 366 -44 363 -44 q 383 -27 366 -39 z "},"2":{"ha":949,"x_min":0,"x_max":966,"o":"m 424 1143 l 424 1139 l 431 1143 l 488 1143 q 495 1136 495 1141 q 444 1122 495 1126 q 441 1126 444 1126 l 437 1119 l 444 1116 l 465 1116 q 519 1129 515 1129 q 549 1034 549 1064 q 505 977 529 1029 q 454 919 505 938 q 417 895 439 895 q 390 939 405 907 q 376 936 378 936 l 363 939 q 329 932 338 932 q 288 953 300 932 l 288 956 l 295 966 q 244 980 278 966 l 244 977 q 298 916 275 951 q 326 909 320 909 l 342 912 l 356 909 q 387 912 374 912 q 393 892 393 901 l 393 888 q 305 763 335 855 q 237 749 254 749 l 237 746 l 268 746 l 305 756 q 309 753 305 753 l 305 729 l 305 695 q 295 685 305 690 l 224 685 q 190 688 208 685 q 159 685 177 685 l 153 685 q 146 695 146 685 l 159 722 l 156 722 q 119 688 134 688 q 68 685 89 685 l 64 692 l 64 695 q 85 746 64 707 l 85 749 q 27 838 27 805 q 51 875 27 875 l 61 875 q 58 895 61 878 q 88 970 72 970 l 112 977 l 129 977 l 149 973 q 176 1021 159 973 q 186 1031 181 1021 l 186 1048 q 197 1051 190 1048 q 214 1031 214 1046 l 207 1017 q 210 1014 210 1017 l 261 1027 q 271 1024 268 1024 l 271 1004 q 285 990 271 998 l 288 990 l 288 994 q 278 1007 281 1007 l 281 1024 q 278 1034 281 1027 q 319 1099 307 1084 l 319 1102 q 285 1075 292 1075 l 292 1061 l 264 1034 l 241 1034 q 217 1058 217 1034 q 193 1068 200 1068 q 186 1061 193 1061 l 183 1068 q 288 1116 248 1116 q 424 1143 368 1143 m 556 1119 l 563 1119 q 617 1105 602 1119 l 637 1109 q 688 1095 651 1102 l 688 1092 q 617 1078 688 1082 l 614 1072 q 654 1068 631 1072 l 709 1082 q 882 960 774 1082 q 926 848 926 878 l 922 841 q 929 821 929 830 q 926 807 929 813 l 936 790 l 936 749 q 909 722 932 722 q 875 729 875 724 q 871 726 871 729 l 848 729 l 807 729 q 749 678 793 729 q 719 661 719 673 q 695 621 719 626 q 624 563 643 563 l 573 543 q 559 553 559 548 q 566 604 566 602 q 556 624 556 607 q 631 682 556 673 l 644 688 q 654 682 644 682 q 675 688 665 688 l 692 688 l 692 692 q 661 709 692 698 q 590 685 661 699 l 590 688 q 607 756 607 730 l 607 777 q 475 882 607 858 l 471 888 l 478 892 l 485 888 q 536 932 521 913 q 549 929 542 929 l 553 936 q 532 943 532 936 l 532 956 q 576 1007 559 998 l 583 1024 l 573 1041 l 573 1044 l 576 1061 q 556 1119 560 1061 m 417 1095 l 417 1092 l 420 1092 q 437 1109 425 1092 l 434 1109 q 417 1095 417 1100 m 339 1102 l 339 1088 q 376 1099 376 1091 l 373 1099 l 353 1095 l 342 1102 l 339 1102 m 254 1068 l 254 1061 l 258 1061 q 264 1068 264 1061 l 254 1068 m 587 1065 l 587 1061 l 610 1061 l 610 1068 l 604 1068 l 587 1065 m 651 1058 q 627 1038 651 1044 l 627 1034 q 631 1031 631 1034 q 671 1055 671 1043 q 651 1058 656 1055 m 749 1031 l 760 1031 q 766 1038 766 1031 l 760 1041 q 749 1031 755 1041 m 176 1038 l 180 1038 q 186 1031 186 1036 l 186 1021 q 136 970 154 971 l 115 973 l 115 977 q 176 1038 115 987 m 800 1024 l 800 1010 q 807 1017 807 1010 l 807 1024 l 800 1024 m 190 963 l 190 960 l 197 960 q 200 963 200 960 l 207 960 l 214 960 q 244 973 244 966 q 224 990 244 979 q 190 963 200 981 m 804 949 l 800 943 l 814 932 l 831 932 l 831 929 q 800 912 831 926 l 800 905 l 804 905 l 831 922 l 871 909 l 871 905 q 861 875 871 899 q 888 916 868 877 l 868 919 l 868 922 l 875 932 l 875 939 q 868 946 875 946 q 848 939 857 939 q 804 949 829 949 m 702 946 l 702 939 q 719 932 708 939 l 722 939 l 702 946 m 743 916 l 743 912 q 777 892 743 892 l 780 899 q 753 916 753 899 l 743 916 m 810 899 q 793 882 810 882 l 793 875 l 804 875 q 821 899 807 875 l 810 899 m 705 875 q 715 878 712 878 l 715 888 q 705 875 711 888 m 237 885 l 237 878 l 258 878 l 258 885 l 237 885 m 695 865 l 695 861 q 702 868 702 861 l 702 871 q 695 865 695 870 m 814 841 l 821 783 l 827 783 l 824 824 l 824 827 q 861 844 824 833 l 861 851 q 854 858 861 858 q 814 841 829 841 m 92 854 l 92 848 l 105 848 q 98 854 105 854 l 92 854 m 109 848 l 122 848 l 122 854 l 115 854 q 109 848 109 853 m 865 844 q 875 834 865 840 q 916 841 899 841 q 909 848 916 848 l 888 848 l 865 844 m 641 766 l 641 753 l 644 753 q 671 800 644 756 l 668 800 q 641 766 665 800 m 834 777 l 834 770 q 868 746 847 770 l 871 746 l 871 749 q 834 777 851 777 m 31 770 l 37 770 q 61 753 37 761 q 78 726 61 746 q 54 665 65 665 l 31 665 q 20 675 26 665 q 31 770 24 733 m 105 743 l 109 743 q 119 753 113 743 l 119 760 q 105 743 112 758 m 159 739 l 159 736 q 170 712 170 721 l 173 712 q 180 719 180 712 l 180 722 q 159 739 171 722 m 871 715 q 892 688 892 708 q 888 678 888 682 q 905 631 888 661 q 756 471 874 559 q 532 339 547 339 l 532 353 q 576 431 532 380 q 600 465 576 440 q 570 515 570 495 q 651 546 583 526 q 810 705 802 705 q 871 715 810 712 m 899 712 l 929 712 l 929 709 q 916 654 929 694 q 899 712 902 654 m 536 617 l 539 617 q 546 570 546 585 l 536 532 q 573 471 552 498 l 573 468 q 539 420 562 468 q 519 387 519 408 q 380 465 487 387 l 370 465 q 366 461 366 465 q 346 478 352 466 q 536 617 495 583 m 336 475 q 393 441 393 447 q 512 373 419 432 l 515 373 q 431 271 515 338 l 431 268 l 461 268 l 468 264 q 441 186 468 239 q 434 156 434 159 q 437 146 437 149 q 373 115 373 146 l 373 109 q 376 105 373 105 q 319 51 353 51 q 288 58 294 58 q 254 54 278 54 q 217 95 254 64 q 207 149 217 117 l 217 149 l 234 136 l 254 136 q 217 159 217 153 q 183 197 205 197 l 163 186 q 85 217 85 196 q 81 237 85 233 q 336 475 103 319 m 539 248 l 549 248 q 576 241 564 248 q 583 248 578 248 l 624 248 q 661 234 644 248 l 665 234 q 671 248 665 248 l 682 248 q 709 241 696 248 q 746 248 722 248 l 892 248 l 892 244 q 851 227 892 240 q 780 190 851 214 q 753 200 763 200 l 732 200 q 715 193 715 199 q 661 207 675 198 q 634 200 644 200 q 576 237 634 213 l 573 237 l 631 186 q 668 173 661 186 l 675 176 l 688 176 q 739 180 705 176 q 749 190 739 190 q 760 186 756 186 l 760 183 q 743 173 760 173 l 746 149 q 736 119 742 119 q 739 102 739 113 l 746 102 q 763 125 746 120 l 760 132 l 760 142 q 824 183 779 183 q 858 203 824 188 q 939 234 858 216 q 966 207 950 234 q 960 173 966 198 q 966 153 966 162 l 966 61 q 963 24 966 47 q 966 -3 966 20 l 966 -10 q 953 -20 966 -20 l 932 -17 l 912 -20 l 888 -17 q 858 -20 870 -20 l 858 -10 q 888 14 872 14 q 895 3 895 14 l 902 3 q 899 17 902 11 q 902 31 902 23 l 895 31 q 851 7 882 31 l 851 3 l 854 -3 l 848 -7 l 844 -7 l 844 3 l 834 3 q 817 -3 826 -3 l 817 -14 l 834 -10 l 838 -10 l 838 -14 q 831 -20 838 -20 q 821 -17 824 -17 q 817 -20 817 -17 q 770 -3 770 -14 l 770 24 q 804 51 770 27 l 797 51 q 770 44 791 44 q 766 58 766 56 q 770 75 770 62 q 760 71 763 71 q 753 88 753 80 l 746 88 q 702 64 702 73 l 702 61 q 726 47 717 61 q 746 61 746 47 q 756 51 751 61 l 756 34 q 760 -3 756 20 q 749 -20 755 -20 l 648 -20 q 644 -17 644 -20 l 637 -20 l 610 -20 q 593 -14 593 -20 q 566 -20 581 -20 l 539 -20 q 481 47 481 -7 q 485 58 485 54 q 434 98 460 72 l 434 102 l 448 102 q 492 132 492 102 q 526 244 519 203 q 539 248 532 248 m 912 268 l 922 268 q 932 258 927 268 l 922 251 q 912 261 918 251 l 912 268 m 64 224 l 68 224 q 71 197 68 216 q 41 183 59 197 l 41 190 q 64 224 55 220 m 905 217 l 905 210 q 912 203 907 203 l 916 210 q 909 217 916 217 l 905 217 m 580 176 l 590 176 q 597 183 597 176 l 590 186 q 580 176 585 186 m 176 183 l 180 183 q 203 166 197 183 q 197 159 203 159 l 193 159 q 170 176 170 173 q 176 183 171 183 m 81 180 q 142 170 116 170 l 163 173 q 203 109 203 127 l 200 85 q 244 14 244 47 l 244 3 l 227 0 l 37 0 q 0 10 0 0 l 0 44 q 14 71 0 56 l 14 78 l 7 78 l 7 81 l 27 112 l 27 119 l 17 119 l 17 125 q 81 180 17 180 m 821 170 l 821 163 l 827 163 q 838 173 832 163 l 838 176 l 827 176 q 821 170 821 175 m 878 173 l 878 166 q 885 159 880 159 q 892 166 892 159 l 892 176 l 888 176 q 878 173 882 173 m 600 163 l 600 156 l 621 156 l 621 159 l 600 163 m 780 142 l 780 136 l 787 136 q 797 153 787 142 l 797 156 l 793 156 q 780 142 788 156 m 834 149 l 848 149 l 848 156 l 841 156 q 834 149 834 155 m 658 136 l 658 129 l 661 129 q 671 139 666 129 l 671 142 l 665 142 q 658 136 658 141 m 743 142 l 743 136 l 753 136 l 753 142 l 743 142 m 387 105 l 397 105 q 407 95 401 105 q 400 88 407 88 q 387 92 394 92 l 387 105 m 831 88 q 834 78 834 81 q 824 68 829 78 l 831 68 q 848 92 848 78 l 841 95 l 838 95 q 831 88 831 94 m 854 85 l 854 78 l 858 78 q 878 92 878 86 l 878 95 q 854 85 866 85 m 699 88 l 709 88 l 709 81 l 705 81 q 699 88 699 81 m 410 85 q 434 17 434 66 l 448 14 l 448 0 l 288 0 q 281 10 281 0 q 302 27 287 27 q 329 24 326 24 q 383 78 359 24 q 410 85 389 78 m 800 68 l 797 61 l 817 61 l 817 64 l 800 68 m 109 41 l 102 31 l 102 27 l 119 27 l 119 37 q 109 41 115 37 m 580 41 l 580 37 q 587 31 581 31 l 590 31 l 590 41 l 580 41 m 261 27 l 278 27 q 254 0 267 3 l 251 7 q 261 27 254 27 z "},"3":{"ha":743,"x_min":-20,"x_max":949,"o":"m 481 1149 l 488 1146 l 532 1146 l 539 1143 q 529 1075 536 1107 q 546 1119 538 1080 l 543 1126 l 543 1133 q 556 1143 543 1141 q 766 1078 654 1143 q 790 1061 790 1067 l 790 1055 q 763 1061 787 1055 l 760 1061 l 760 1058 q 793 1041 760 1050 l 790 1024 l 790 1021 l 797 1021 l 797 1034 l 800 1051 l 807 1051 q 878 966 862 1003 l 878 956 q 841 946 872 956 q 821 966 836 946 q 817 939 817 942 l 821 939 q 831 943 827 943 q 841 939 838 939 l 841 929 l 827 929 q 814 932 820 929 q 773 888 804 932 l 749 871 l 743 871 l 732 878 l 702 878 q 607 817 663 817 q 543 895 597 858 q 522 970 543 913 l 526 977 q 509 1000 526 1000 q 468 1031 499 1000 l 465 1031 q 427 1021 454 1031 q 400 1102 413 1021 q 437 1146 400 1107 l 454 1146 q 461 1139 461 1145 q 481 1149 481 1146 m 404 1163 l 407 1156 q 380 1122 380 1140 l 380 1119 q 393 1041 393 1059 q 339 1010 382 1041 q 288 994 307 1010 l 271 997 l 258 997 l 258 990 l 251 990 q 227 983 227 989 q 146 1027 149 1027 l 132 1024 q 122 1027 125 1027 l 122 1031 q 363 1156 175 1112 q 404 1163 395 1163 m 617 1092 l 624 1088 l 627 1095 l 627 1099 l 624 1099 q 617 1092 617 1097 m 668 1075 l 671 1068 q 685 1082 682 1071 l 678 1085 q 668 1075 673 1085 m 712 1065 l 712 1061 q 726 1048 712 1056 l 732 1048 q 739 1058 739 1048 q 726 1075 732 1074 l 722 1075 q 712 1065 718 1075 m 519 1065 q 515 1055 519 1061 l 522 1055 q 526 1065 522 1058 l 519 1065 m 658 1024 q 651 1007 658 1018 l 658 1004 l 671 1017 q 665 1024 671 1024 l 658 1024 m 448 1014 q 502 980 471 990 q 522 905 502 948 l 522 899 l 475 902 q 342 824 380 902 q 315 783 337 783 l 305 783 q 302 787 302 783 l 295 783 l 281 783 q 278 787 278 783 l 271 783 l 153 783 q 136 800 136 783 l 129 800 q 125 783 129 789 q 119 787 119 783 q 68 783 85 783 l 44 783 q 34 793 39 783 q 112 997 34 897 l 119 997 l 142 994 q 153 997 149 997 q 224 949 153 991 q 254 966 250 963 l 258 966 q 288 960 267 966 q 319 977 301 964 l 326 977 q 329 973 329 977 q 390 1004 339 973 q 417 1010 393 1004 l 444 1010 q 448 1014 448 1010 m 797 1010 l 797 1004 q 800 994 800 997 l 804 994 l 804 1004 q 797 1010 804 1010 m 437 966 l 437 956 q 458 966 458 960 q 454 970 454 966 q 437 966 449 966 m 739 946 l 739 932 l 746 932 l 746 946 l 739 946 m 892 939 q 929 831 929 939 q 810 621 929 694 l 810 617 q 895 553 880 576 q 851 529 876 529 l 827 529 q 797 539 810 529 q 770 536 779 536 q 777 529 771 529 q 797 532 779 529 q 831 522 814 522 l 848 522 q 888 532 857 522 l 892 532 q 909 471 892 518 q 892 444 892 456 l 895 444 q 922 468 915 455 q 909 495 909 482 q 929 509 916 509 q 949 458 939 490 q 943 434 943 444 q 949 427 949 433 l 949 410 q 919 390 943 410 q 854 380 865 380 q 844 383 848 383 l 844 387 q 882 427 874 412 l 882 431 q 807 380 823 380 q 790 376 795 380 q 746 390 759 390 l 719 376 q 682 380 689 380 q 658 366 682 373 q 614 444 636 366 q 593 465 610 444 l 593 478 q 651 573 610 519 l 665 573 l 665 580 l 658 580 l 651 576 l 648 583 l 648 617 l 654 617 l 654 621 l 651 621 q 641 617 644 617 q 631 651 633 626 q 654 692 654 688 q 604 726 654 699 q 600 729 604 729 q 631 800 614 751 l 654 797 q 729 858 729 821 l 749 858 q 777 851 774 851 q 804 871 801 851 q 800 882 800 878 q 834 912 817 883 q 868 932 858 912 q 892 939 878 932 m 166 865 l 166 861 q 173 854 168 854 q 180 861 180 854 l 180 865 l 166 865 m 68 824 l 68 821 q 88 814 86 814 q 71 824 88 821 l 68 824 m 275 814 l 275 810 l 281 810 l 281 821 q 275 814 275 819 m 824 804 l 831 800 l 838 810 l 831 810 q 824 804 824 809 m 271 797 l 278 793 l 281 793 l 281 804 l 278 804 q 271 797 271 802 m 773 722 l 773 719 l 780 719 l 780 729 q 773 722 773 728 m 726 722 q 715 695 715 705 l 715 688 l 722 688 q 732 719 722 694 l 726 722 m 841 712 l 841 709 l 844 709 q 851 715 851 709 l 851 719 l 848 719 q 841 712 841 718 m 563 715 q 607 699 568 715 l 607 692 q 583 634 583 677 l 583 627 q 566 617 566 625 l 566 614 l 573 614 l 587 624 q 600 583 600 624 q 549 481 549 497 l 546 481 q 414 495 492 495 l 407 505 q 410 515 407 515 l 407 549 l 407 682 q 414 688 408 688 l 431 688 q 563 715 514 688 m 685 675 l 682 668 l 695 668 l 695 671 q 685 675 692 671 m 705 576 l 702 570 q 743 543 740 543 l 743 546 l 705 576 m 878 539 l 885 539 q 902 519 890 539 l 902 512 q 888 505 897 512 q 878 539 882 513 m 715 522 l 712 515 l 712 509 l 719 509 q 722 519 719 512 l 715 522 m 719 478 l 719 471 q 726 465 720 465 l 729 465 l 729 478 l 719 478 m 637 468 l 637 461 l 644 461 q 651 468 651 461 q 648 471 648 468 q 637 468 641 468 m 3 410 l 27 407 q 54 410 40 410 q 58 407 58 410 l 75 410 l 170 410 q 176 404 176 409 l 176 400 q 166 387 166 400 l 170 373 l 159 329 q 176 359 165 329 q 173 397 173 382 q 207 410 197 410 l 281 410 q 298 336 288 410 q 363 264 327 276 l 363 258 q 298 210 330 218 l 281 193 l 268 193 l 268 200 l 261 200 q 234 105 261 184 l 237 105 l 227 88 l 227 85 q 251 44 251 56 l 251 27 q 95 112 182 37 q 119 156 119 139 l 119 163 q 112 170 119 170 q 85 122 112 141 q -7 281 7 203 l 0 295 q -20 376 -20 295 l -17 383 q -20 397 -20 389 q 3 410 -17 410 m 936 390 l 939 383 q 844 136 939 237 q 824 112 839 136 l 821 112 l 821 122 q 834 136 827 136 l 834 149 q 821 156 834 156 l 821 166 l 810 200 q 861 302 840 250 q 865 315 865 308 l 865 322 l 851 339 q 905 373 866 373 q 936 390 905 387 m 621 366 q 631 342 621 342 l 665 359 q 688 353 678 353 q 732 366 715 366 l 756 356 l 821 363 l 841 353 q 854 366 842 366 l 854 353 q 838 346 838 352 q 854 315 854 319 q 817 231 836 262 q 800 207 809 231 q 810 163 800 192 q 807 159 807 163 q 821 146 810 159 q 783 85 803 85 l 783 92 l 780 92 q 715 47 762 62 l 705 47 q 651 85 673 60 q 553 98 570 92 q 515 92 534 92 q 481 146 511 113 q 427 200 481 156 q 393 227 427 205 q 420 251 393 231 l 427 248 l 522 248 q 573 281 522 254 q 614 363 599 310 l 621 366 m 102 298 l 95 302 q 75 295 81 295 q 47 302 68 295 q 34 298 41 298 l 34 292 l 51 295 q 85 271 61 295 q 119 295 85 290 q 129 292 129 295 l 129 288 l 136 288 q 142 295 142 288 l 170 275 l 190 275 q 197 281 197 275 q 146 305 146 285 l 153 315 l 153 319 l 149 319 l 102 298 m 210 278 q 268 251 258 278 q 295 234 277 251 l 298 241 l 298 248 q 244 281 286 248 q 231 285 238 285 l 217 285 q 210 278 210 283 m 380 220 q 465 132 421 191 q 471 115 471 132 q 407 88 443 88 q 356 61 384 61 q 319 17 341 35 q 275 41 290 17 l 275 44 q 285 47 278 44 q 292 41 286 41 l 292 44 q 258 85 260 84 l 258 88 q 285 156 285 108 q 336 200 296 177 q 380 220 364 202 m 122 193 l 122 173 l 129 173 l 129 193 l 122 193 m 780 186 l 787 183 q 793 190 793 183 l 787 193 q 780 186 780 192 m 709 156 l 709 149 l 719 149 q 726 156 726 149 l 726 163 l 722 163 q 709 156 714 156 m 766 125 l 766 122 l 773 122 l 790 125 l 790 136 l 787 136 q 766 125 766 132 m 648 115 q 641 98 648 109 l 644 98 l 661 102 l 661 115 l 648 115 m 485 112 q 505 68 490 112 l 512 64 l 515 71 q 512 75 512 71 l 519 78 l 549 78 l 549 75 l 546 58 q 563 75 548 58 l 590 75 q 600 64 595 75 q 593 58 593 63 l 593 51 q 604 41 593 46 l 607 47 l 607 71 l 610 71 q 668 37 652 71 l 668 31 l 573 7 q 563 10 566 10 l 566 27 l 563 27 q 546 3 555 25 q 454 0 484 0 l 431 0 q 366 10 376 0 q 353 7 359 10 q 342 14 342 10 q 356 31 349 29 l 363 31 l 363 24 l 373 24 q 417 75 373 51 q 431 85 417 85 l 448 81 l 444 75 l 444 68 l 448 68 l 454 71 l 451 78 q 485 112 473 93 m 522 61 q 529 47 529 53 l 539 47 l 539 54 q 526 61 534 54 l 522 61 m 427 44 l 434 44 q 441 51 441 44 l 441 54 l 437 54 q 427 44 433 54 m 563 47 l 576 47 l 576 54 l 570 54 q 563 47 563 53 m 390 47 q 387 37 390 44 l 393 34 q 400 41 400 34 q 393 47 400 47 l 390 47 m 498 24 l 509 17 l 512 17 q 526 44 521 17 q 515 47 519 47 q 498 24 498 43 m 539 41 l 539 31 q 549 34 546 34 l 549 41 l 539 41 m 461 34 l 461 27 l 492 24 l 492 34 l 488 34 l 475 31 q 461 34 469 34 z "},"4":{"ha":814,"x_min":-27,"x_max":963,"o":"m 549 1109 l 580 1109 l 580 1102 l 546 1092 q 532 1102 532 1097 l 532 1105 l 549 1109 m 607 1109 l 627 1109 l 637 1102 q 665 1109 661 1109 l 827 1109 q 838 1099 832 1109 q 834 1078 838 1084 q 838 1014 838 1041 l 838 966 q 715 885 814 885 q 668 1000 686 907 q 654 1041 668 1007 l 658 1048 q 621 1078 658 1078 q 600 1105 621 1085 l 607 1109 m 773 1078 l 777 1078 l 790 1082 l 790 1095 l 783 1095 q 773 1078 776 1095 m 509 1082 l 546 1082 q 593 1051 562 1062 q 617 970 593 1021 q 614 939 614 951 q 634 899 620 939 q 658 868 654 868 q 651 844 651 851 q 654 817 654 820 l 651 793 l 699 766 l 699 763 q 675 715 675 741 l 678 709 q 658 692 678 699 q 665 685 659 685 l 668 685 l 682 695 q 695 658 692 684 q 648 573 695 652 q 627 532 637 532 q 634 509 629 509 q 580 481 634 498 l 570 481 l 546 505 l 543 505 q 573 468 547 487 q 543 400 564 400 q 519 356 527 400 q 437 288 484 342 q 400 268 400 288 q 387 264 394 264 l 380 264 l 380 271 l 376 271 q 349 231 376 233 l 248 231 q 220 237 244 231 q 214 231 220 231 l 92 231 q 75 237 75 231 q 54 231 64 231 l -17 231 q -27 241 -22 231 l -27 309 q 0 349 -27 334 l -24 349 l -27 366 l -27 400 q -24 417 -27 412 l -27 437 l -27 465 q 41 566 -27 512 q 64 604 47 566 l 85 610 l 95 597 q 88 570 88 575 l 92 570 q 102 593 100 570 q 95 624 95 606 l 132 678 l 139 678 l 156 665 l 166 665 q 170 668 170 665 q 231 637 205 668 l 248 637 q 298 641 264 637 q 326 610 298 625 q 244 515 261 515 l 241 515 l 244 509 l 244 505 l 231 485 l 231 478 l 275 478 l 281 475 l 278 461 q 281 441 281 444 q 271 400 281 437 l 278 400 q 288 431 288 425 l 288 434 l 285 454 q 322 478 289 478 l 485 478 q 488 515 485 492 q 485 526 485 522 q 515 546 485 538 q 539 543 529 543 l 563 546 q 621 532 585 536 q 515 563 586 563 q 488 553 498 553 l 485 570 l 485 804 l 481 804 l 339 627 q 305 654 320 627 l 298 658 q 244 654 264 654 l 234 654 q 214 682 229 654 l 210 682 q 203 671 210 671 q 136 682 196 678 l 136 685 q 258 827 218 788 l 261 827 l 275 817 l 281 817 l 281 824 q 264 834 264 827 l 264 838 q 451 1055 426 1037 q 509 1082 471 1076 m 559 1031 l 559 1027 q 580 1031 565 1031 l 580 1038 l 566 1038 q 559 1031 559 1036 m 817 902 q 824 895 824 901 l 824 790 q 821 726 824 758 q 824 675 824 711 q 821 644 824 663 q 824 604 824 627 l 824 600 q 821 570 824 583 q 824 536 824 552 l 824 509 l 817 485 l 827 478 l 936 478 q 943 471 943 477 q 888 448 922 448 q 844 461 857 461 l 817 448 q 780 451 794 451 q 756 437 774 437 q 682 475 714 475 l 678 481 l 678 485 q 688 495 688 485 q 682 502 682 495 q 753 644 682 555 l 763 644 l 763 648 q 746 665 746 648 l 746 675 l 749 692 q 732 712 732 692 q 729 715 729 712 q 753 756 729 730 l 753 770 l 699 797 l 699 831 q 732 871 724 868 l 749 868 q 817 902 777 868 m 529 882 l 529 878 l 539 878 q 549 888 544 878 l 543 892 l 539 892 q 529 882 534 892 m 526 841 l 526 838 l 529 838 l 644 868 q 648 878 648 875 q 526 841 532 850 m 393 875 l 393 865 l 397 865 q 404 871 404 865 l 397 875 l 393 875 m 498 848 l 505 844 q 515 851 505 851 l 515 861 l 512 861 q 498 848 507 861 m 478 858 q 471 844 478 852 l 471 841 l 475 841 q 488 854 480 841 l 488 858 l 478 858 m 349 824 l 349 821 l 356 821 q 363 827 363 821 l 363 831 l 356 831 q 349 824 349 829 m 448 831 q 441 814 448 823 l 441 810 l 451 810 l 454 827 l 454 831 l 448 831 m 505 817 l 509 817 q 515 824 515 817 l 512 824 q 505 817 505 823 m 322 810 l 322 797 q 329 790 323 790 l 332 797 l 332 810 l 322 810 m 804 746 l 800 739 l 807 736 q 814 743 814 736 q 804 746 810 743 m 285 722 l 288 722 q 302 736 294 722 l 302 743 q 285 722 297 743 m 326 729 l 332 726 l 339 736 l 339 739 q 326 729 326 734 m 200 617 q 203 604 203 611 l 207 604 l 207 614 l 200 617 m 207 590 q 186 566 207 576 l 190 559 l 190 556 l 186 549 l 190 549 q 210 580 210 562 l 210 590 l 207 590 m 112 536 l 105 522 l 112 522 q 119 529 119 522 q 112 536 119 536 m 210 512 q 180 515 198 512 q 170 512 173 512 q 139 515 151 515 l 129 502 l 129 495 l 132 495 l 142 502 q 261 519 220 502 l 261 522 l 254 532 q 210 512 224 512 m 102 512 q 95 498 102 507 l 112 498 q 119 505 119 498 l 119 509 l 102 512 m 64 475 l 71 471 l 71 481 q 68 485 71 485 q 81 502 73 502 l 81 509 l 78 509 q 64 475 68 509 m 695 495 q 702 488 696 488 l 705 488 q 709 498 705 492 l 702 502 q 695 495 695 500 m 68 468 l 68 465 q 85 420 69 444 q 81 407 81 414 l 81 404 q 92 414 86 404 l 92 424 q 71 468 78 436 l 68 468 m 641 471 l 668 471 q 743 434 692 450 l 739 427 q 749 414 745 414 q 783 431 762 414 q 807 424 797 424 q 851 437 837 437 q 878 427 870 427 q 939 434 886 427 q 963 383 963 434 q 922 285 963 325 l 922 268 q 926 234 926 249 q 888 231 903 231 l 865 231 q 844 237 855 231 q 824 231 833 231 l 824 227 q 821 153 824 203 l 824 153 l 821 146 l 821 142 l 824 125 l 817 122 q 770 156 794 131 q 675 170 675 165 q 637 163 656 163 q 600 217 625 191 q 556 261 600 229 q 512 298 556 269 q 576 349 519 311 q 600 390 583 390 q 617 431 617 390 q 634 468 624 435 l 641 471 m 956 468 l 963 468 l 963 458 q 956 451 963 451 l 949 451 q 943 458 943 451 l 956 468 m 85 393 l 85 376 q 34 349 85 364 q 41 342 35 342 l 44 342 q 95 370 57 342 l 92 393 l 85 393 m 695 390 l 695 376 l 699 376 q 705 383 705 376 q 699 390 705 390 l 695 390 m 193 366 l 163 373 l 159 366 q 190 353 190 366 q 200 342 190 348 l 207 342 q 244 366 207 362 q 248 370 244 370 q 251 359 251 363 l 254 359 q 261 366 261 359 q 305 346 283 346 l 309 346 q 315 353 315 346 q 264 373 282 353 l 261 373 l 271 387 l 268 387 q 193 366 209 366 m 98 366 l 92 356 l 105 353 l 102 329 l 109 329 q 122 353 109 344 l 122 356 l 115 353 l 112 353 l 98 366 m 329 349 q 383 329 372 349 q 410 302 410 311 q 417 319 417 302 q 366 353 405 319 q 339 356 353 356 l 336 356 q 329 349 329 355 m 960 315 l 963 309 l 963 241 q 953 231 963 236 l 946 231 q 929 271 942 231 q 960 315 938 297 m 105 295 l 105 292 l 112 292 l 112 302 q 105 295 105 300 m 220 302 l 220 292 l 227 288 l 227 292 q 224 302 224 298 l 220 302 m 31 288 l 31 285 l 34 285 q 44 288 41 288 l 44 295 l 37 295 q 31 288 31 294 m 495 288 l 498 288 q 556 237 524 279 q 590 186 570 237 q 522 156 573 166 q 515 149 522 149 l 512 156 l 512 183 q 515 214 512 195 q 512 231 512 219 l 420 231 q 414 237 414 231 l 414 241 q 485 278 452 278 q 495 288 485 283 m 241 264 l 241 244 l 248 244 l 248 264 l 241 264 m 902 264 l 902 254 l 912 254 l 912 264 l 902 264 m 95 244 l 95 241 l 98 241 q 109 258 106 241 q 95 244 103 258 m 770 186 q 763 173 770 181 l 770 170 q 780 173 777 173 l 780 180 q 773 186 780 186 l 770 186 m 607 183 l 610 183 q 644 129 619 129 q 654 119 644 126 q 682 146 662 119 l 709 146 q 719 115 715 146 l 726 115 l 726 136 q 732 142 727 142 q 766 136 766 140 q 790 109 772 124 q 787 98 787 102 l 797 98 l 797 105 q 824 78 824 105 l 824 61 q 814 0 824 0 l 810 0 q 790 7 801 0 l 770 0 q 766 14 766 6 l 763 14 l 743 0 l 631 0 q 597 17 610 17 q 593 3 593 11 l 587 3 l 563 0 q 553 10 563 5 q 519 0 545 4 q 512 7 519 7 q 515 10 512 10 l 512 51 l 512 71 q 519 119 512 83 q 515 129 515 125 q 553 156 545 156 l 570 153 q 607 183 581 154 m 644 149 l 661 149 q 668 142 668 148 q 661 125 661 132 l 654 125 q 637 139 637 134 l 637 142 q 644 149 639 149 m 553 125 l 553 115 l 556 115 q 559 125 556 119 l 553 125 m 682 119 l 695 119 l 695 125 l 688 125 q 682 119 682 124 m 621 105 l 614 105 l 593 102 q 580 105 587 105 l 580 98 l 614 95 q 617 98 614 98 q 627 88 617 94 l 631 88 q 648 102 646 102 q 644 119 644 107 l 641 119 q 621 105 621 119 m 658 112 l 658 102 l 668 102 l 668 112 l 658 112 m 678 98 q 671 81 678 90 l 671 78 l 682 78 q 685 98 682 81 l 678 98 m 675 68 l 675 58 l 688 58 l 688 61 q 682 68 688 68 l 675 68 m 729 27 q 739 20 729 20 q 756 58 749 20 q 753 68 753 64 q 732 27 745 68 l 729 27 m 648 27 l 648 20 q 658 17 651 20 l 665 27 l 665 31 l 648 27 z "},"5":{"ha":949,"x_min":0,"x_max":963,"o":"m 153 1136 l 153 1133 l 159 1136 l 170 1136 q 180 1133 180 1136 l 197 1136 l 200 1136 q 244 1133 222 1136 l 264 1136 q 295 1095 272 1136 l 298 1095 l 295 1078 l 295 1072 q 319 1041 319 1044 l 319 1034 q 197 990 218 990 q 125 970 130 975 l 153 970 q 332 1031 248 994 q 424 936 338 1002 l 424 909 q 397 865 424 865 l 373 865 q 342 709 342 720 l 346 709 q 427 739 412 739 q 444 719 431 739 l 444 715 q 387 631 436 711 q 281 685 376 631 l 278 685 l 278 678 q 370 627 290 678 q 387 617 387 627 q 339 543 379 587 l 342 536 l 342 529 q 332 488 342 500 q 41 498 88 498 q 34 505 41 505 q 54 607 44 571 l 51 607 q 85 749 75 749 l 132 760 q 183 726 144 760 q 217 719 199 726 l 217 722 q 176 743 217 732 l 163 760 q 166 787 166 779 l 153 766 q 125 773 150 766 l 85 760 q 81 770 81 766 q 153 1136 138 1136 m 315 1136 l 336 1136 q 342 1129 342 1135 q 319 1119 326 1119 l 309 1133 l 315 1136 m 410 1136 l 454 1136 q 471 1133 466 1136 l 492 1136 l 587 1136 q 593 1129 593 1135 l 593 1126 l 590 1119 q 651 1136 609 1136 l 675 1136 q 678 1133 678 1136 l 685 1136 l 688 1136 l 688 1133 q 678 1126 688 1126 l 678 1116 q 702 1133 696 1116 q 715 1136 708 1136 l 746 1136 l 749 1122 l 753 1122 q 773 1136 753 1136 l 780 1136 q 810 1133 798 1136 q 844 1136 828 1136 l 858 1136 q 868 1126 863 1136 l 868 1112 q 861 1105 868 1105 l 841 1116 q 810 1112 823 1112 l 810 1105 q 817 1099 812 1099 q 841 1105 841 1099 q 868 1078 868 1097 l 868 1075 q 865 1061 868 1067 q 868 1048 868 1055 l 868 1038 q 858 1021 868 1021 l 858 1014 q 868 1007 868 1014 l 868 963 q 854 953 868 953 q 844 956 848 956 l 844 949 q 868 936 868 947 l 868 875 q 858 865 868 870 l 821 865 q 787 916 804 875 q 790 926 790 922 q 783 956 790 931 q 787 960 787 956 q 797 956 790 960 q 851 990 851 963 q 854 1000 854 990 l 854 1004 q 844 1014 844 1004 l 838 1014 l 841 994 q 793 970 829 970 l 783 970 l 749 973 l 749 970 l 743 973 l 715 973 q 654 943 668 973 q 604 916 637 916 l 604 912 q 570 865 604 865 l 563 865 q 549 868 549 865 l 526 865 l 444 865 l 444 868 q 481 919 444 919 q 498 926 498 919 q 509 922 505 922 l 526 932 l 529 932 l 539 926 q 576 939 576 935 q 543 949 576 947 q 451 926 519 933 q 427 973 451 959 l 420 970 q 417 987 420 987 l 400 987 q 359 1048 375 1029 q 322 1095 322 1074 q 359 1126 322 1100 l 359 1133 q 410 1136 393 1136 m 393 1109 l 393 1102 l 400 1102 q 407 1109 407 1102 q 404 1112 404 1109 q 393 1109 397 1109 m 702 1082 q 705 1072 702 1078 q 699 1048 705 1065 q 712 1027 707 1027 q 715 1031 712 1031 q 709 1075 712 1038 q 746 1088 743 1088 l 746 1095 q 739 1102 746 1102 l 702 1082 m 780 1092 l 749 1092 l 749 1088 q 756 1082 751 1082 l 763 1082 q 783 1088 772 1082 q 814 1078 793 1088 l 817 1085 l 817 1088 q 797 1095 797 1088 l 780 1092 m 563 1058 q 526 1004 526 1013 l 529 1004 q 566 1048 560 1048 l 566 1058 l 563 1058 m 726 1017 l 726 1014 q 760 983 735 1014 l 760 987 q 729 1017 760 1006 l 726 1017 m 763 960 q 780 895 777 960 q 797 878 797 880 l 797 871 q 790 865 797 865 l 712 865 q 699 868 705 865 q 685 865 692 865 l 621 865 q 614 871 614 865 l 614 875 q 709 956 696 956 q 763 960 743 960 m 583 932 l 583 922 l 587 922 q 593 929 593 922 l 587 932 l 583 932 m 580 760 q 875 634 766 760 l 875 631 l 793 580 l 787 580 l 780 583 q 773 570 780 578 l 773 546 q 743 505 773 517 q 678 471 720 505 q 634 454 667 471 q 583 519 627 454 q 458 553 541 553 l 414 580 q 420 604 420 593 l 417 604 q 465 678 419 624 q 485 709 465 688 l 485 712 l 461 739 l 461 743 q 580 760 461 755 m 237 712 q 278 692 237 707 q 281 688 278 688 l 285 688 q 237 712 276 712 m 787 668 l 793 665 l 797 665 q 807 675 802 665 l 807 678 l 797 678 q 787 668 792 678 m 882 610 l 888 610 q 895 580 888 592 q 875 522 878 554 q 865 515 865 522 l 865 512 l 871 502 l 871 498 l 807 498 q 777 522 777 513 q 824 583 777 570 q 882 610 873 610 m 899 604 q 909 587 906 604 l 905 587 q 899 593 899 587 l 899 604 m 916 556 l 926 556 q 956 451 956 483 l 953 444 q 963 410 963 427 q 960 407 963 407 l 963 390 l 963 353 q 953 319 963 336 l 960 315 q 936 254 947 254 l 919 254 l 922 271 l 899 268 q 892 281 892 276 l 882 281 l 878 268 q 885 248 885 257 l 882 241 l 885 241 q 895 244 892 244 q 912 237 906 237 q 882 197 912 220 q 895 183 882 191 q 919 200 895 192 l 922 200 l 922 197 q 899 159 915 179 l 892 163 l 885 163 l 878 159 l 882 142 l 882 139 q 854 105 876 139 q 661 10 741 10 l 661 24 l 654 24 l 654 7 q 583 -10 652 -5 l 566 -7 l 563 -14 q 461 34 467 25 l 461 51 q 451 41 456 51 l 451 24 q 465 0 465 9 l 468 0 q 475 20 468 20 q 522 -14 522 -11 l 522 -17 l 505 -20 q 481 -17 495 -20 l 451 -20 q 373 -7 373 -18 q 434 85 373 64 q 451 88 439 88 q 465 58 456 58 l 465 61 q 461 98 461 84 q 465 109 465 105 q 410 85 437 87 q 363 -7 363 63 l 356 -10 q 136 85 252 -1 l 105 119 q 149 159 105 121 q 180 248 159 181 l 197 251 l 220 248 q 278 302 248 248 q 295 305 283 305 l 295 309 l 288 319 l 288 322 q 329 241 329 298 q 390 173 372 222 l 407 173 q 410 176 410 173 q 468 112 468 155 l 475 112 l 475 122 l 488 122 l 488 102 q 495 95 490 95 q 576 146 495 128 q 621 173 602 173 l 631 173 q 627 115 627 127 l 637 109 l 637 115 q 634 142 637 124 q 641 163 637 163 l 631 220 q 641 227 631 227 l 631 241 l 631 271 q 668 292 650 292 l 668 295 l 654 295 q 634 288 644 288 l 627 288 l 627 292 q 648 359 627 359 l 651 359 q 634 383 634 370 l 634 410 q 682 431 634 417 q 732 461 689 431 q 797 478 785 478 q 810 465 810 475 l 824 465 q 827 468 827 465 l 834 465 q 871 468 857 468 l 875 468 l 878 451 l 882 451 l 882 461 q 878 465 878 461 q 885 471 885 465 q 895 468 892 468 l 899 468 l 899 471 q 885 485 885 471 q 899 505 885 488 q 895 519 895 517 q 916 556 908 556 m 400 559 l 407 559 q 427 543 427 548 q 383 522 407 538 l 380 522 q 373 529 373 522 l 373 532 q 400 559 373 536 m 760 465 l 760 458 l 770 458 l 770 465 l 760 465 m 790 454 q 797 448 791 448 l 800 454 l 800 461 l 797 461 q 790 454 790 460 m 719 458 l 719 448 l 726 448 l 726 458 l 719 458 m 810 441 l 817 437 l 827 444 l 844 441 l 844 448 q 838 454 844 454 l 834 454 q 810 441 816 454 m 715 424 l 705 410 l 705 407 l 712 407 q 722 417 717 407 q 715 424 722 424 m 763 410 l 773 404 q 780 420 780 414 l 773 420 q 763 410 768 420 m 678 404 q 665 383 665 387 l 671 380 q 685 397 671 387 q 678 404 685 404 m 719 400 l 715 393 l 726 393 q 719 400 726 400 m 319 346 q 332 336 332 341 l 332 329 l 326 329 q 312 342 320 329 l 319 346 m 715 336 l 719 329 l 719 326 l 709 312 l 712 312 q 732 322 725 322 l 732 332 q 726 339 732 339 l 722 339 l 715 336 m 746 326 q 763 336 763 330 l 763 339 q 746 326 746 330 m 251 339 l 254 332 l 254 329 q 207 298 228 298 q 170 302 177 302 q 142 298 159 298 q 122 326 142 302 q 251 339 138 329 m 88 322 q 129 271 129 297 l 129 244 q 146 271 134 244 q 159 275 152 275 l 163 268 l 119 183 q 85 156 115 183 q 0 312 23 220 q 88 322 20 319 m 682 305 l 699 305 q 692 312 699 312 l 688 312 q 682 305 682 311 m 336 312 l 339 312 q 441 244 382 262 q 600 305 562 244 l 607 305 q 610 248 610 259 l 607 234 q 621 214 614 234 q 563 180 621 207 q 485 153 555 172 q 461 186 480 153 q 424 214 455 186 q 404 220 413 220 q 393 210 404 216 l 390 210 q 383 220 383 210 l 387 227 q 346 271 382 243 q 336 285 339 285 q 339 295 339 292 l 336 312 m 702 275 q 712 264 702 270 l 729 278 l 743 278 q 749 268 743 268 l 753 268 q 749 281 753 275 q 753 295 753 288 l 746 295 q 702 275 702 280 m 641 292 l 641 285 l 644 285 q 654 288 651 288 l 654 292 l 641 292 m 844 271 q 841 261 844 268 l 848 258 q 854 264 854 258 q 848 271 854 271 l 844 271 m 668 258 l 668 254 q 682 258 675 254 q 692 237 692 258 l 695 237 q 712 261 703 239 l 695 261 q 688 268 695 268 q 668 258 668 264 m 919 261 l 922 261 q 929 254 929 260 l 922 251 l 919 251 q 912 258 912 251 l 919 261 m 804 237 l 804 227 l 814 227 l 814 237 l 804 237 m 848 220 l 848 210 l 854 210 l 854 220 l 848 220 m 515 217 l 515 207 l 522 207 l 522 217 l 515 217 m 861 170 l 861 166 q 868 173 868 166 l 868 176 q 861 170 861 175 m 631 125 q 648 98 636 106 l 651 105 q 634 125 638 125 l 631 125 m 492 92 l 498 88 q 509 112 502 102 l 509 115 l 505 115 q 492 92 498 115 m 668 88 l 675 71 l 675 61 q 688 71 688 66 l 688 75 q 671 88 688 79 l 668 88 m 644 75 l 644 68 q 651 61 646 61 l 651 68 q 644 75 651 75 z "},"6":{"ha":949,"x_min":-14,"x_max":977,"o":"m 458 1149 l 475 1149 q 505 1143 484 1149 l 546 1146 q 573 1136 554 1146 l 590 1139 q 644 1122 615 1138 q 654 1126 648 1122 q 858 997 795 1088 q 865 943 858 985 l 871 943 l 868 949 l 868 963 q 875 970 869 970 q 919 858 919 908 q 892 851 907 851 l 882 851 q 868 854 874 851 q 844 848 851 848 q 831 851 838 851 l 831 858 q 861 885 831 861 q 865 882 861 882 q 895 916 887 902 q 885 919 888 919 l 888 936 l 882 939 l 875 939 l 875 932 q 882 926 876 926 q 821 861 882 908 q 793 844 821 849 l 787 848 q 749 844 764 844 l 743 844 q 712 865 712 844 l 705 865 q 678 878 678 865 q 685 895 685 889 q 675 932 678 895 q 665 939 665 932 l 665 943 q 688 953 665 949 l 688 960 q 654 953 663 956 q 621 1007 654 977 l 621 1014 q 641 1041 624 1014 l 641 1044 l 634 1044 l 610 1041 q 593 1082 595 1061 l 587 1082 l 587 1078 q 610 1004 587 1067 q 637 970 610 984 q 668 888 668 902 q 651 865 668 885 q 675 848 675 853 l 675 844 q 668 838 675 838 l 648 838 l 627 834 q 614 854 614 838 l 614 861 l 631 858 q 648 868 648 861 q 631 875 640 868 l 634 882 l 631 899 l 627 899 q 614 865 621 865 q 590 892 599 869 q 610 902 603 902 l 610 909 l 587 895 l 580 895 q 495 922 547 922 l 481 922 q 383 882 383 909 q 329 777 338 836 q 309 726 322 741 l 309 702 l 295 661 q 302 648 298 648 q 234 587 294 587 q 176 566 193 566 q 132 597 165 566 l 119 597 l 119 587 q 166 556 132 587 q 197 559 184 559 q 210 543 210 553 q 203 512 203 521 l 203 509 q 217 454 209 494 q 220 451 220 454 q 190 404 205 404 l 190 397 q 241 353 207 397 q 298 264 263 350 q 292 231 292 249 q 295 197 295 201 q 231 115 253 139 l 231 112 l 217 112 q 176 98 180 98 l 173 98 q 109 170 109 149 q 37 288 81 173 q 47 292 44 292 l 47 295 q 24 322 24 295 l 10 366 q 14 380 14 372 q -3 454 2 380 l 3 458 l 7 458 l 14 454 l 17 461 q -10 492 -10 461 l -7 509 q -14 570 -14 543 l -14 597 q 31 644 10 616 l 47 648 l 58 648 q 98 600 65 648 l 109 593 l 112 593 l 112 600 q 68 648 77 648 l 68 651 l 71 675 l 64 678 q 58 665 64 673 q 20 692 50 665 l 20 688 l 47 658 q 41 651 41 656 l 34 654 l 20 654 q -3 621 20 637 l -10 621 l -10 648 q -3 685 -10 652 q -7 688 -3 688 q 3 702 -5 702 l 0 719 q 17 783 9 783 l 27 777 l 41 777 l 41 783 q 17 790 17 783 q 37 821 17 821 l 41 821 l 27 834 q 136 1010 66 941 l 153 1007 q 146 1024 146 1018 q 444 1146 277 1146 q 458 1149 444 1149 m 593 1133 l 593 1126 q 600 1095 593 1118 l 607 1095 q 597 1133 607 1133 l 593 1133 m 465 1072 l 465 1065 l 468 1065 q 485 1078 485 1074 q 478 1085 485 1085 q 465 1072 473 1085 m 658 1051 l 658 1048 l 665 1048 q 675 1058 669 1048 l 675 1061 l 668 1061 q 658 1051 663 1061 m 712 1058 l 709 1051 l 709 1048 q 715 1041 710 1041 l 719 1048 l 719 1051 q 712 1058 719 1058 m 739 1055 l 739 1048 l 753 1048 l 753 1055 l 739 1055 m 685 1034 l 685 1027 l 702 1031 l 702 1034 q 695 1041 702 1041 l 692 1041 q 685 1034 685 1040 m 773 1031 l 770 1024 l 770 1021 l 790 1021 l 790 1027 q 773 1031 779 1027 m 288 1014 l 288 1010 l 305 1010 q 312 1017 312 1010 l 305 1017 l 288 1014 m 234 987 q 237 983 237 987 l 264 1000 l 281 1000 l 281 1007 q 234 987 234 1002 m 844 1000 l 844 994 l 848 994 q 858 1004 852 994 l 851 1007 q 844 1000 844 1006 m 475 987 l 475 983 l 481 983 q 492 994 486 983 l 492 1000 l 488 1000 q 475 987 483 1000 m 193 973 l 200 970 l 217 973 q 207 983 217 978 l 203 983 q 193 973 199 983 m 529 966 l 526 960 l 526 953 l 529 953 q 536 960 536 953 q 529 966 536 966 m 631 956 q 621 939 631 950 l 621 929 l 617 929 l 617 922 q 637 902 632 922 l 641 902 l 641 916 q 634 943 641 943 l 637 949 l 637 956 l 631 956 m 180 943 l 180 932 l 183 932 q 190 939 190 932 l 190 943 l 180 943 m 726 936 l 732 932 l 736 932 l 736 943 l 732 943 q 726 936 726 941 m 770 926 l 793 926 q 800 932 800 926 l 800 936 l 780 936 q 770 926 775 936 m 159 929 q 142 885 159 908 l 146 885 q 183 922 149 885 l 183 926 l 166 922 l 166 929 l 159 929 m 705 905 l 705 899 q 715 892 705 892 q 739 909 737 901 q 722 922 739 913 q 705 905 718 922 m 332 878 l 329 871 q 353 868 349 871 l 356 875 l 332 878 m 783 878 l 783 871 l 793 871 q 787 878 793 878 l 783 878 m 756 865 l 766 858 l 770 865 q 763 871 770 871 q 756 865 756 870 m 712 858 l 719 848 l 719 844 l 699 844 l 699 854 q 712 858 701 854 m 190 834 l 190 831 q 217 838 202 838 l 227 838 l 227 844 l 200 844 q 190 834 195 844 m 119 783 q 125 777 120 777 q 180 831 145 831 l 180 838 q 119 783 139 838 m 244 834 l 244 827 q 271 821 266 821 q 244 834 271 827 m 302 834 l 278 821 l 281 821 q 309 831 309 823 l 302 834 m 68 814 l 68 807 l 78 807 l 78 814 l 68 814 m 71 773 l 71 770 q 81 763 81 770 l 81 749 l 71 736 l 71 722 q 112 763 99 763 q 105 770 112 770 l 102 770 q 95 760 95 770 l 85 760 q 75 773 85 773 l 71 773 m 573 773 q 692 760 637 773 l 692 753 q 668 726 692 739 q 665 712 668 718 q 682 637 671 669 q 651 617 682 633 q 566 583 651 604 l 549 587 q 502 573 549 580 q 431 614 450 614 q 420 610 427 614 q 353 621 374 614 q 339 614 339 618 q 319 627 319 622 l 319 641 q 326 658 319 658 q 315 675 319 675 q 329 702 322 702 q 339 699 336 699 q 549 770 452 770 q 553 766 553 770 q 573 773 564 773 m 715 729 l 719 729 q 817 682 746 729 l 817 678 l 814 661 l 821 661 l 821 675 l 824 675 q 946 495 914 607 q 960 437 956 463 q 865 404 937 404 q 824 519 824 459 q 807 590 807 543 q 749 621 782 590 q 709 610 719 610 q 688 688 698 610 l 685 688 q 715 729 715 726 m 332 726 l 336 719 l 329 715 l 326 715 l 326 719 q 332 726 327 726 m 71 705 l 71 692 q 78 699 78 692 l 78 705 l 71 705 m 804 651 q 800 641 804 648 l 807 641 q 810 651 807 644 l 804 651 m 692 600 l 709 597 l 743 600 q 787 570 758 570 q 810 488 787 543 q 807 458 807 470 q 827 414 814 458 q 851 387 847 387 q 844 359 844 369 q 848 332 848 335 q 844 309 844 319 q 892 281 892 289 q 871 241 871 263 q 851 210 869 210 l 851 203 l 861 203 l 871 210 l 875 210 q 888 176 884 210 q 790 64 861 101 q 753 78 762 78 l 749 78 q 736 75 742 78 l 712 81 l 627 58 q 495 173 609 59 l 481 173 q 454 170 467 173 q 410 197 410 170 l 407 197 l 397 190 q 424 156 404 167 l 454 156 l 488 159 q 529 119 488 148 l 529 112 q 512 102 512 109 l 519 98 l 532 109 l 536 109 q 617 44 536 86 q 624 41 617 41 q 705 61 655 51 q 736 58 718 61 q 756 64 749 64 q 770 54 770 60 l 770 51 q 519 0 650 0 l 505 0 q 488 47 493 0 q 505 58 488 58 l 505 64 l 502 64 q 478 41 478 56 q 488 14 488 39 l 488 7 l 485 0 q 376 17 394 7 l 376 14 q 366 17 370 17 l 366 24 l 370 24 l 383 20 q 427 37 399 31 l 427 41 q 420 47 427 47 l 417 47 q 376 27 404 35 q 346 37 367 27 q 339 31 346 31 l 315 31 q 281 47 307 37 l 281 54 l 271 47 q 224 75 271 50 l 224 78 q 244 105 244 86 q 278 129 248 116 q 288 102 288 115 q 281 95 281 100 l 281 88 l 285 88 q 295 115 293 88 q 288 122 288 115 l 288 136 q 332 197 288 153 q 322 241 322 213 l 329 264 l 329 268 q 234 397 329 300 q 231 410 231 403 l 231 414 q 258 461 249 429 l 258 465 l 254 465 q 248 454 254 454 q 234 478 242 454 l 237 485 l 237 498 q 231 512 231 507 q 237 539 231 522 q 231 556 231 550 q 264 580 241 580 l 268 580 q 281 576 275 580 l 309 593 l 312 593 q 339 583 326 593 l 356 587 l 404 583 l 410 587 q 502 539 454 583 q 346 407 373 539 l 346 380 q 434 248 346 290 q 451 237 440 248 l 509 237 q 634 349 606 237 q 654 370 634 357 l 654 376 l 644 376 q 637 366 644 366 l 634 373 l 634 414 q 556 526 634 481 q 515 536 523 536 l 515 539 q 553 556 515 547 l 576 549 l 651 576 q 692 597 667 593 l 692 600 m 726 553 l 726 546 l 729 546 q 739 549 736 549 l 739 556 q 726 553 733 553 m 37 451 l 37 441 l 44 441 l 44 444 q 37 451 44 451 m 88 424 l 88 414 l 112 414 l 119 410 l 119 417 q 88 424 96 420 m 285 414 l 285 410 l 302 407 l 305 407 l 305 414 l 298 414 q 295 410 295 414 l 288 414 l 285 414 m 173 404 l 190 404 q 183 410 190 410 l 180 410 q 173 404 173 409 m 692 400 l 692 393 q 712 404 712 397 l 712 407 l 705 407 q 692 400 697 400 m 973 397 l 977 373 q 932 203 955 203 q 926 193 932 193 q 916 207 926 207 l 916 224 l 909 234 q 932 275 909 245 q 892 305 932 295 l 878 319 l 878 349 l 905 387 l 929 387 q 973 397 967 397 m 695 363 l 695 359 l 705 359 q 814 393 814 381 l 810 393 l 695 363 m 44 380 q 58 366 44 374 l 61 373 q 54 380 61 380 l 44 380 m 807 373 l 807 370 q 814 376 814 370 l 814 380 q 807 373 807 378 m 665 366 q 668 363 668 366 q 682 373 682 368 l 682 376 l 675 376 q 665 366 670 376 m 58 363 l 58 356 l 61 339 l 64 339 l 64 356 q 58 363 64 363 m 766 356 l 763 349 l 770 346 l 773 353 l 766 356 m 614 227 l 610 220 l 617 217 l 621 224 l 614 227 m 336 200 l 336 197 q 346 183 341 183 l 370 183 q 383 180 377 183 q 393 183 390 183 l 393 193 q 383 197 390 193 q 356 193 365 193 q 336 200 350 193 m 105 197 l 105 190 q 119 183 111 190 l 122 183 l 122 186 q 105 197 122 194 m 356 170 l 356 156 l 363 156 l 363 159 q 359 170 359 166 l 356 170 m 366 136 q 370 122 370 130 l 373 122 l 373 132 l 366 136 m 370 109 q 353 68 370 100 l 353 64 q 376 92 366 72 l 376 109 l 370 109 m 227 102 l 231 102 l 231 95 q 210 81 231 90 q 197 92 197 87 l 197 95 l 200 95 l 217 92 q 227 102 217 96 m 512 75 l 512 71 l 536 71 q 543 78 543 71 l 536 78 l 512 75 z "},"7":{"ha":949,"x_min":34,"x_max":929,"o":"m 44 1112 l 58 1112 q 92 1105 64 1112 q 112 1112 102 1112 l 217 1112 q 220 1102 217 1102 q 288 1112 255 1112 q 309 1109 304 1112 q 363 1112 343 1112 l 485 1112 q 488 1109 488 1112 l 495 1112 l 526 1112 l 536 1105 q 532 1095 532 1099 l 532 1092 l 536 1092 q 543 1102 536 1102 q 576 1034 555 1089 l 573 1010 l 576 1010 q 583 1017 583 1010 l 583 1048 q 553 1109 564 1067 l 559 1112 l 563 1112 q 590 1109 587 1112 q 627 1112 613 1112 l 654 1112 q 671 1102 671 1112 l 675 1102 l 675 1109 l 688 1109 q 715 1112 703 1109 q 743 1109 728 1109 l 760 1112 l 783 1095 l 783 1112 l 919 1112 q 929 1102 924 1112 l 929 990 q 919 983 929 983 l 919 973 l 926 963 l 926 960 q 919 953 926 953 l 902 956 q 871 953 884 953 l 871 949 l 888 946 q 909 949 906 949 q 929 936 916 947 q 926 932 929 932 q 929 882 929 899 l 929 875 q 848 790 929 858 q 756 661 770 688 l 753 661 l 736 665 q 746 648 746 654 q 631 400 689 555 q 607 393 614 393 q 573 454 607 431 l 566 454 l 559 451 q 532 498 538 481 q 481 546 513 520 l 478 563 q 519 587 478 581 l 515 593 l 515 600 q 570 644 570 625 l 583 644 l 600 648 l 600 651 q 573 661 573 651 q 621 722 578 693 q 624 736 624 728 q 614 756 624 744 l 614 763 q 658 783 614 769 q 661 787 658 787 q 702 783 696 783 l 756 800 q 763 793 758 793 l 770 793 q 773 797 773 793 l 780 793 l 797 793 l 821 797 l 821 804 l 800 804 q 793 821 800 821 l 793 804 l 787 800 q 736 807 744 807 q 648 787 725 798 l 624 777 l 614 777 q 593 844 606 777 q 590 848 590 844 l 590 861 q 600 865 593 861 q 543 966 543 950 l 570 1004 l 570 1007 l 559 1007 q 532 956 552 1004 q 576 885 547 910 q 580 868 576 873 q 566 841 571 841 l 563 841 q 546 848 546 841 q 549 858 549 854 l 546 858 q 515 841 528 841 l 444 841 q 441 844 441 841 l 434 841 l 404 841 q 376 844 380 841 q 339 841 353 841 l 254 841 q 248 848 248 841 q 305 905 256 905 q 336 919 305 909 q 363 960 336 930 l 363 963 l 359 963 q 326 919 350 957 l 288 909 l 281 909 q 278 912 278 909 q 254 895 275 912 l 251 895 q 153 949 176 914 q 146 963 150 963 l 149 970 l 149 980 l 115 1027 l 119 1034 q 115 1044 115 1041 q 119 1055 119 1051 q 102 1065 102 1059 l 102 1075 l 105 1099 l 98 1102 l 92 1085 l 98 1044 q 102 1048 102 1044 q 112 1044 109 1044 l 112 1038 q 81 1010 81 1015 l 88 1010 q 109 1017 99 1017 q 142 936 123 1017 q 237 882 169 907 l 237 871 q 220 841 231 841 l 112 841 q 75 844 98 841 q 47 841 71 841 l 44 841 q 34 851 39 841 l 34 919 q 37 970 34 936 q 34 973 34 970 l 41 977 q 81 943 58 977 l 88 939 l 92 939 l 92 943 q 58 990 66 966 l 41 987 q 34 1007 34 998 l 34 1102 q 44 1112 34 1107 m 773 1092 l 773 1088 q 800 1048 783 1080 l 800 1051 q 777 1092 800 1071 l 773 1092 m 461 1085 q 451 1072 461 1080 l 468 1068 l 471 1085 l 461 1085 m 858 1082 l 858 1078 q 865 1072 859 1072 l 868 1072 l 868 1082 l 858 1082 m 278 1061 l 275 1038 l 281 1034 q 285 1061 281 1048 l 278 1061 m 356 1051 l 356 1044 l 359 1044 q 366 1051 366 1044 l 356 1051 m 427 1014 l 427 1010 q 448 1048 439 1010 l 427 1014 m 393 1034 q 383 1027 393 1027 l 383 1024 q 397 1014 389 1024 l 400 1031 l 393 1034 m 607 1034 l 607 1031 l 610 1024 q 600 1021 604 1021 l 600 1014 l 614 1014 l 614 1034 l 607 1034 m 800 1034 l 800 1027 q 817 1010 800 1023 l 817 1017 q 804 1034 810 1033 l 800 1034 m 278 1027 l 278 1010 l 281 1010 l 285 1024 l 278 1027 m 47 1007 l 47 1004 l 51 1004 q 58 1010 58 1004 l 58 1014 l 54 1014 q 47 1007 47 1013 m 393 1010 l 393 997 l 410 1000 l 410 1007 q 400 1010 407 1007 q 397 1007 400 1007 q 393 1010 397 1010 m 519 1007 l 515 990 l 526 990 q 532 997 532 990 q 529 1007 529 1004 l 519 1007 m 261 990 l 244 994 q 271 980 244 989 l 278 980 l 278 997 l 275 997 q 261 990 267 990 m 373 994 q 359 977 373 989 q 376 990 376 980 l 376 994 l 373 994 m 410 977 l 410 973 l 420 973 q 427 980 427 973 l 427 983 l 417 983 q 410 977 410 982 m 634 973 q 631 963 634 970 l 637 960 q 644 966 644 960 l 644 973 l 634 973 m 838 932 l 841 932 l 854 949 l 851 949 q 838 932 844 948 m 610 939 l 610 932 l 627 932 l 627 939 q 621 943 621 939 q 610 939 614 939 m 766 922 l 777 922 l 777 929 l 773 929 q 766 922 766 928 m 98 919 l 98 912 l 112 912 q 105 919 112 919 l 98 919 m 793 882 l 787 885 q 766 861 779 885 l 743 861 l 743 854 l 770 854 q 777 844 777 854 l 780 844 l 777 861 l 777 868 q 817 902 801 868 l 814 902 q 793 882 796 893 m 617 892 q 590 865 605 865 l 590 861 q 597 854 591 854 l 600 854 q 634 885 616 879 l 685 871 q 736 878 732 878 q 729 885 736 885 l 712 885 q 685 875 696 875 q 675 888 680 888 l 658 885 q 617 892 634 892 m 312 854 l 312 851 l 319 851 q 326 858 326 851 l 319 861 q 312 854 312 860 m 566 814 q 593 736 587 764 q 566 709 593 732 q 546 671 566 701 q 495 614 546 631 q 461 590 485 590 q 431 644 445 596 q 566 814 489 730 m 654 753 l 654 749 q 661 743 656 743 q 685 760 685 754 l 678 763 q 654 753 658 753 m 780 746 l 793 746 l 793 753 l 787 753 q 780 746 780 751 m 756 736 l 753 729 l 753 726 l 756 726 q 763 732 763 726 l 756 736 m 699 678 l 699 671 l 702 671 q 709 678 709 671 l 699 678 m 420 607 l 424 607 q 451 566 427 607 l 454 566 l 451 549 l 451 539 q 475 515 469 515 l 475 505 q 353 458 393 468 l 329 458 l 329 461 q 407 604 363 535 q 420 607 413 607 m 529 573 q 546 570 541 573 l 549 576 l 543 580 l 536 580 q 529 573 529 578 m 488 559 l 495 556 l 498 563 l 498 570 q 488 559 494 570 m 461 502 q 553 417 524 421 q 559 397 559 406 l 559 373 q 549 332 549 341 l 549 312 l 556 302 l 546 241 q 553 231 553 241 q 522 102 538 102 q 387 180 437 136 l 370 176 q 312 210 346 210 q 254 241 303 241 l 251 241 q 231 231 238 231 l 231 234 q 315 448 286 448 q 461 502 389 462 m 600 383 l 614 383 q 597 319 597 330 l 593 319 q 583 336 587 319 q 600 383 591 383 m 319 258 q 315 248 319 254 l 322 244 l 322 258 l 319 258 m 281 217 q 339 183 300 217 q 393 159 359 183 q 434 136 408 159 q 522 85 443 136 q 543 71 543 78 q 498 3 543 56 q 488 -14 498 -14 l 217 -14 q 210 -3 210 -14 q 258 207 233 207 l 281 217 m 434 186 l 434 176 l 437 176 q 444 183 444 176 l 437 186 l 434 186 m 546 31 l 553 20 q 532 0 553 0 l 519 3 l 519 7 q 546 31 531 24 z "},"8":{"ha":949,"x_min":-20,"x_max":977,"o":"m 437 1149 l 444 1146 l 454 1146 l 475 1149 l 481 1146 q 492 1149 485 1146 q 590 1129 590 1145 l 587 1112 l 593 1112 q 607 1136 593 1134 q 736 1092 676 1119 l 736 1085 l 726 1072 l 726 1068 q 749 1082 749 1078 q 763 1068 760 1078 q 688 1027 715 1031 l 688 1031 q 668 1024 677 1024 l 671 1017 q 770 1061 707 1017 q 854 990 813 1047 q 895 885 895 926 q 865 865 865 869 q 854 844 865 857 l 861 841 l 865 841 q 882 871 865 863 l 899 871 l 902 854 q 899 824 902 842 q 902 821 899 821 q 831 658 902 734 q 766 614 821 648 q 787 580 766 593 q 797 590 797 580 l 800 590 q 858 526 858 574 l 865 526 l 865 529 l 861 546 l 865 546 q 909 492 886 531 l 909 481 l 905 481 q 885 502 885 481 l 878 502 l 878 492 l 875 475 l 885 475 l 902 471 q 892 461 902 469 l 875 465 q 831 420 861 465 l 810 407 q 773 414 806 407 l 763 414 q 702 359 734 372 q 637 349 695 353 q 583 505 618 364 q 570 536 583 536 q 522 566 557 536 q 481 556 492 556 q 461 634 471 556 l 458 634 q 492 692 492 673 q 556 719 533 692 q 573 722 568 719 l 570 729 q 590 766 590 758 l 593 766 l 614 753 l 644 760 l 644 770 l 631 770 q 624 763 624 768 q 600 780 600 774 q 648 831 627 817 q 651 827 648 827 q 682 861 673 848 q 671 865 675 865 l 675 882 l 668 885 l 661 885 l 661 878 q 668 871 663 871 q 607 807 668 854 l 607 797 l 597 797 l 597 814 q 502 926 597 892 l 502 929 l 485 926 l 434 926 q 407 953 430 926 l 407 960 q 427 987 410 960 l 427 990 l 420 990 l 397 987 q 380 1027 381 1006 l 373 1027 l 373 1024 q 397 949 373 1013 q 410 929 397 929 l 410 919 q 336 858 336 888 q 322 821 332 858 l 326 807 l 322 790 q 390 705 351 705 q 468 688 390 696 l 468 685 q 444 654 468 665 l 437 637 q 454 563 444 595 q 424 543 454 558 q 339 509 424 530 l 322 512 q 275 498 322 505 q 203 539 222 539 q 197 536 197 539 q 129 546 136 539 q 112 539 112 546 q 92 553 92 547 l 92 559 q 156 604 96 569 q 102 644 156 610 q 98 665 102 660 q 115 699 115 688 q 88 654 106 692 q 34 766 34 707 l 44 766 q 27 777 44 774 l 27 787 l 37 787 q 20 817 20 797 l 20 827 q 47 946 20 906 l 54 946 l 54 956 q 51 960 54 960 q 163 1075 51 989 q 234 1095 184 1087 q 244 1099 234 1099 l 254 1099 q 295 1088 263 1099 q 349 1109 314 1088 q 359 1105 356 1105 l 356 1088 l 356 1082 l 366 1082 l 366 1099 q 376 1105 366 1105 l 376 1112 q 359 1139 359 1112 q 420 1146 395 1146 l 420 1143 q 437 1149 437 1146 m 424 1126 l 424 1122 l 434 1122 l 434 1133 l 431 1133 q 424 1126 424 1131 m 339 1133 q 349 1129 346 1129 l 349 1126 q 302 1099 332 1099 q 278 1109 290 1109 l 268 1109 l 268 1116 q 339 1133 326 1133 m 393 1109 q 400 1095 400 1101 l 410 1095 q 400 1109 406 1109 l 393 1109 m 587 1078 l 587 1075 l 590 1075 q 600 1085 595 1075 l 600 1088 l 597 1088 q 587 1078 592 1088 m 380 1078 l 380 1072 q 387 1041 380 1063 l 393 1041 q 383 1078 393 1078 l 380 1078 m 610 1075 l 610 1065 q 631 1058 623 1065 l 631 1061 q 617 1075 631 1067 l 610 1075 m 688 1044 l 688 1041 q 699 1051 693 1041 l 699 1055 q 688 1044 694 1055 m 644 1034 l 644 1027 q 665 1010 652 1027 l 675 1024 q 644 1034 656 1034 m 251 1017 l 251 1010 l 254 1010 q 271 1024 271 1019 q 264 1031 271 1031 q 251 1017 259 1031 m 604 1024 l 604 1021 l 607 1021 q 614 1027 614 1021 l 614 1031 l 610 1031 q 604 1024 604 1029 m 444 997 l 444 994 l 451 994 q 461 1004 456 994 l 461 1007 l 454 1007 q 444 997 450 1007 m 498 1004 l 495 997 l 495 994 q 502 987 496 987 l 505 994 l 505 997 q 498 1004 505 1004 m 526 1000 l 526 994 l 539 994 l 539 1000 l 526 1000 m 471 980 l 471 973 l 488 977 l 488 980 q 481 987 488 987 l 478 987 q 471 980 471 985 m 651 980 q 644 973 651 973 q 665 888 658 956 l 671 888 l 668 895 l 668 902 q 678 926 668 913 l 678 929 l 668 929 l 668 943 q 671 946 668 946 l 668 953 l 668 960 q 682 977 668 962 l 675 980 l 668 977 l 651 980 m 559 977 l 556 970 l 556 966 l 576 966 l 576 973 q 559 977 565 973 m 75 960 l 75 956 l 92 956 q 98 963 98 956 l 92 963 l 75 960 m 631 946 l 631 939 l 634 939 q 644 949 639 939 l 637 953 q 631 946 631 951 m 261 932 l 261 929 l 268 929 q 278 939 273 929 l 278 946 l 275 946 q 261 932 269 946 m 315 912 l 312 905 l 312 899 l 315 899 q 322 905 322 899 q 315 912 322 912 m 773 902 l 773 895 l 777 895 q 783 902 783 895 l 773 902 m 190 844 l 190 827 q 207 807 202 807 l 207 814 l 197 827 l 197 844 l 190 844 m 871 831 l 871 804 l 865 793 l 865 787 l 871 787 q 878 814 871 790 l 878 831 l 871 831 m 119 824 l 115 817 q 139 814 135 817 l 142 821 l 119 824 m 248 777 l 248 773 l 254 773 q 319 787 271 787 l 322 787 l 322 793 q 248 777 276 793 m 210 780 q 214 753 214 762 q 203 749 207 749 l 203 739 l 207 739 q 224 766 216 739 q 217 787 217 766 q 210 780 210 785 m 88 780 l 64 766 l 68 766 q 95 777 95 768 l 88 780 m 671 760 l 678 756 q 685 763 685 756 l 678 766 q 671 760 671 765 m 702 749 l 702 746 q 709 739 703 739 l 715 739 q 729 749 715 749 l 729 753 l 712 753 q 702 749 705 749 m 675 743 l 675 732 l 688 732 q 678 743 688 737 l 675 743 m 159 739 q 163 729 163 732 l 166 729 q 173 736 173 729 l 173 739 l 159 739 m 699 719 l 695 702 l 732 692 l 732 695 q 699 719 716 715 m 739 688 l 766 688 l 766 692 q 760 699 766 699 q 739 688 739 696 m 641 692 l 641 685 l 644 685 q 651 692 651 685 l 641 692 m 607 651 q 614 644 608 644 q 617 654 614 654 l 614 661 l 614 665 q 627 675 614 673 l 627 682 l 621 682 q 607 651 607 677 m 600 607 l 607 607 q 614 631 607 623 l 614 637 q 600 607 604 637 m 688 631 q 695 624 690 624 l 699 631 l 688 631 m 749 621 l 739 607 l 746 604 q 756 607 753 607 l 756 614 q 749 621 756 621 m 590 597 q 587 587 590 593 l 593 587 q 597 597 593 590 l 590 597 m 722 539 l 729 536 l 746 553 q 739 559 746 559 q 722 539 729 557 m 478 546 l 495 543 l 529 546 q 573 515 545 515 l 576 492 l 576 488 l 570 488 q 478 512 541 512 q 336 427 371 512 q 329 376 329 395 l 329 349 q 427 241 329 275 q 465 234 441 234 l 485 234 q 610 292 578 234 q 631 336 626 336 l 637 332 q 631 305 631 315 q 634 278 634 281 q 631 254 631 264 q 678 227 678 235 q 658 186 658 209 q 637 156 655 156 l 637 149 l 648 149 l 658 156 l 661 156 q 675 122 671 156 q 621 24 675 115 q 587 7 621 10 q 539 24 544 24 l 536 24 q 522 20 528 24 l 498 27 q 420 7 425 7 l 420 3 q 312 92 378 15 q 281 119 304 92 l 268 119 q 241 115 254 119 q 197 142 197 115 l 193 142 l 183 136 q 210 102 191 113 l 241 102 l 275 105 q 315 64 275 94 l 315 58 q 298 47 298 55 l 305 44 l 319 54 l 322 54 q 359 14 322 40 l 359 10 l 356 10 q 329 24 329 10 l 305 24 q 302 20 302 24 q 142 88 235 30 q 102 122 119 98 q 119 142 114 142 q 109 186 109 159 l 115 210 l 115 214 q 20 342 115 246 q 17 356 17 349 l 17 359 q 44 407 35 374 l 44 410 l 41 410 q 34 400 41 400 q 20 424 28 400 q 24 434 24 431 q 20 461 24 437 q 95 539 39 515 l 98 539 q 125 529 113 539 l 142 532 l 190 529 l 197 532 q 292 485 229 532 l 298 485 q 339 502 327 502 l 363 495 l 437 522 q 478 543 454 538 l 478 546 m 814 481 l 810 475 l 810 468 l 814 468 q 821 475 821 468 q 814 481 821 481 m 953 461 q 977 342 977 412 q 834 81 977 184 l 817 85 l 817 81 q 821 71 821 75 q 675 17 738 26 l 675 20 q 722 98 675 36 l 719 122 l 719 146 l 709 146 l 709 163 l 702 173 q 726 214 702 184 q 685 244 726 234 l 671 258 l 671 288 l 699 326 l 722 326 q 807 387 771 326 q 848 376 828 387 q 875 390 875 382 l 875 414 q 902 434 893 414 l 953 461 m 7 414 l 14 414 q 20 397 14 408 q 3 370 20 379 q 0 373 3 373 l 7 414 m 234 404 l 234 400 q 244 390 234 395 l 251 390 l 251 400 l 234 404 m 71 359 l 71 356 l 88 353 l 92 353 l 92 359 l 85 359 q 81 356 81 359 l 75 359 l 71 359 m 139 359 q 180 342 139 349 l 180 349 l 163 349 l 149 359 l 139 359 m 193 353 l 193 346 l 203 346 l 203 353 l 193 353 m 899 339 l 899 336 l 902 336 q 919 349 919 345 l 919 353 l 916 353 q 899 339 900 346 m -14 332 q 51 261 3 309 q 78 203 71 224 q 71 170 71 188 q 75 136 75 140 q 71 125 71 129 l 68 125 q -20 329 -20 222 l -14 332 m 203 326 l 203 312 l 214 312 q 203 326 209 326 m 217 309 q 258 281 220 300 l 261 281 l 261 285 q 220 309 258 285 l 217 309 m 302 288 l 302 285 l 312 285 q 319 292 319 285 l 319 295 l 309 295 q 302 288 302 294 m 176 281 l 170 271 q 176 264 171 264 l 180 264 q 186 271 186 264 q 176 281 186 276 m 275 275 l 278 258 l 285 258 l 285 275 l 275 275 m 916 248 l 916 244 l 919 244 q 926 251 926 244 l 926 254 l 922 254 q 916 248 916 253 m 787 237 l 787 227 q 793 220 788 220 q 800 248 800 238 l 797 248 q 787 237 792 248 m 271 227 l 271 220 q 278 227 278 220 l 278 234 q 271 227 271 233 m 756 210 l 753 203 l 760 200 l 773 200 q 756 210 773 206 m 234 183 l 237 183 q 258 203 242 183 l 254 203 q 234 183 250 203 m 278 197 l 278 190 l 281 190 q 288 197 288 190 l 278 197 m 400 173 l 397 166 l 404 163 l 407 170 l 400 173 m 122 146 l 122 142 q 132 129 127 129 l 156 129 q 170 125 163 129 q 180 129 176 129 l 180 139 q 170 142 176 139 q 142 139 151 139 q 122 146 136 139 m 142 115 l 142 102 l 149 102 l 149 105 q 146 115 146 112 l 142 115 m 705 112 q 712 105 707 105 l 732 105 q 726 112 732 112 l 705 112 m 773 109 l 773 102 q 790 95 782 102 l 790 98 q 780 109 790 103 l 773 109 m 485 7 l 505 7 l 505 3 l 488 0 l 485 0 l 485 7 z "},"9":{"ha":949,"x_min":0,"x_max":963,"o":"m 444 1149 q 580 1116 580 1149 l 580 1105 q 573 1078 573 1081 q 587 1065 576 1067 l 587 1072 q 580 1082 583 1082 q 590 1105 590 1102 q 580 1129 590 1114 l 583 1136 q 831 1004 747 1097 q 919 841 910 899 l 919 834 l 916 827 q 963 573 949 827 q 960 539 960 543 l 963 532 q 953 478 958 485 l 956 465 q 949 434 953 440 l 953 434 q 824 146 912 235 l 817 146 l 817 149 l 827 183 l 827 186 q 766 319 766 276 q 756 322 760 322 l 756 339 q 743 393 751 347 l 749 397 l 770 397 l 793 400 q 810 390 793 394 l 814 390 l 814 393 q 797 404 797 396 l 797 414 q 814 431 805 414 l 814 437 q 804 454 804 448 l 797 454 l 797 451 l 800 427 q 763 407 791 418 q 668 414 690 414 q 631 407 660 414 q 627 410 631 410 l 631 444 l 631 471 l 624 471 q 410 397 511 397 q 376 424 401 398 l 370 424 l 363 420 q 336 468 341 451 q 285 515 317 490 l 281 532 q 322 556 281 551 l 319 563 l 319 570 q 373 614 373 595 l 376 614 q 404 617 391 614 l 424 614 q 427 617 427 614 l 492 610 q 543 627 538 627 l 563 617 l 566 624 q 553 634 553 624 q 604 692 579 644 l 624 770 q 604 841 604 831 q 634 871 620 841 l 631 871 q 610 851 613 863 l 604 854 q 590 851 597 851 q 478 912 546 912 l 437 912 q 373 882 420 912 q 346 936 366 882 l 373 973 l 373 977 l 363 977 q 336 926 355 974 l 359 871 l 359 868 q 329 793 339 838 q 298 787 317 787 q 329 773 298 783 l 329 736 q 363 648 329 714 l 363 641 q 312 583 363 601 q 278 559 302 559 q 248 604 271 559 l 244 604 l 237 600 l 224 604 q 186 597 200 597 q 146 614 168 597 l 146 617 l 156 631 l 156 641 l 153 641 q 142 631 153 631 l 102 644 l 102 641 q 139 610 102 635 q 190 573 139 578 l 203 576 q 214 573 210 573 q 244 576 232 576 q 271 536 258 542 l 268 519 l 268 509 q 292 485 286 485 l 292 475 q 200 437 257 458 q 54 563 157 437 q 20 648 20 627 q 44 695 20 660 q 58 715 44 715 q 71 695 71 712 l 68 682 q 119 692 97 685 l 132 682 l 129 675 l 129 668 q 146 654 129 663 l 146 658 q 136 699 141 665 q 139 709 139 705 l 132 709 q 125 699 132 699 l 105 699 q 78 712 80 699 l 81 712 q 54 729 77 729 q 44 726 47 726 q 34 743 44 735 q 78 865 54 865 q 139 892 139 887 q 166 929 139 899 l 166 932 l 163 932 q 129 888 153 926 l 92 878 l 85 878 q 81 882 81 878 q 58 865 78 882 l 54 865 q 17 882 31 865 q 88 1010 50 979 l 98 1004 q 298 1133 98 1072 l 298 1129 q 444 1149 370 1149 m 339 1112 l 339 1085 l 336 1065 l 336 1061 l 339 1061 q 346 1072 339 1072 q 380 1004 359 1059 l 376 980 l 380 980 q 387 987 387 980 l 387 1017 q 346 1119 346 1072 q 339 1112 339 1118 m 590 1061 l 590 1058 q 617 1017 600 1049 l 617 1021 q 593 1061 617 1040 l 590 1061 m 278 1055 q 268 1041 278 1050 l 285 1038 l 288 1055 l 278 1055 m 173 1021 l 173 1014 l 176 1014 q 183 1021 183 1014 l 173 1021 m 244 983 l 244 980 q 264 1017 256 980 l 244 983 m 210 1004 q 200 997 210 997 l 200 994 q 214 983 205 994 l 217 1000 l 210 1004 m 424 1004 l 424 1000 l 427 994 q 417 990 420 990 l 417 983 l 431 983 l 431 1004 l 424 1004 m 617 1004 l 617 997 q 634 980 617 992 l 634 987 q 621 1004 627 1002 l 617 1004 m 95 997 l 95 980 l 98 980 l 102 994 l 95 997 m 210 980 l 210 966 l 227 970 l 227 977 q 217 980 224 977 q 214 977 217 977 q 210 980 214 980 m 336 977 l 332 960 l 342 960 q 349 966 349 960 q 346 977 346 973 l 336 977 m 78 960 l 61 963 q 88 949 61 959 l 95 949 l 95 966 l 92 966 q 78 960 83 960 m 190 963 q 176 946 190 958 q 193 960 193 949 l 193 963 l 190 963 m 732 949 q 722 953 726 953 l 722 939 l 726 939 q 753 946 749 946 q 780 943 777 943 l 780 946 q 777 956 777 953 l 732 949 m 227 946 l 227 943 l 237 943 q 244 949 244 943 l 244 953 l 234 953 q 227 946 227 951 m 451 943 q 448 932 451 939 l 454 929 q 461 936 461 929 l 461 943 l 451 943 m 783 943 l 783 939 q 810 926 783 930 l 827 926 l 827 929 q 783 943 791 943 m 675 922 l 675 919 l 692 916 q 712 919 709 919 q 732 912 723 912 l 743 912 l 743 916 q 732 926 743 920 l 719 922 l 705 926 q 675 922 687 922 m 760 922 q 766 916 761 916 l 770 916 q 777 922 777 916 q 773 926 773 922 q 760 922 767 922 m 654 902 l 658 902 l 671 919 l 668 919 q 654 902 661 918 m 583 892 l 593 892 l 593 899 l 590 899 q 583 892 583 897 m 17 861 q 41 848 41 853 l 41 841 l 14 749 q 34 705 34 715 q 10 682 31 705 q 0 760 0 713 q 17 861 4 861 m 129 824 l 129 821 l 136 821 q 142 827 142 821 l 136 831 q 129 824 129 829 m 858 807 l 858 804 q 868 800 861 804 l 871 807 l 871 814 l 865 814 q 858 807 858 812 m 183 787 l 183 770 q 220 777 207 777 l 220 783 l 197 780 q 190 787 197 787 l 183 787 m 871 766 l 871 746 q 878 753 878 746 l 878 773 q 871 766 871 772 m 142 715 l 149 715 q 176 763 157 740 l 173 763 q 142 715 142 738 m 98 753 l 98 746 l 102 746 q 109 753 109 746 l 98 753 m 865 736 l 858 692 q 871 736 866 692 l 865 736 m 34 654 l 34 644 l 41 644 l 51 651 l 54 651 l 51 644 l 58 644 q 88 658 85 650 q 71 675 88 663 l 34 654 m 763 624 l 763 621 l 766 621 q 790 648 784 633 l 783 648 q 763 624 777 648 m 376 637 l 383 637 q 404 621 404 626 l 397 621 q 376 631 379 621 l 376 637 m 648 634 l 648 624 q 678 610 678 616 q 644 597 644 603 l 644 590 l 654 590 q 678 607 654 599 q 715 587 715 597 q 705 559 705 570 l 709 559 q 732 600 715 559 l 726 604 l 719 604 l 712 600 l 712 604 l 719 614 l 719 627 q 692 624 716 627 q 648 634 673 634 m 753 614 l 749 607 q 760 604 753 607 l 760 607 q 753 614 760 614 m 590 600 l 587 593 q 610 576 591 576 l 631 576 q 604 587 631 583 q 590 600 604 592 m 654 583 q 637 566 654 566 l 637 563 q 644 556 639 556 q 661 583 658 556 l 654 583 m 532 536 l 532 532 q 559 566 536 532 l 559 573 q 532 536 549 568 m 81 563 l 102 563 q 95 570 102 570 l 88 570 q 81 563 81 568 m 770 553 l 770 539 l 773 539 q 804 543 785 539 q 824 536 814 536 l 827 536 l 827 543 q 797 553 803 553 l 770 553 m 346 543 q 363 539 357 543 l 366 546 l 359 549 l 353 549 q 346 543 346 548 m 868 546 q 854 522 868 522 q 841 536 854 528 l 834 536 l 834 529 q 882 512 869 512 l 871 529 q 878 536 878 529 q 871 546 871 536 l 868 546 m 661 519 l 661 481 q 668 468 668 473 l 671 468 l 671 505 l 668 512 q 709 529 675 519 q 719 519 709 524 q 760 526 746 526 l 773 519 l 777 526 l 777 529 l 770 529 q 766 526 766 529 q 746 532 755 532 l 732 532 l 709 529 l 702 543 q 661 519 678 534 m 305 529 l 312 526 l 315 532 l 315 539 q 305 529 311 539 m 899 532 l 902 526 q 912 529 909 529 l 912 532 l 899 532 m 770 495 l 766 488 l 773 485 l 780 485 q 770 495 780 490 m 485 444 l 488 444 l 515 478 l 515 485 l 512 485 q 485 444 505 483 m 298 451 l 359 380 l 353 376 q 217 410 281 376 l 217 414 q 298 451 266 433 m 682 458 l 682 454 q 719 424 696 454 l 719 427 q 692 458 719 441 l 682 458 m 719 400 q 739 332 737 400 q 760 305 755 325 l 756 285 q 814 183 789 216 q 804 149 804 153 l 804 146 q 814 139 804 139 l 814 136 q 485 0 685 0 l 451 0 q 373 20 389 0 q 417 105 373 66 q 444 149 417 117 q 417 190 417 180 l 417 200 q 522 234 448 220 q 614 339 583 261 q 692 397 633 397 q 719 400 711 400 m 322 312 q 359 261 330 312 q 387 244 380 244 l 383 210 q 417 159 397 182 l 417 153 q 380 102 410 153 q 359 71 375 102 q 224 149 274 106 l 207 146 q 149 180 183 180 q 136 207 136 194 q 85 210 102 210 q 64 200 81 200 q 44 248 54 200 q 54 281 44 262 q 51 295 51 288 q 322 312 73 298 m 31 292 q 44 271 44 288 l 37 268 l 34 268 l 31 285 l 31 292 m 136 227 q 132 220 136 220 q 136 210 136 214 l 139 210 l 139 227 l 136 227 m 85 186 q 142 153 104 186 q 197 129 163 153 q 237 105 211 129 q 326 54 246 105 q 346 41 346 47 q 319 0 332 0 q 122 88 197 25 q 58 173 58 151 q 85 186 68 181 m 251 156 l 251 146 l 254 146 q 261 153 261 146 l 254 156 l 251 156 m 746 109 l 746 105 l 760 105 q 766 112 766 105 l 766 119 q 746 109 746 117 z "}," ":{"ha":412,"x_min":0,"x_max":0,"o":""},"A":{"ha":1048,"x_min":-68,"x_max":1129,"o":"m 342 1129 l 458 1129 l 481 1122 q 512 1129 504 1129 l 532 1129 q 536 1126 536 1129 l 543 1129 l 546 1129 l 559 1112 l 583 1119 q 610 1099 608 1106 l 610 1065 q 614 1061 610 1061 q 597 1038 614 1058 l 597 1024 q 614 994 597 1016 q 587 960 614 975 l 587 949 q 600 865 587 927 q 549 834 587 865 q 526 827 541 834 l 519 831 q 485 817 495 817 l 468 821 q 431 807 468 816 q 363 844 427 807 q 349 848 357 848 l 302 848 q 271 854 294 848 q 258 848 258 852 q 241 861 242 854 q 312 1048 298 1035 l 309 1055 q 342 1129 323 1099 m 621 1129 l 624 1129 q 651 1126 633 1129 q 675 1129 665 1129 q 685 1112 679 1112 q 688 1126 688 1118 l 709 1126 q 726 1085 722 1126 q 722 1082 722 1085 l 715 1085 l 695 1082 l 678 1095 l 671 1095 q 699 1072 671 1077 q 729 1075 717 1075 q 760 997 760 1013 q 743 980 755 997 l 743 953 q 719 895 743 933 l 726 895 q 749 977 749 935 q 766 983 754 983 q 871 682 858 736 l 871 678 q 783 658 834 658 q 743 773 743 717 q 726 817 729 796 q 729 831 729 823 q 692 854 729 839 q 671 875 692 859 q 641 865 656 875 l 637 865 q 610 932 610 865 q 607 953 607 938 q 634 980 611 953 l 634 987 q 614 1031 634 991 l 614 1034 q 654 1092 628 1071 q 668 1088 661 1088 l 668 1099 q 644 1119 644 1099 l 627 1119 q 621 1126 621 1119 l 621 1129 m 627 1112 q 641 1102 641 1107 l 641 1092 q 631 1082 641 1087 l 624 1082 q 614 1099 624 1092 q 627 1112 616 1109 m 431 1102 l 431 1099 l 448 1095 l 454 1095 l 454 1102 l 431 1102 m 380 1085 l 380 1082 l 387 1082 q 427 1095 400 1092 l 427 1099 l 414 1099 q 380 1085 408 1099 m 563 1075 l 563 1068 l 583 1068 l 583 1078 l 580 1078 l 563 1075 m 349 1075 q 336 1051 349 1065 l 342 1048 l 356 1072 l 349 1075 m 665 1004 l 675 1004 q 685 1014 680 1004 l 685 1021 l 682 1021 q 665 1004 677 1021 m 610 834 l 624 831 q 654 834 642 834 q 699 804 661 815 q 722 715 699 785 l 719 692 q 739 648 726 692 l 763 621 l 756 593 l 760 570 q 756 543 756 551 l 807 519 q 783 478 783 494 q 763 444 783 444 q 770 437 764 437 l 773 437 l 783 444 l 787 444 q 800 410 796 444 q 753 326 800 400 q 736 288 744 288 l 729 288 q 661 312 671 312 q 648 309 654 312 q 621 315 630 315 l 556 295 l 543 292 q 458 359 503 306 q 465 366 459 366 l 631 366 q 587 526 631 379 q 576 563 576 557 q 580 566 580 563 q 522 749 568 576 l 515 753 q 468 610 511 753 l 471 610 q 417 441 432 462 q 420 431 420 434 q 407 407 416 407 l 393 407 q 366 404 379 407 q 322 431 322 406 l 319 431 l 309 424 q 336 390 309 411 l 363 390 l 404 393 q 407 383 407 387 l 404 366 l 417 366 q 441 353 435 366 l 441 346 l 427 342 l 427 332 l 431 332 l 444 342 l 448 342 q 529 278 448 320 q 536 275 529 275 l 607 295 l 617 295 q 648 292 629 295 q 668 298 661 298 q 736 281 709 281 l 736 264 q 739 261 736 261 q 682 231 739 252 q 648 261 675 231 l 648 254 q 678 227 659 227 q 651 153 678 163 q 624 129 640 153 l 519 129 l 509 136 q 488 129 498 129 l 380 129 l 370 136 l 353 132 l 349 139 q 295 119 336 139 l 295 122 q 268 112 268 119 l 268 105 q 281 88 281 93 l 285 88 l 285 109 q 326 115 313 115 q 302 51 313 51 l 302 34 q 281 -20 293 -20 l 203 -20 q 180 -14 180 -20 q 159 -20 169 -20 l 31 -20 q 0 -17 18 -20 q -17 -20 -5 -20 q -27 -17 -24 -17 l -27 -7 l -24 17 q -44 61 -44 34 q -20 125 -28 125 q 10 115 -5 125 l 17 115 l 17 122 q -17 129 -4 129 l -17 136 q 44 309 -17 155 l 61 305 l 68 305 q 81 322 73 305 q 75 329 81 329 l 68 329 q 61 315 68 315 l 54 315 l 61 326 l 61 329 q 51 336 51 329 q 146 600 122 526 l 149 600 q 224 498 197 576 q 217 461 217 480 l 220 431 q 159 353 180 374 q 119 339 159 348 q 92 322 92 326 l 92 312 q 98 305 93 305 l 105 329 l 119 329 q 146 336 122 329 q 122 315 136 315 l 122 309 l 129 309 q 159 346 159 321 q 193 363 185 363 q 200 336 200 345 q 193 329 193 334 l 193 322 l 197 322 q 207 353 205 322 q 200 359 200 353 l 200 363 q 244 431 200 389 q 295 414 253 417 q 305 417 302 417 l 305 427 q 295 431 302 427 q 268 427 277 427 q 234 471 234 427 q 241 502 241 494 q 156 621 241 534 l 156 624 q 231 824 216 801 l 234 824 q 251 817 251 824 q 264 821 253 817 q 353 817 321 817 q 427 773 413 773 q 461 790 427 779 q 492 783 484 783 q 515 800 515 795 l 532 797 q 610 834 603 834 m 644 804 l 644 800 l 661 804 l 661 810 l 651 810 q 644 804 644 809 m 370 709 q 373 699 373 702 l 383 699 l 383 709 l 370 709 m 203 668 l 203 665 l 220 661 l 224 661 l 224 668 l 217 668 q 214 665 214 668 l 207 668 l 203 668 m 271 668 q 295 654 271 663 l 305 654 l 305 658 l 271 668 m 614 651 l 624 651 q 631 658 631 651 l 631 661 l 624 661 q 614 651 619 661 m 882 654 q 919 553 890 654 l 916 546 q 970 417 936 520 q 980 387 980 389 q 953 380 973 380 q 987 370 953 373 q 1031 244 1014 298 q 990 220 1006 220 q 926 234 975 220 q 905 220 926 229 l 865 224 q 841 210 859 210 l 838 210 q 793 244 799 243 q 780 241 786 244 q 760 248 766 248 l 760 251 l 773 264 l 766 275 q 834 414 777 342 l 831 437 l 831 461 q 817 495 817 461 q 838 529 821 508 l 838 539 q 787 576 787 563 q 783 607 783 589 q 810 641 789 607 q 882 654 850 641 m 614 617 l 614 614 l 617 614 q 732 648 732 634 l 729 648 q 614 617 667 633 m 336 637 l 336 624 l 342 624 l 342 631 q 336 637 342 637 m 726 627 l 726 624 q 732 631 732 624 l 732 634 q 726 627 726 633 m 587 624 l 587 621 l 593 621 q 600 627 600 621 l 600 631 l 593 631 q 587 624 587 629 m 356 614 q 390 590 360 604 l 393 590 l 393 593 q 359 614 389 593 l 356 614 m 685 610 l 682 604 l 688 600 l 692 607 l 685 610 m 434 597 l 434 593 l 444 593 q 451 600 451 593 l 451 604 l 441 604 q 434 597 434 602 m 309 590 l 302 580 q 309 573 303 573 l 312 573 q 319 580 319 573 l 319 587 q 309 590 315 587 m 407 583 l 410 566 l 417 566 l 417 583 l 407 583 m 404 532 l 404 529 l 410 529 l 410 539 q 404 532 404 538 m 888 519 l 885 512 l 892 509 l 905 509 q 888 519 905 515 m 366 492 l 370 492 q 390 512 380 492 l 387 512 q 366 492 382 512 m 410 505 l 410 498 l 414 498 q 420 505 420 498 l 410 505 m 841 420 l 841 417 l 858 414 l 865 414 q 858 420 865 420 l 841 420 m 905 417 l 905 410 q 946 387 911 410 l 946 390 q 912 417 946 393 l 905 417 m 285 390 l 285 387 q 288 376 288 380 l 292 376 l 292 390 l 285 390 m 861 366 l 858 359 l 868 359 q 861 366 868 366 m 292 363 l 271 322 l 281 322 q 295 346 281 329 l 295 363 l 292 363 m 905 339 l 905 336 l 912 336 q 919 342 919 336 l 919 346 l 912 346 q 905 339 905 345 m 159 336 l 159 326 l 163 326 q 173 329 170 329 q 166 336 173 336 l 159 336 m 929 336 l 929 329 l 939 329 l 939 336 l 929 336 m 434 326 l 454 326 q 461 332 461 326 l 441 332 q 434 326 434 331 m 922 315 q 929 309 924 309 l 932 309 l 932 322 l 929 322 q 922 315 922 321 m 397 298 l 407 292 q 424 312 407 312 l 424 319 l 420 319 q 397 298 400 311 m 98 309 l 98 302 l 105 302 q 109 315 105 309 l 105 315 q 98 309 98 314 m 170 312 l 170 305 l 180 305 q 173 312 180 312 l 170 312 m 841 305 l 848 302 q 854 309 854 302 l 854 312 l 848 312 q 841 305 841 311 m 197 309 l 193 292 q 203 302 198 292 l 203 309 l 197 309 m 295 281 q 268 288 274 288 q 258 281 258 285 q 220 295 231 288 l 217 295 l 220 288 l 220 285 l 214 275 l 214 271 l 217 264 l 234 275 q 312 278 296 278 q 346 292 312 284 l 346 295 q 339 302 346 302 l 336 302 q 295 281 323 290 m 186 285 l 186 271 l 197 271 q 203 278 203 271 l 193 285 l 186 285 m 407 275 l 407 264 q 414 258 408 258 l 414 268 q 407 275 414 275 m 783 271 l 783 261 l 790 261 l 790 271 l 783 271 m 153 268 l 149 254 q 163 207 156 207 l 166 207 l 166 210 q 153 258 155 258 l 156 264 l 156 268 l 153 268 m 197 248 l 207 248 l 207 254 l 203 254 q 197 248 197 253 m 390 237 q 393 217 393 220 q 383 170 393 201 q 400 207 400 184 q 397 234 397 231 q 414 248 414 243 l 414 251 q 390 237 395 251 m 773 197 q 827 159 773 188 l 834 159 l 841 163 l 841 156 q 838 153 841 153 q 848 139 843 139 q 882 153 855 139 l 905 149 q 943 163 926 153 q 980 153 966 153 l 994 153 q 997 156 997 153 q 1000 153 1000 156 l 1041 156 l 1051 156 q 1072 92 1072 121 q 1075 95 1075 92 q 1129 -44 1088 95 l 1122 -47 q 1082 -44 1099 -47 q 1041 -47 1064 -47 q 1027 -7 1036 -21 l 1068 64 l 1072 88 l 1065 88 q 1048 44 1060 88 q 1021 0 1021 12 l 1021 -7 q 1024 -41 1024 -26 l 1000 -47 l 956 -47 l 943 -37 q 919 -47 930 -47 l 899 -47 q 865 -44 882 -47 q 834 -47 852 -47 l 821 -47 q 817 -44 817 -47 l 810 -47 l 770 -47 q 719 102 760 -47 l 695 102 q 688 109 688 102 l 688 112 q 715 136 715 112 l 712 142 q 749 197 728 197 l 773 197 m 1034 234 l 1038 227 l 1031 224 l 1027 224 l 1027 227 q 1034 234 1029 234 m 170 203 l 166 170 l 166 166 l 173 156 l 173 153 q 132 122 168 142 l 119 122 q 88 119 106 122 q 68 125 77 125 q 88 109 68 121 q 115 115 92 109 l 132 112 q 180 146 165 126 q 173 176 176 153 q 176 200 176 190 l 170 203 m 241 142 l 241 136 l 268 136 q 261 142 268 142 l 241 142 m 41 139 l 41 136 q 47 129 42 129 l 61 129 q 51 139 61 134 l 41 139 m 217 132 l 227 132 l 227 139 l 224 139 q 217 132 217 138 m 180 129 l 180 125 q 190 119 190 125 l 186 102 l 193 98 q 197 119 193 119 q 190 136 190 130 l 186 136 q 180 129 180 134 m 71 88 l 71 85 q 85 98 77 85 l 85 102 q 71 88 79 102 m 112 58 q 115 54 115 58 q 129 64 129 60 l 122 68 q 112 58 117 68 m -44 58 l -34 37 l -34 3 l -51 0 l -61 0 q -68 7 -68 0 q -44 58 -52 51 m 197 37 l 197 34 l 200 34 q 207 41 207 34 l 207 44 l 203 44 q 197 37 197 43 m 987 34 l 987 24 l 990 24 q 997 31 997 24 l 997 34 l 987 34 m 180 17 q 186 10 181 10 l 190 17 l 190 24 l 186 24 q 180 17 180 22 z "},"B":{"ha":814,"x_min":-14,"x_max":1061,"o":"m -3 1146 l 115 1146 l 122 1143 q 102 1075 109 1083 q 122 1027 122 1040 q 71 977 82 977 l 54 980 l 37 977 q 27 987 27 977 l 20 987 l 24 980 q -7 939 -7 954 l -14 939 l -14 1136 q -3 1146 -14 1141 m 197 1133 q 234 1129 222 1133 q 278 1133 256 1133 l 319 1133 q 346 1129 333 1133 q 373 1133 359 1133 l 434 1133 l 448 1119 q 461 1133 448 1124 l 471 1133 q 481 1122 476 1133 q 410 1095 450 1095 q 397 1099 404 1099 l 397 1095 q 410 1085 397 1092 q 475 1105 440 1085 q 512 1014 487 1105 l 481 980 q 465 949 481 973 q 414 892 465 909 q 383 868 414 877 q 349 912 370 872 l 346 912 l 339 909 l 326 912 q 288 905 302 905 q 248 922 273 905 l 248 926 q 261 943 248 928 q 237 1004 241 974 q 278 1072 265 1055 l 275 1072 q 244 1048 255 1048 q 251 1038 248 1038 q 227 1007 244 1021 l 207 1007 q 180 1017 182 1007 q 183 1021 180 1021 q 159 1038 178 1038 l 146 1038 l 136 1055 q 166 1133 146 1133 l 197 1133 m 502 1133 q 512 1129 505 1133 q 539 1133 515 1129 q 637 1129 614 1129 q 644 1122 639 1122 q 648 1126 648 1122 l 665 1122 q 675 1126 668 1122 q 692 1116 692 1122 l 699 1119 l 702 1119 q 932 1027 812 1119 q 1000 858 1000 951 q 994 841 1000 852 l 1000 827 q 943 695 977 695 q 878 617 943 668 q 848 705 848 637 l 851 705 q 895 712 895 707 l 916 739 l 916 746 q 905 763 905 757 l 899 763 l 899 760 l 902 736 q 861 715 888 722 q 821 722 842 715 q 817 719 817 722 l 793 722 l 780 722 q 712 685 729 722 q 665 665 701 665 q 641 614 665 614 q 580 553 641 607 l 573 556 l 522 536 q 505 549 507 543 q 512 597 512 575 q 502 617 505 597 q 532 665 507 665 q 593 678 587 678 l 597 671 q 624 682 614 682 l 641 682 l 641 685 q 631 695 641 690 l 614 695 l 614 699 q 651 763 651 730 l 651 814 q 634 841 635 835 q 661 875 638 841 l 661 882 l 631 844 l 624 844 q 553 868 605 858 l 519 865 l 458 865 q 420 878 420 865 q 475 922 475 903 l 488 922 l 505 926 l 505 929 q 478 939 478 929 q 526 1000 484 972 q 529 1014 529 1006 q 519 1034 529 1022 l 519 1041 q 570 1065 519 1046 q 607 1061 577 1065 q 648 1075 616 1061 q 695 1072 677 1072 l 709 1072 l 726 1075 l 726 1082 l 705 1082 q 699 1099 705 1099 l 699 1082 q 688 1078 692 1078 q 685 1092 685 1084 l 678 1092 q 671 1082 678 1086 l 654 1085 l 648 1085 q 624 1075 636 1085 l 590 1075 q 529 1055 575 1075 l 522 1055 q 505 1088 514 1055 q 509 1099 509 1095 q 495 1129 495 1126 l 502 1133 m 285 1105 l 285 1078 q 322 1085 309 1085 l 322 1092 l 298 1088 q 288 1105 288 1099 l 285 1105 m 773 1072 l 783 1072 l 783 1078 l 780 1078 q 773 1072 773 1077 m 197 1061 q 203 1055 198 1055 q 214 1058 210 1058 l 214 1061 l 197 1061 m 543 1044 l 543 1038 q 580 1017 563 1038 l 604 1038 l 587 1038 q 573 1031 578 1031 q 543 1044 549 1044 m 699 1031 l 699 1024 l 712 1024 l 712 1031 l 699 1031 m 159 1024 q 176 1007 176 1019 q 170 987 170 996 l 173 987 q 231 1000 180 994 q 234 990 234 994 l 231 973 q 254 949 239 972 l 254 946 q 244 939 254 939 q 207 953 240 939 l 207 946 q 248 899 248 917 q 292 882 264 882 q 305 885 294 882 q 315 882 312 882 q 346 885 334 885 q 373 841 366 846 q 370 831 373 838 q 373 780 373 797 q 302 746 373 770 q 203 722 279 736 l 203 719 l 227 719 q 363 760 314 739 l 366 760 q 373 753 373 758 l 373 682 l 488 682 q 498 671 493 682 l 498 654 q 488 607 488 610 l 488 590 l 495 580 l 485 519 l 512 475 l 505 471 l 373 471 l 373 437 q 363 431 373 431 q 326 458 359 431 l 295 461 q 329 448 295 452 q 370 420 332 437 l 373 404 l 373 349 q 370 322 373 335 q 373 295 373 309 l 373 264 l 407 264 q 414 258 414 263 l 414 248 q 387 176 414 233 q 380 146 380 155 q 383 142 383 146 q 322 105 322 137 q 268 44 322 64 l 264 44 q 234 51 249 51 q 203 44 212 44 q 163 95 203 51 q 153 139 163 130 l 153 142 l 166 142 l 183 129 l 203 129 l 203 132 q 146 186 168 132 l 139 190 q 109 180 131 190 q 34 210 34 190 q 31 227 34 222 q 34 258 34 245 l 34 285 l 51 285 q 58 292 58 285 q 47 298 58 298 q 37 292 37 295 q 0 319 0 292 q 3 346 0 342 q 0 383 0 369 l 0 387 q 3 427 0 417 q 0 478 0 457 l 0 536 q 20 553 0 540 l 37 549 l 64 549 q 132 563 125 563 q 146 536 142 536 l 153 536 l 153 543 l 142 556 q 156 597 156 579 q 142 621 142 602 l 136 621 l 132 604 q 146 590 138 604 l 142 573 q 88 570 123 573 q 78 573 81 573 q 58 566 67 566 l 47 566 q 34 593 41 566 l 37 600 l 37 607 q 24 668 31 652 q 44 729 44 713 q 3 777 27 729 q 0 807 0 789 l 0 838 q 24 851 0 845 l 17 865 q 34 936 26 883 q 71 949 65 949 l 95 949 q 109 946 102 949 q 149 1014 118 946 q 159 1024 149 1024 m 675 1014 l 671 1007 l 671 1004 l 675 1004 q 682 1010 682 1004 l 675 1014 m 136 963 l 136 953 l 149 953 l 149 960 l 156 960 q 159 953 156 953 l 190 963 l 190 966 q 173 983 190 971 l 136 963 m 617 956 l 617 949 l 627 949 l 627 956 l 617 956 m 865 932 l 865 929 l 868 929 q 892 956 886 941 l 885 956 q 865 932 879 956 m 746 943 l 746 939 q 763 926 746 935 l 780 926 l 780 922 l 746 905 l 746 899 l 756 899 q 777 916 756 906 q 821 895 821 907 q 807 875 821 892 l 807 868 l 810 868 q 844 909 827 899 q 817 912 842 909 q 814 909 817 909 l 814 912 l 821 922 l 821 936 q 793 932 796 932 q 749 943 777 943 l 746 943 m 654 936 l 654 929 q 665 926 658 929 l 668 932 q 654 936 661 932 m 688 909 q 712 885 688 885 l 729 885 l 729 892 l 712 892 q 695 909 710 892 l 688 909 m 756 892 q 739 875 756 875 l 739 865 l 749 865 q 766 888 755 865 l 766 892 l 756 892 m 183 878 l 183 871 l 200 871 l 200 878 l 183 878 m 871 861 l 871 848 l 875 848 q 905 851 887 848 q 960 824 934 844 l 977 824 q 980 844 977 840 q 973 861 973 844 l 966 861 l 970 844 l 970 841 q 960 834 970 834 q 902 861 913 861 l 871 861 m 763 827 l 766 821 l 763 800 q 770 773 770 777 l 777 773 l 770 821 q 810 838 798 838 q 821 827 810 833 q 858 834 844 834 q 875 827 864 834 l 878 834 l 878 841 q 875 838 875 841 l 841 841 l 824 841 q 821 838 821 841 q 804 851 805 842 q 763 827 780 842 m 41 848 l 41 841 l 47 841 q 54 848 54 841 l 41 848 m 58 848 q 64 841 59 841 l 68 841 l 68 848 l 58 848 m 871 804 l 868 797 l 875 793 l 878 793 l 878 797 q 871 804 878 804 m 783 766 l 783 763 q 821 726 805 763 l 824 726 l 824 736 q 793 766 802 766 l 783 766 m 58 749 q 47 732 58 743 l 51 732 q 64 746 56 732 l 64 749 l 58 749 m 7 746 q 27 715 24 716 q 10 658 10 670 l 20 644 l 20 634 q 17 631 20 631 q 27 604 27 614 l 27 593 q 3 563 27 563 l 0 570 l 0 604 q 7 624 0 613 q 0 675 0 656 l 0 739 q 7 746 1 746 m 112 722 l 112 719 l 115 702 q 95 658 95 663 q 119 621 113 621 l 122 621 q 105 658 105 654 q 129 712 105 669 l 112 722 m 899 709 l 899 702 q 932 695 924 695 l 932 702 l 926 702 q 899 709 911 702 m 821 709 q 841 644 839 709 q 861 614 858 630 q 858 600 858 608 l 858 593 q 912 498 891 526 l 916 498 l 916 492 l 905 458 l 905 454 q 960 410 948 433 l 966 407 l 966 414 l 960 437 l 966 441 q 987 431 987 439 l 987 424 q 909 363 975 395 q 838 322 872 336 l 834 315 l 834 288 q 766 241 834 260 q 688 203 742 215 q 661 214 686 214 l 644 214 q 627 207 627 213 q 576 220 589 212 q 556 214 570 220 q 492 258 492 251 l 492 261 l 498 264 l 532 264 l 566 261 q 627 275 566 268 q 692 349 692 302 l 692 387 q 593 468 692 450 q 519 505 519 468 l 519 509 q 597 539 523 516 q 685 637 675 608 q 756 699 694 637 q 821 709 766 705 m 519 682 l 522 682 l 522 675 l 512 675 q 519 682 513 682 m 878 590 l 882 590 q 1010 475 968 559 l 1021 454 q 1017 451 1017 454 l 1010 454 q 949 444 982 448 q 919 454 928 454 l 919 458 q 929 481 919 469 l 929 495 q 878 587 897 543 l 878 590 m 234 515 l 193 519 l 190 519 q 149 505 179 509 l 149 498 l 170 495 q 200 509 197 509 q 258 475 222 509 q 292 468 274 475 l 292 471 q 248 492 292 479 q 237 512 237 507 q 244 532 244 523 l 244 536 l 241 536 q 234 515 234 536 m 112 471 l 119 468 l 125 468 q 132 475 132 468 q 125 481 132 481 q 112 471 112 477 m 1031 410 q 1061 329 1061 401 l 1058 329 l 1061 322 l 1061 298 q 899 31 1061 123 q 838 10 852 10 l 838 17 l 831 17 l 743 -17 l 736 -14 q 709 -20 724 -20 l 705 -14 l 705 14 q 736 34 705 17 l 743 31 l 746 37 l 736 37 q 705 27 730 37 l 702 34 l 702 37 l 705 61 q 682 78 690 61 l 641 58 q 637 54 637 58 l 637 47 q 658 34 658 47 q 685 44 677 39 l 688 44 l 688 24 q 692 20 688 20 l 688 14 l 688 -20 q 614 -27 660 -27 l 607 -27 q 576 -24 589 -27 q 543 -27 559 -27 l 465 -27 q 414 41 422 -27 q 366 85 414 47 q 431 136 431 85 q 454 200 431 144 l 454 227 q 465 237 454 232 l 492 237 q 556 173 556 185 l 576 173 q 604 159 591 173 q 685 176 672 165 q 695 173 692 173 l 695 170 q 678 159 695 159 l 678 132 q 682 129 678 129 q 671 98 671 106 l 671 92 l 682 92 q 699 112 682 112 q 692 125 692 120 q 756 170 711 170 q 838 210 817 210 q 865 220 854 220 q 892 203 883 220 q 902 210 902 207 q 912 207 905 210 l 946 210 q 960 186 952 186 l 960 197 l 953 207 l 960 210 l 963 210 l 970 207 l 970 210 q 963 237 963 222 q 980 288 971 237 l 997 305 l 997 309 q 977 336 977 309 q 1014 407 1004 336 l 1031 410 m 848 417 l 854 414 l 861 414 q 868 420 868 414 l 868 427 q 848 417 848 425 m 1000 366 l 1024 366 q 1031 373 1031 366 q 1027 376 1027 373 q 1000 366 1000 373 m 946 359 q 956 332 951 332 q 936 271 936 281 q 926 264 926 271 l 926 261 l 932 251 l 932 248 l 905 248 q 892 244 898 248 q 838 271 838 254 q 895 336 838 320 q 946 359 936 359 m 7 288 q 17 248 13 282 q 14 214 14 230 q 17 190 17 199 l 3 186 l 0 193 l 0 281 q 7 288 1 288 m 936 210 l 936 200 l 943 200 l 943 203 q 936 210 943 210 m 854 207 l 854 197 q 861 203 861 197 l 861 207 l 854 207 m 875 190 l 875 186 l 878 186 q 895 193 889 193 q 905 190 902 190 l 905 197 q 899 203 905 203 q 875 190 880 203 m 529 176 l 529 166 l 532 166 q 546 176 546 172 l 539 180 q 529 176 532 176 m 125 176 l 136 176 q 149 153 149 171 l 146 153 q 119 170 119 164 q 125 176 120 176 m 27 173 q 85 163 64 163 q 112 166 104 166 q 153 105 153 113 q 146 88 153 88 q 186 34 146 79 q 190 20 190 28 l 190 7 q 183 0 190 0 l 10 0 q 0 10 5 0 l 0 61 q 3 92 0 79 q 0 125 0 109 l 0 159 q 27 173 0 170 m 770 163 l 770 156 l 773 156 q 783 159 780 159 l 783 170 l 777 170 q 770 163 770 168 m 824 163 q 827 153 827 156 l 831 153 q 841 163 836 153 l 841 166 l 831 166 l 824 163 m 546 156 l 546 149 l 566 149 l 566 153 l 546 156 m 729 139 l 729 132 q 746 146 746 141 l 746 149 l 739 149 q 729 139 734 149 m 604 125 l 610 125 q 617 132 617 125 l 617 136 l 614 136 q 604 125 609 136 m 692 136 l 692 129 l 702 129 q 695 136 702 136 l 692 136 m 339 98 l 349 98 l 353 81 q 332 92 332 85 q 339 98 334 98 m 404 95 l 404 85 l 410 85 l 410 95 l 404 95 m 777 85 q 780 68 780 79 l 790 68 l 793 85 l 787 88 l 783 88 l 777 85 m 807 78 l 807 75 l 814 75 l 817 81 q 807 78 810 78 m 356 81 q 383 10 383 56 l 390 10 l 390 0 l 237 0 q 231 7 231 0 l 231 10 q 248 20 231 18 l 278 17 q 329 71 329 38 q 356 81 340 71 m 746 58 l 746 54 l 766 54 l 766 58 l 746 58 m 431 41 l 431 31 l 434 31 q 441 37 441 31 l 434 41 l 431 41 m 526 34 l 526 31 q 532 24 527 24 q 539 31 539 24 l 539 34 l 526 34 m 51 31 l 51 20 l 64 20 l 64 31 l 51 31 m 203 20 l 224 20 l 224 17 q 203 0 218 0 l 200 7 q 203 20 203 13 z "},"C":{"ha":1153,"x_min":-20,"x_max":1139,"o":"m 549 1156 l 570 1153 l 593 1156 l 610 1153 q 637 1156 623 1156 q 648 1126 646 1145 l 641 1112 l 644 1112 q 654 1143 650 1112 q 651 1146 651 1143 l 661 1153 q 899 1085 760 1146 l 899 1075 q 871 1082 895 1075 l 868 1082 l 868 1078 l 905 1055 q 909 1072 909 1060 q 1031 970 943 1072 l 1031 966 l 1027 966 q 983 977 1020 966 q 949 966 981 977 q 929 990 942 966 l 929 963 l 949 960 l 949 949 l 943 949 l 922 953 q 878 902 913 953 q 858 892 870 902 l 851 892 l 841 899 l 810 899 q 726 838 769 838 q 654 905 654 863 q 631 990 650 942 l 634 997 q 610 1024 634 1024 q 576 1051 604 1024 l 573 1051 q 536 1041 562 1051 q 512 1129 519 1041 q 549 1156 539 1156 m 512 1153 q 488 1126 488 1138 q 505 1044 495 1081 q 448 1010 481 1034 q 397 994 419 1010 q 366 997 378 997 l 366 990 l 359 990 q 336 983 336 989 q 254 1027 259 1027 q 244 1024 251 1027 l 224 1027 l 217 1024 q 203 1027 211 1027 l 203 1031 q 488 1153 342 1139 l 512 1153 m 726 1119 l 726 1109 l 729 1109 q 736 1116 736 1109 l 736 1119 l 726 1119 m 777 1095 l 780 1088 q 793 1099 793 1094 q 787 1105 793 1105 q 777 1095 782 1105 m 637 1099 q 634 1088 637 1095 l 637 1088 l 641 1095 l 641 1099 l 637 1099 m 821 1085 l 821 1082 q 844 1068 826 1068 l 848 1075 q 838 1095 848 1093 l 831 1095 q 821 1085 826 1095 m 902 1048 l 902 1044 q 909 1010 909 1019 l 916 1010 q 905 1048 916 1019 l 902 1048 m 766 1041 l 763 1027 l 766 1027 q 780 1031 768 1027 l 780 1041 l 766 1041 m 556 1034 q 610 1000 580 1013 q 631 919 610 982 l 631 892 l 637 882 l 634 875 l 627 878 q 580 882 601 878 q 536 875 543 878 q 526 885 536 880 l 522 885 l 522 871 l 505 871 q 397 729 414 806 q 383 695 391 705 l 387 688 q 370 559 381 669 l 366 559 l 315 607 q 261 604 281 604 l 251 604 q 234 617 249 604 l 237 624 q 231 631 237 631 q 220 621 228 631 l 153 634 q 146 661 146 646 l 146 665 l 153 705 q 58 827 142 743 l 58 841 q 149 977 104 935 q 197 1017 175 1017 l 214 1017 q 251 1014 228 1017 q 264 1017 257 1017 q 332 970 264 1012 q 363 987 359 983 l 376 987 q 397 980 386 987 q 437 997 428 997 l 437 994 q 498 1024 448 994 q 526 1031 502 1024 l 553 1031 q 556 1034 556 1031 m 546 987 l 546 977 l 549 977 l 566 980 l 566 987 l 546 987 m 848 966 l 848 956 l 851 956 q 858 963 858 956 l 858 966 l 848 966 m 983 960 q 1027 949 1013 949 q 1038 953 1034 953 q 1119 787 1077 928 q 1133 699 1133 729 l 1126 695 l 1055 695 q 1038 702 1038 695 q 1010 695 1025 695 l 790 695 q 760 783 783 695 q 743 817 743 799 q 817 868 801 834 q 831 882 818 882 q 871 871 860 871 q 892 885 892 880 l 892 899 l 888 905 q 919 929 909 905 l 980 960 l 983 960 m 275 885 l 275 882 q 281 875 276 875 l 288 875 l 288 885 l 275 885 m 105 848 l 105 841 l 129 841 l 129 844 q 105 848 119 844 m 180 844 l 180 841 q 197 834 194 834 l 200 834 l 200 838 q 183 844 194 838 l 180 844 m 383 834 l 383 831 l 390 831 l 390 841 q 383 834 383 840 m 383 824 l 383 814 l 390 814 l 390 824 l 383 824 m 31 814 q 81 766 52 787 l 115 695 q 109 661 109 680 l 112 631 q -14 529 51 529 q -20 553 -20 546 q -7 682 -17 646 l -10 682 q 31 814 13 794 m 268 787 q 298 766 287 766 l 298 773 q 268 787 270 787 m 339 773 l 339 770 l 346 770 q 353 777 353 770 l 353 780 l 346 780 q 339 773 339 779 m 207 760 l 207 753 l 220 753 l 220 760 q 214 766 220 766 q 207 760 207 765 m 312 763 l 312 760 l 315 743 q 322 749 322 743 l 322 756 q 315 763 322 763 l 312 763 m 834 739 q 824 722 834 733 l 824 712 q 831 705 825 705 l 841 739 l 834 739 m 949 732 l 949 729 l 953 729 q 960 736 960 729 l 960 739 l 956 739 q 949 732 949 738 m 1041 722 l 1041 719 q 1048 712 1042 712 l 1051 719 l 1051 722 l 1041 722 m 275 671 l 278 671 q 292 685 283 671 l 292 688 l 288 688 q 275 671 281 687 m 315 682 l 315 678 l 326 678 l 326 685 q 315 682 319 682 m 248 648 l 248 637 q 254 644 254 637 l 254 648 l 248 648 m 149 627 l 156 627 q 173 614 171 614 l 183 614 q 186 617 186 614 l 193 614 l 214 614 l 220 617 q 251 587 224 600 l 268 590 l 281 587 q 315 590 299 590 q 353 549 315 578 l 339 536 l 339 532 l 346 532 q 353 543 353 532 q 390 390 371 543 q 478 268 411 316 q 458 237 458 245 l 444 237 q 414 214 425 237 l 397 214 l 397 224 l 390 224 l 393 207 q 370 142 387 207 q 356 102 365 142 q 380 75 369 94 l 380 47 q 336 24 358 47 l 332 24 q 302 47 309 47 q 281 41 291 41 q 217 119 251 41 q 248 176 248 163 l 248 186 l 241 186 q 210 125 241 175 q 190 112 210 112 l 180 112 q 54 298 77 209 q 81 332 81 309 l 81 339 q 75 346 81 346 l 71 346 q 75 336 75 339 q 44 309 75 309 q 7 468 7 437 q 31 526 11 526 q 51 536 39 526 l 54 536 l 54 522 q 37 509 37 522 l 41 509 q 71 543 71 517 q 102 559 90 559 l 112 546 q 105 519 105 522 q 119 543 113 519 q 112 570 112 555 q 149 627 112 581 m 190 570 l 190 566 q 193 553 193 560 l 197 553 l 197 559 q 193 570 193 566 l 190 570 m 197 549 q 173 512 197 530 q 180 502 180 512 l 183 502 q 200 522 189 502 l 200 549 l 197 549 m 24 509 l 24 502 l 27 502 q 34 509 34 502 l 24 509 m 81 509 l 81 505 l 95 505 l 95 509 l 81 509 m 332 509 l 332 502 l 346 502 l 363 505 l 363 509 l 332 509 m 302 471 l 309 471 q 312 427 309 469 q 295 414 295 418 l 298 393 q 288 356 296 363 l 288 349 l 295 349 q 305 373 295 358 q 302 410 305 387 q 319 424 303 419 l 312 481 q 329 495 329 490 l 329 498 q 302 471 302 498 m 203 461 l 200 461 q 170 465 188 461 q 159 461 163 461 q 125 465 142 465 q 112 454 125 454 q 92 461 101 461 l 85 448 q 92 444 92 448 q 119 451 104 451 q 109 427 119 439 q 125 451 120 427 q 251 468 197 451 l 251 475 q 244 481 251 481 l 241 481 q 203 461 218 461 m 58 444 l 58 441 l 61 441 q 71 451 61 451 l 71 458 l 68 458 q 58 444 63 458 m 790 437 q 804 434 798 437 q 875 437 848 437 l 888 437 l 909 434 l 916 437 q 929 434 922 434 l 932 434 l 939 437 l 943 431 q 878 397 918 397 q 834 410 847 410 q 804 397 808 397 q 780 404 780 397 q 790 437 780 423 m 983 437 l 1034 437 l 1034 434 q 977 404 1029 415 q 939 400 954 400 l 932 400 l 932 407 q 983 437 958 437 m 1061 437 l 1133 437 q 1139 431 1139 436 l 1139 420 q 1129 383 1139 383 q 1058 427 1109 383 l 1055 427 l 1055 431 q 1061 437 1056 437 m 58 417 l 58 414 q 75 363 58 401 l 78 363 l 81 376 q 61 417 71 376 l 58 417 m 1051 410 q 1065 390 1059 410 q 1129 359 1129 373 q 1027 146 1105 247 q 990 125 1010 125 l 994 119 l 994 115 q 895 37 943 61 q 882 54 892 37 q 916 92 886 92 q 943 156 930 156 l 943 166 q 929 176 943 175 l 929 197 q 919 220 922 207 q 956 281 926 242 q 973 326 961 313 l 973 346 l 960 359 q 1014 393 975 393 q 1051 410 1021 410 m 841 387 l 865 376 l 929 383 q 963 332 949 383 q 909 227 938 260 q 919 183 909 221 q 909 180 912 180 l 909 176 q 929 166 929 176 q 912 102 920 145 q 871 78 871 83 l 871 47 q 793 78 831 47 q 760 105 786 78 q 685 115 715 109 l 685 112 q 665 119 665 115 q 627 112 646 112 q 590 166 614 140 q 536 220 590 177 q 502 248 536 225 q 509 254 503 254 q 583 244 551 244 l 607 244 q 773 376 725 244 l 777 376 q 797 373 794 373 q 841 387 827 387 m 963 387 l 966 380 q 960 373 966 373 l 953 373 l 953 383 q 963 387 956 383 m 186 315 q 156 322 163 319 q 146 319 149 319 l 146 315 q 186 295 180 315 l 193 292 q 227 312 193 312 q 241 315 227 315 l 241 309 l 248 309 l 248 312 l 244 319 q 261 336 252 319 l 261 339 l 258 339 q 186 315 214 319 m 254 322 l 254 319 q 295 295 264 295 l 298 295 q 305 302 305 295 q 254 322 268 302 m 88 315 l 85 309 l 85 305 l 92 305 l 92 278 l 98 278 q 102 302 102 293 l 88 315 m 119 315 l 119 309 l 122 309 q 129 315 129 309 l 119 315 m 319 298 q 373 278 362 298 l 404 254 l 407 261 l 407 264 q 359 302 378 280 q 329 305 341 305 l 326 305 q 319 298 319 304 m 95 275 l 92 261 l 98 261 l 98 275 l 95 275 m 210 251 l 210 241 l 217 237 l 217 241 q 214 251 214 248 l 210 251 m 485 237 l 488 237 q 549 183 513 229 q 580 136 561 183 q 512 105 564 116 q 458 75 512 96 q 427 37 458 62 q 387 58 399 37 l 387 64 l 393 64 l 404 58 l 404 61 q 366 109 395 73 q 397 180 389 120 q 451 224 405 199 q 485 237 474 224 m 231 214 l 231 193 l 237 193 l 237 214 l 231 214 m 888 207 l 895 203 l 902 203 l 902 214 l 895 214 q 888 207 888 212 m 573 58 l 570 51 l 570 47 q 597 44 572 47 l 600 51 l 600 54 l 590 54 l 573 58 m 563 -3 l 570 -7 l 573 0 l 573 3 l 570 3 q 563 -3 563 2 m 665 17 l 665 7 l 675 7 l 675 17 l 665 17 m 817 170 l 827 170 q 834 176 834 170 l 834 183 l 831 183 q 817 170 825 183 m 448 24 l 448 20 q 465 3 448 16 l 468 3 l 468 7 q 448 24 460 24 m 670 46 l 668 47 q 667 43 668 45 l 670 46 m 648 61 l 648 51 l 651 51 q 658 58 658 51 l 658 61 l 648 61 m 633 51 q 634 61 634 55 q 624 68 634 68 q 608 52 616 68 q 621 37 612 44 q 627 41 625 39 l 627 44 q 633 51 629 50 m 498 68 q 495 58 498 64 l 502 54 q 509 61 509 54 l 509 68 l 498 68 m 671 68 l 682 68 q 688 75 688 68 l 678 75 q 671 68 671 73 m 753 125 l 753 119 l 770 122 l 770 129 q 763 136 770 136 q 753 125 758 136 m 878 146 l 878 142 l 885 142 l 902 146 l 902 156 l 899 156 q 878 146 878 154 m 633 51 l 658 51 l 658 47 l 654 31 l 667 43 q 661 34 665 39 l 661 27 l 671 27 l 675 44 l 670 46 l 671 47 l 699 47 q 709 17 705 47 l 715 17 l 715 37 q 722 44 717 44 q 756 37 756 42 q 780 10 756 33 q 777 0 777 3 l 787 0 l 787 7 q 834 -17 812 2 q 858 -10 848 -10 q 871 -20 871 -15 l 871 -24 q 743 -64 768 -64 q 739 -61 743 -61 q 746 -37 746 -47 l 739 -34 q 726 -68 732 -34 q 682 -78 682 -75 l 675 -75 l 654 -75 l 654 -64 l 631 -78 l 624 -75 q 607 -81 613 -81 l 590 -78 q 559 -81 572 -81 q 556 -78 559 -78 l 556 -81 l 549 -78 l 536 -78 q 475 -64 475 -74 q 478 -54 478 -58 l 468 -47 q 458 -68 468 -65 q 353 -41 405 -58 l 353 -37 q 397 -14 375 -14 q 444 -20 422 -20 l 448 -20 q 465 3 448 -12 l 471 3 l 471 -3 l 478 -3 q 485 3 485 -3 l 485 24 q 539 58 500 24 l 546 58 q 556 54 553 54 l 553 47 l 553 41 l 563 41 l 563 47 l 559 54 q 593 85 574 54 l 600 85 q 608 52 600 66 q 607 51 608 52 q 617 37 612 37 l 621 37 q 644 24 630 29 l 648 24 l 648 27 q 627 41 637 27 l 627 41 q 633 51 631 45 z "},"D":{"ha":1085,"x_min":-14,"x_max":1102,"o":"m -3 1133 l 34 1133 q 92 1092 54 1133 q 166 1061 92 1061 q 193 1068 178 1068 q 217 1004 217 1025 q 244 966 226 989 q 92 912 160 925 q 64 905 92 905 l 47 909 l 44 902 l 44 899 l 54 899 q 207 943 180 922 q 244 963 226 943 q 302 895 250 962 q 346 861 338 882 l 342 844 l 346 827 q 336 793 336 810 l 336 770 l 342 760 l 332 712 q 359 644 332 701 q 309 559 359 641 q 203 614 298 559 l 200 614 l 200 607 q 292 556 212 607 q 309 546 309 555 q 261 475 300 511 l 264 461 q 234 363 264 412 q 227 336 234 348 q 231 322 231 330 q 166 292 166 317 l 170 275 q 115 227 149 227 l 75 231 q 54 224 68 231 q 10 281 10 269 q 0 319 10 304 l 0 326 q 41 309 33 309 l 41 312 l 47 309 l 51 309 l 51 312 q -14 390 7 312 l -14 502 l -10 526 l -14 526 q -10 529 -14 529 l -14 570 l -14 641 q -7 661 -14 650 q -14 682 -14 672 l -14 709 q 0 715 -14 715 q -10 739 0 732 q 0 766 0 756 q -14 817 -14 806 q -10 831 -14 825 q -14 868 -14 854 l -14 882 q -7 902 -14 891 q -14 922 -14 913 l -14 1122 q -3 1133 -14 1127 m 88 1133 l 95 1133 q 119 1122 106 1133 q 136 1133 119 1133 l 315 1133 q 326 1122 320 1133 q 275 1072 326 1096 q 241 1048 257 1048 q 210 1092 230 1059 l 200 1092 l 200 1088 q 190 1092 193 1092 q 149 1085 186 1092 q 109 1109 122 1085 l 115 1119 q 112 1122 112 1119 l 105 1119 q 88 1129 88 1123 l 88 1133 m 363 1133 l 400 1133 q 427 1126 415 1133 q 465 1133 441 1133 l 481 1133 q 512 1126 490 1133 q 519 1133 513 1133 l 543 1133 l 556 1122 q 580 1129 563 1122 l 587 1126 l 593 1129 q 637 1105 610 1129 q 651 1109 644 1109 l 651 1099 q 641 1092 641 1099 l 644 1092 l 661 1095 q 692 1075 692 1084 q 685 1055 685 1064 l 685 1051 l 688 1051 q 709 1085 688 1057 q 692 1095 709 1091 l 699 1112 q 729 1099 718 1109 q 743 1102 731 1099 q 899 1031 846 1074 q 875 1024 890 1024 l 875 1017 q 912 1024 879 1017 q 956 977 956 992 q 994 939 978 977 q 1068 807 1033 912 q 1065 797 1065 800 q 1102 610 1089 797 q 1099 573 1102 603 q 1102 559 1102 567 l 1095 556 l 1085 563 l 1078 563 l 1078 556 q 1102 526 1093 541 q 1004 207 1102 378 l 990 193 l 987 193 q 973 210 987 210 q 966 200 970 200 q 909 186 944 200 l 895 193 q 875 173 887 173 l 875 186 q 882 207 875 196 l 875 210 l 858 200 l 854 200 q 848 207 848 200 q 851 220 851 213 l 827 217 q 821 237 821 224 q 827 248 824 237 l 821 251 q 807 217 814 251 q 814 197 814 206 q 807 190 807 195 l 814 190 q 821 200 821 190 l 824 200 q 841 186 824 186 q 810 146 841 170 q 824 132 810 140 q 851 153 824 138 q 916 173 851 168 q 922 163 922 173 l 939 163 l 956 159 l 956 156 q 932 132 956 151 l 929 132 l 929 149 l 922 149 l 922 136 q 821 61 922 104 l 817 61 l 817 64 l 821 78 q 817 88 817 85 l 804 88 l 804 85 q 810 64 804 75 q 732 27 800 44 q 627 7 642 7 q 610 17 610 7 l 604 17 l 607 10 q 570 0 577 6 l 556 0 q 543 3 543 0 l 519 0 l 461 0 q 424 3 447 0 q 404 0 419 0 q 393 3 397 3 q 387 44 393 20 l 410 71 q 420 44 417 71 l 424 44 q 461 78 424 78 q 549 125 502 95 q 566 136 566 125 q 559 173 559 167 q 570 176 566 176 q 556 220 556 191 q 597 241 585 241 l 597 244 l 580 244 l 570 237 l 556 237 q 553 251 556 251 l 556 258 l 556 268 l 546 268 l 617 302 q 665 326 659 326 l 661 332 q 705 390 693 380 l 705 397 q 702 400 705 400 q 726 427 709 427 q 739 414 739 424 l 753 414 q 756 417 756 414 l 763 414 q 800 420 767 414 l 804 420 l 824 417 l 827 417 l 827 420 q 814 434 814 420 q 827 454 814 437 l 824 468 q 848 512 836 498 l 848 515 q 831 536 831 515 l 831 539 q 865 604 865 564 l 865 607 q 777 539 842 572 q 732 515 743 515 l 729 522 l 729 576 q 743 604 729 589 l 743 607 q 729 617 729 607 l 729 641 q 648 824 729 749 q 604 844 609 844 q 702 888 604 888 q 719 817 710 873 q 736 793 730 817 l 732 773 q 790 671 769 700 l 790 665 l 777 641 l 777 637 q 821 610 777 633 q 834 593 827 595 l 838 593 l 834 617 l 841 621 l 844 621 q 861 614 861 620 l 878 617 l 882 617 q 919 597 889 617 q 936 587 927 597 q 1004 631 978 631 q 1024 621 1007 621 l 1044 624 l 1065 617 l 1068 624 l 1068 631 q 1048 637 1062 631 l 1027 634 l 1024 634 q 987 641 1019 634 l 973 641 q 905 614 958 614 q 885 634 892 633 q 824 627 851 627 q 793 644 793 631 q 807 671 805 671 q 743 810 743 764 q 722 844 737 810 l 726 851 q 719 885 726 858 q 722 888 722 885 q 732 885 726 888 q 787 919 787 892 q 790 929 790 919 l 790 932 q 773 943 784 932 l 773 939 l 777 916 q 732 899 748 899 l 719 899 l 685 902 l 685 899 l 678 902 l 627 902 q 576 854 610 902 q 481 882 550 854 q 424 865 481 869 l 390 865 q 359 902 373 902 q 356 916 356 902 l 339 912 l 336 912 q 322 932 336 917 q 261 1007 322 954 l 258 1024 q 295 1055 258 1029 q 332 1078 295 1067 q 370 1105 347 1105 l 370 1109 q 353 1119 353 1109 l 353 1122 q 363 1133 353 1127 m 366 1109 q 373 1102 368 1102 l 380 1102 q 373 1109 380 1109 l 366 1109 m 607 1085 l 607 1082 l 610 1082 q 621 1092 615 1082 l 614 1092 q 607 1085 607 1090 m 549 1088 q 559 1068 551 1068 l 570 1068 q 556 1088 562 1088 l 549 1088 m 583 1075 l 580 1068 l 590 1068 q 583 1075 590 1075 m 617 1072 q 600 1055 617 1055 l 600 1051 q 607 1044 602 1044 q 627 1068 611 1044 l 627 1072 l 617 1072 m 519 1065 l 515 1051 l 522 1051 q 532 1061 522 1061 l 532 1065 l 519 1065 m 41 1058 l 41 1051 l 44 1051 q 51 1058 51 1051 l 41 1058 m 732 1041 l 732 1034 l 736 1027 q 763 1034 763 1029 l 804 1017 l 807 1017 l 807 1024 q 763 1044 800 1024 q 732 1041 745 1041 m 315 1038 l 315 1031 l 322 1031 q 329 1038 329 1031 q 326 1041 326 1038 q 315 1038 319 1038 m 492 1024 l 492 1014 l 495 1014 q 505 1038 505 1034 q 492 1024 500 1038 m 831 1034 q 814 1014 831 1014 q 824 1004 814 1009 l 838 1004 q 844 1024 838 1017 q 831 1034 844 1029 m 621 1014 l 627 960 l 634 960 l 634 994 l 631 1000 l 668 1021 q 678 1010 668 1016 l 685 1010 q 712 1017 688 1010 q 722 1014 719 1014 l 722 1017 l 719 1024 l 695 1021 l 668 1021 q 661 1031 668 1031 q 621 1014 633 1014 m 271 1021 l 271 1017 l 278 1017 l 278 1027 q 271 1021 271 1026 m 726 1017 q 736 1007 726 1013 l 739 1007 l 739 1017 l 726 1017 m 729 983 l 729 980 q 736 973 730 973 l 739 980 l 732 983 l 729 983 m 451 943 l 451 932 l 454 932 q 485 980 454 937 l 478 980 q 451 943 474 980 m 648 946 l 648 943 q 682 912 660 943 l 682 916 q 651 946 682 935 l 648 946 m 773 882 l 773 878 l 787 878 l 787 882 l 773 882 m 946 810 l 943 804 l 943 800 l 960 800 l 960 807 l 946 810 m 370 807 l 373 807 l 373 783 l 370 783 q 363 790 363 783 l 363 800 q 370 807 364 807 m 366 736 l 373 736 l 373 732 q 366 726 373 726 l 366 736 m 95 712 q 81 695 95 695 q 61 702 71 702 q 17 688 28 688 l 10 688 l 10 678 l 37 678 q 68 688 50 688 q 119 654 81 688 q 173 631 142 654 q 203 617 191 631 l 207 617 q 156 644 207 634 q 115 668 156 663 l 98 688 l 102 709 l 102 712 l 95 712 m 1051 614 l 1051 604 q 1061 593 1051 599 l 1065 600 l 1065 604 q 1055 614 1065 608 l 1051 614 m 370 580 l 373 573 l 373 498 q 366 492 373 492 l 363 492 l 336 509 q 370 580 336 556 m 861 546 l 871 546 l 888 549 l 888 556 q 861 546 861 554 m 807 543 q 814 502 810 539 q 797 451 800 484 q 787 444 787 451 l 787 441 l 793 431 l 790 424 l 773 427 l 729 427 q 705 444 705 441 q 715 492 705 454 q 712 495 712 492 l 807 543 m 319 488 l 329 488 q 373 461 373 468 l 373 434 q 366 427 373 427 l 356 427 l 349 444 l 342 444 l 342 434 q 373 397 373 415 l 373 264 l 441 264 l 475 268 q 478 264 475 264 l 475 258 l 475 254 l 481 254 l 488 258 q 495 241 495 247 q 526 254 513 242 l 529 254 l 529 251 q 539 142 529 178 l 539 136 l 478 105 q 414 85 478 100 q 410 81 414 81 q 383 115 403 81 q 346 142 377 115 q 326 149 335 149 q 315 139 326 144 l 312 139 q 302 149 307 139 l 309 149 q 268 200 309 172 q 248 254 253 254 q 207 285 225 285 l 207 295 l 217 295 q 271 346 271 295 q 295 400 271 359 q 292 404 295 404 l 298 451 q 295 465 295 457 q 319 488 298 465 m 712 383 q 719 376 713 376 l 722 383 l 722 390 l 719 390 q 712 383 712 389 m 732 370 l 736 370 q 766 373 754 373 l 766 376 q 756 383 766 383 q 732 370 732 378 m 895 383 l 895 380 q 902 373 897 373 l 905 380 l 899 383 l 895 383 m 685 346 l 685 336 l 692 336 q 699 342 699 336 l 699 349 l 695 349 q 685 346 688 346 m 0 346 l 10 346 l 10 336 l 3 336 q 0 346 3 339 m 949 302 l 956 302 q 966 305 963 305 l 966 315 l 960 315 q 949 302 955 315 m 902 305 q 892 275 902 297 l 916 268 l 922 278 l 922 281 l 912 281 l 912 275 l 909 275 l 905 292 l 909 305 l 902 305 m 0 298 l 3 298 q 14 281 8 298 q 7 261 7 271 q 51 197 51 218 l 51 173 l 71 203 l 78 203 q 85 197 85 202 q 34 109 52 129 l 7 85 q 0 92 0 85 l 0 254 q 3 268 0 262 q 0 281 0 274 l 0 298 m 197 261 q 224 214 197 248 q 248 156 224 169 q 292 102 267 156 l 309 102 q 312 105 312 102 q 370 47 370 81 q 298 7 355 22 q 261 -20 277 -20 l 231 -20 q 227 -17 227 -20 l 220 -20 l -3 -20 q -14 -10 -8 -20 l -14 0 q 51 88 -14 41 q 85 176 77 165 q 176 231 176 183 q 197 234 182 234 l 197 237 l 180 251 l 180 258 l 197 261 m 682 271 q 665 258 682 258 l 665 254 l 668 254 q 688 271 682 254 l 682 271 m 637 268 l 637 264 l 644 251 l 637 251 l 637 244 q 654 251 648 251 l 654 261 q 648 268 654 268 l 637 268 m 939 258 q 926 237 939 251 l 926 234 l 943 234 l 949 258 l 939 258 m 871 244 l 871 241 q 882 231 871 236 l 885 231 q 892 237 892 231 l 892 241 l 875 244 l 871 244 m 604 241 l 604 234 l 624 234 q 617 241 624 241 l 604 241 m 624 203 q 627 190 627 197 l 621 186 l 617 186 q 610 200 617 200 q 590 190 599 190 l 590 183 q 604 186 597 183 q 614 170 614 186 l 617 170 l 654 210 l 658 210 l 671 197 q 675 224 671 205 l 668 224 q 624 203 624 212 m 563 220 l 563 214 l 566 214 q 576 217 573 217 l 576 220 l 563 220 m 387 210 q 393 203 388 203 q 400 210 400 203 l 400 217 l 393 217 q 387 210 387 216 m 766 200 l 766 190 l 773 190 l 773 200 l 766 200 m 838 190 l 848 190 l 848 180 l 844 180 q 838 186 838 180 l 838 190 m 963 180 l 963 176 q 953 166 963 172 l 946 166 q 939 173 939 166 l 939 176 l 963 180 m 726 166 l 726 156 q 732 163 732 156 l 732 166 l 726 166 m 770 149 q 766 139 770 146 l 777 139 l 777 149 l 770 149 m 434 142 q 437 132 437 136 l 444 132 l 444 146 l 441 146 l 434 142 m 546 122 l 543 68 l 563 31 l 566 31 q 573 37 573 31 q 549 92 549 58 q 553 119 553 111 l 546 122 m 783 105 l 783 95 l 790 95 l 790 102 l 793 102 q 800 92 800 102 q 810 112 810 95 q 807 115 807 112 q 783 105 792 105 m 414 17 l 417 17 q 431 41 421 17 l 431 44 l 427 44 q 414 17 418 44 m 366 37 q 376 7 370 14 q 356 0 366 0 l 305 0 l 305 10 q 366 37 348 37 z "},"E":{"ha":949,"x_min":-7,"x_max":953,"o":"m 3 1133 q 20 1119 3 1122 l 24 1112 q 20 1099 20 1106 q 41 1129 24 1099 q 88 1133 60 1129 l 109 1129 q 170 1133 140 1133 l 186 1133 q 224 1129 201 1133 l 231 1133 q 234 1129 234 1133 l 275 1133 l 393 1133 q 404 1116 399 1133 q 451 1133 420 1127 l 590 1133 l 610 1129 q 627 1133 616 1133 q 668 1129 633 1133 l 675 1133 q 722 1116 683 1133 l 722 1109 q 712 1105 712 1109 q 702 1109 705 1109 q 654 1041 654 1109 q 631 953 631 1015 q 634 939 634 947 q 614 916 614 926 l 600 916 q 519 953 520 948 q 488 973 502 973 q 563 912 524 926 q 593 892 585 902 q 580 865 585 865 l 366 865 l 366 709 l 526 709 l 526 705 q 468 682 526 699 q 373 576 401 620 q 309 522 367 576 q 271 515 295 515 l 251 515 q 231 553 231 515 q 210 593 228 593 l 207 610 l 210 627 q 153 729 177 697 l 153 739 q 163 770 163 752 l 163 773 q 102 817 134 773 l 102 824 q 183 875 107 831 q 234 905 234 901 l 234 943 q 302 980 238 962 q 376 1017 312 1000 q 404 1007 393 1007 l 410 1007 q 444 1014 417 1007 l 461 1010 l 468 1014 q 492 1004 485 1004 l 522 1007 q 583 960 522 1003 l 583 953 l 590 953 q 522 1024 590 971 q 492 1034 492 1024 l 458 1031 q 448 1034 454 1031 q 427 1027 434 1027 l 427 1031 q 400 1021 410 1021 l 397 1021 l 397 1027 q 410 1038 397 1036 l 410 1065 q 407 1068 410 1068 l 417 1088 l 417 1102 l 407 1102 q 393 1082 407 1082 l 397 1075 q 332 1024 397 1038 l 295 1004 q 231 977 292 993 l 220 977 q 200 990 203 977 l 149 983 q 139 987 142 987 q 129 983 132 983 q 109 990 115 990 l 109 983 q 125 973 125 983 l 125 970 q 115 953 125 953 l 115 946 q 119 943 115 943 q 92 888 114 911 l 92 885 l 95 885 q 105 888 102 888 q 112 861 112 876 q 75 787 86 861 l 61 783 q 17 807 26 807 q 7 804 10 804 l 14 814 l 10 814 l -7 810 l -7 1021 l -3 1041 q -7 1058 -7 1046 l -7 1088 q -3 1092 -7 1092 l -7 1099 l -7 1122 q 3 1133 -7 1127 m 753 1133 q 760 1126 760 1131 l 753 1122 q 746 1129 746 1122 l 753 1133 m 790 1133 l 922 1133 q 939 1078 932 1133 q 912 1092 916 1092 l 895 1092 l 895 1088 q 946 1027 935 1088 l 946 875 q 936 865 946 870 l 885 865 q 882 868 882 865 l 875 865 l 654 865 l 637 868 l 637 871 q 678 929 650 896 l 678 936 q 709 1041 678 996 q 715 1068 709 1056 q 712 1082 712 1074 q 773 1102 773 1088 l 773 1129 l 790 1133 m 454 1088 l 454 1085 l 461 1085 q 468 1092 468 1085 l 468 1099 l 465 1099 q 454 1088 460 1099 m 339 1092 l 329 1072 l 336 1072 q 349 1092 349 1078 l 339 1092 m 285 1082 l 285 1075 l 295 1075 l 295 1082 l 285 1082 m 512 1072 l 512 1068 l 529 1068 l 529 1075 l 512 1072 m 234 1058 l 234 1055 l 244 1055 l 251 1058 q 248 1068 248 1065 l 244 1068 q 234 1058 239 1068 m 292 1055 q 295 1051 295 1055 q 305 1055 302 1055 l 305 1065 l 302 1065 q 292 1055 297 1065 m 529 1051 l 529 1044 l 546 1048 l 546 1051 l 536 1051 q 532 1048 536 1048 q 529 1051 532 1051 m 180 1031 l 166 1031 l 166 1024 l 183 1021 l 190 1021 q 203 1034 195 1021 q 200 1038 200 1034 q 180 1031 189 1031 m 31 1027 l 31 1017 l 44 1017 q 34 1027 44 1022 l 31 1027 m 214 1024 l 214 1014 l 217 1014 q 224 1021 224 1014 l 217 1024 l 214 1024 m 146 977 l 153 973 q 183 977 165 973 q 197 973 189 973 l 203 977 q 237 953 237 962 q 183 888 237 901 q 129 861 136 861 l 119 895 q 139 949 132 918 q 149 960 144 949 l 142 970 l 146 977 m 44 848 l 64 848 q 71 854 71 848 l 71 858 l 64 858 q 44 848 44 856 m 102 814 q 115 783 111 814 l 98 783 q 88 793 94 783 l 88 797 q 102 814 97 814 m 214 810 l 207 800 l 207 793 l 231 800 l 231 807 l 214 810 m 44 790 q 64 770 53 772 q 129 777 109 777 q 156 766 148 766 q 142 726 142 729 q 210 590 184 684 q 231 519 219 590 l 224 515 l 203 515 l 180 512 q 173 519 180 519 l 170 519 l 176 509 l 176 505 q 159 475 159 488 q 173 461 159 469 l 176 461 l 173 485 q 210 505 180 494 l 251 505 q 288 454 251 466 l 292 454 l 292 458 q 258 495 258 471 l 258 502 l 261 502 q 278 498 273 502 q 356 526 342 498 q 407 563 359 545 q 441 617 407 597 q 498 668 492 668 q 553 685 509 668 l 559 685 q 570 675 564 685 q 563 624 563 643 q 573 614 568 624 q 522 553 573 553 q 488 536 488 548 l 495 536 q 563 549 517 543 q 590 498 568 498 q 597 488 590 488 q 610 492 603 492 q 637 444 635 456 l 631 441 l 481 441 q 468 448 473 448 q 448 441 457 441 l 373 441 l 373 346 q 363 336 373 341 q 373 309 373 319 l 373 305 l 370 285 q 383 261 374 261 q 420 264 406 264 l 427 264 l 448 261 l 454 264 q 458 261 458 264 l 475 264 l 583 264 q 553 224 583 242 l 546 210 q 556 180 546 206 l 505 156 l 461 163 q 458 159 461 159 l 458 163 q 424 146 428 146 l 380 153 q 346 146 351 146 l 346 139 l 349 139 l 366 142 q 373 119 373 125 l 376 119 l 376 129 q 373 139 373 136 q 393 146 384 146 q 397 139 393 139 l 404 142 q 424 136 414 136 l 427 136 q 522 156 460 149 q 559 166 522 163 q 570 132 566 154 q 566 122 566 125 q 580 85 580 102 l 580 81 q 570 78 576 81 l 617 7 l 617 3 l 600 0 l 576 3 l 559 0 q 539 10 539 0 q 488 0 507 0 l 481 0 q 444 3 456 0 q 400 0 422 0 l 326 0 l 315 7 q 288 0 312 7 l 275 0 q 248 3 251 0 q 210 0 224 0 l 149 0 q 119 3 132 0 q 85 0 101 0 l 10 0 q 0 10 5 0 l 0 644 q 3 682 0 659 q 0 709 0 685 l 0 770 q 7 787 1 787 q 44 790 37 790 m 597 722 l 831 722 l 848 688 l 848 532 q 793 502 848 502 q 675 458 785 502 q 590 539 621 539 q 583 559 583 550 l 583 580 q 593 627 593 624 l 593 637 q 587 658 593 647 q 597 712 587 661 l 597 722 m 437 539 l 437 529 q 468 522 460 526 l 485 536 q 475 549 478 549 q 437 539 456 539 m 824 492 l 834 492 q 841 485 841 490 l 841 451 q 831 441 841 446 l 709 441 q 702 448 702 441 q 800 485 767 477 q 824 492 816 485 m 485 478 q 475 454 485 471 l 478 454 q 488 475 484 454 l 488 478 l 485 478 m 295 451 q 302 414 302 437 l 302 404 q 264 383 302 397 q 251 393 264 392 q 217 387 230 387 l 217 380 l 220 380 q 264 383 222 380 q 275 370 270 370 q 315 390 275 378 q 305 451 312 426 l 295 451 m 88 404 l 88 400 q 98 393 88 393 l 98 383 q 88 376 88 383 q 102 366 102 376 l 105 366 q 112 387 105 387 l 119 387 l 132 376 l 142 376 q 88 404 114 404 m 197 393 l 197 383 q 207 387 203 387 l 207 390 q 197 393 203 390 m 47 376 l 51 376 l 75 380 l 75 387 l 68 387 q 47 376 47 385 m 146 376 q 176 359 146 366 q 190 363 178 359 q 203 359 196 359 l 203 370 l 200 376 q 176 370 176 374 q 149 376 164 376 l 146 376 m 302 329 l 319 329 q 336 346 319 346 l 336 356 q 302 329 319 356 m 261 353 q 241 315 261 349 q 261 309 248 309 q 251 298 261 304 q 254 285 254 292 l 258 285 q 278 292 267 285 q 319 278 291 284 l 329 278 l 329 281 q 295 298 329 292 l 295 305 q 309 312 309 305 l 305 312 l 292 309 q 258 322 258 317 q 264 349 258 326 l 264 353 l 261 353 m 342 336 l 342 329 l 356 329 l 356 336 l 342 336 m 315 312 l 322 309 q 329 326 329 319 l 326 326 q 315 312 321 326 m 210 302 l 224 302 q 217 309 224 309 q 210 302 210 307 m 183 268 l 183 264 l 186 264 q 210 288 191 264 l 210 292 l 203 292 q 183 268 197 292 m 624 264 l 807 264 q 838 210 838 264 q 824 197 832 210 l 824 190 q 851 217 847 217 q 861 214 858 214 l 868 217 q 895 190 892 217 q 916 183 905 190 q 929 186 922 186 q 939 170 929 177 q 888 44 918 44 q 858 34 860 34 l 858 31 l 861 31 l 882 34 l 888 34 l 895 31 q 912 47 895 35 l 919 47 q 946 27 946 47 l 946 10 q 936 0 946 5 q 909 3 933 0 q 895 0 903 0 q 888 7 895 7 q 868 0 878 0 l 838 0 l 838 14 l 848 31 l 841 31 q 787 0 828 0 l 766 0 q 763 3 763 0 l 756 0 l 648 0 q 614 41 625 0 q 590 78 590 50 q 621 115 598 115 q 678 125 621 123 l 678 132 q 665 136 667 136 q 590 122 608 122 l 563 207 q 590 234 563 212 q 624 264 590 260 m 841 264 l 885 264 q 905 241 901 241 l 909 241 q 949 261 916 241 l 953 254 q 926 197 953 243 q 905 217 916 197 l 912 231 l 905 234 q 851 224 905 224 l 848 231 l 851 248 q 838 254 843 254 q 841 264 841 261 m 102 200 l 105 180 l 109 180 l 112 203 q 109 207 109 203 q 115 214 115 207 l 115 220 q 102 200 109 220 m 390 214 q 397 207 391 207 q 404 214 404 207 l 404 220 l 397 220 q 390 214 390 219 m 363 193 l 370 190 q 380 193 376 193 l 380 200 l 370 200 q 363 193 363 199 m 465 180 l 465 176 l 478 176 q 505 190 481 190 q 495 197 505 197 q 465 180 465 189 m 515 186 l 515 180 l 529 180 l 529 186 l 515 186 m 824 183 q 804 156 813 156 l 804 149 q 834 176 834 174 q 827 183 834 183 l 824 183 m 95 166 l 95 132 l 98 132 l 102 156 l 102 166 l 95 166 m 865 166 l 865 163 l 878 163 l 878 166 l 865 166 m 302 149 l 302 146 q 315 156 315 151 l 309 156 q 302 149 302 155 m 766 132 q 793 125 783 132 q 797 136 793 129 l 790 139 l 773 139 q 766 132 766 138 m 695 119 l 699 119 q 705 125 705 119 l 702 125 q 695 119 695 124 m 102 112 l 102 102 l 115 102 l 115 105 q 109 112 115 112 l 102 112 m 427 105 l 427 102 q 434 95 429 95 l 437 102 l 437 105 l 427 105 m 624 102 l 624 85 l 627 85 q 634 92 627 92 l 634 102 l 624 102 m 838 92 l 838 81 l 841 81 q 848 88 848 81 l 848 92 l 838 92 m 949 95 l 953 95 l 953 75 l 949 58 l 946 58 q 939 64 939 58 l 939 68 q 949 95 939 93 m 51 81 l 51 78 q 58 85 58 78 l 58 88 q 51 81 51 87 m 393 88 q 400 81 395 81 q 407 88 407 81 l 393 88 m 505 61 q 526 51 509 51 l 539 51 q 566 78 546 78 l 566 85 q 559 88 559 85 q 532 61 551 88 l 505 61 m 339 44 l 339 41 l 342 41 l 383 71 l 383 78 q 339 44 351 71 m 424 64 q 414 68 417 68 l 414 61 l 427 61 q 471 68 441 61 l 478 58 l 498 61 l 498 64 q 475 75 490 64 l 475 71 l 468 75 l 461 75 q 424 64 447 64 m 20 54 l 20 44 q 27 51 27 44 l 27 54 l 20 54 m 380 24 l 380 14 l 383 14 q 390 20 390 14 l 390 24 l 380 24 z "},"F":{"ha":882,"x_min":0,"x_max":902,"o":"m 10 1133 l 136 1133 q 142 1126 142 1131 l 142 1122 q 132 1085 132 1108 l 136 1085 q 156 1129 142 1085 l 173 1133 l 203 1133 q 210 1126 210 1131 q 271 1133 244 1133 l 295 1133 q 322 1129 309 1133 q 349 1133 335 1133 l 366 1133 q 383 1129 378 1133 l 404 1133 l 420 1133 q 465 1129 448 1133 q 512 1133 486 1133 l 566 1133 l 566 1122 q 515 1061 530 1122 q 488 1048 488 1057 l 488 1044 q 492 1031 488 1037 q 454 980 477 980 q 441 977 447 980 q 363 1014 387 1014 l 363 1017 q 366 1021 363 1021 q 356 1034 361 1034 q 326 1021 340 1034 l 302 1024 l 298 1024 q 258 1014 290 1024 l 251 1014 l 241 1021 l 214 1021 q 159 1017 194 1021 q 146 1021 153 1021 q 129 1014 135 1014 l 129 1024 l 146 1027 l 146 1031 q 132 1058 146 1043 l 132 1082 l 129 1082 q 119 1061 119 1078 q 132 1041 119 1058 q 81 1007 124 1007 q 47 990 74 990 l 41 990 q 3 1021 33 1005 q 0 1034 0 1027 l 0 1122 q 10 1133 0 1127 m 644 1133 q 699 1126 667 1133 q 712 1129 705 1129 q 760 1099 723 1129 q 777 1095 765 1095 l 790 1095 q 756 1105 790 1102 q 743 1129 743 1121 l 749 1133 l 892 1133 q 902 1122 897 1133 l 902 1099 q 878 1082 900 1090 q 875 1092 875 1088 l 871 1092 l 861 1085 l 834 1105 l 824 1105 q 817 1099 817 1104 q 858 1075 844 1099 q 854 1061 854 1069 l 858 1061 l 899 1078 l 902 1072 l 902 1041 q 899 1014 902 1027 q 902 987 902 1001 l 902 960 q 861 929 902 935 l 861 926 l 871 919 l 875 919 l 895 936 l 902 926 l 902 895 q 895 878 902 878 l 899 871 l 899 868 l 882 865 l 831 865 q 766 868 804 865 q 756 865 760 865 q 739 878 755 871 l 743 885 l 743 888 q 668 929 730 888 q 624 912 627 916 l 617 916 q 587 905 611 916 l 553 909 q 536 902 542 902 q 478 919 499 919 l 468 919 l 468 946 q 532 966 468 958 q 556 943 532 962 l 556 946 q 526 980 547 966 q 556 1051 534 1051 q 583 1095 566 1051 q 644 1133 633 1133 m 773 1102 q 780 1095 774 1095 l 783 1095 q 790 1102 790 1095 l 773 1102 m 400 1068 q 407 1061 401 1061 l 410 1061 l 410 1075 l 407 1075 q 400 1068 400 1074 m 800 1051 l 790 1021 l 793 987 q 780 980 785 980 l 780 973 l 783 973 l 800 983 l 797 1007 q 807 1051 797 1018 l 800 1051 m 346 1014 q 427 977 391 977 l 427 970 q 417 960 427 965 l 424 946 q 387 865 406 865 l 373 865 l 373 848 q 342 807 373 807 l 342 800 q 359 793 359 800 l 359 770 q 349 763 359 763 l 349 756 l 353 756 l 370 760 l 370 715 l 353 692 q 404 654 353 671 q 407 617 407 625 l 376 580 l 346 580 q 278 526 278 557 l 264 519 q 224 529 233 529 q 203 495 203 529 l 200 495 l 200 505 l 193 505 q 142 458 193 474 q 112 441 142 445 q 64 451 75 451 q 34 444 52 444 q 0 458 0 451 l 0 559 q 3 610 0 595 q 0 668 0 636 l 0 807 q 24 821 5 821 l 44 821 l 44 827 l 41 827 l 7 824 l 0 834 l 0 854 q 41 912 0 912 q 61 932 41 914 l 61 946 l 54 956 l 54 963 q 136 997 82 997 q 146 1000 136 1000 l 163 997 l 163 994 q 132 970 163 989 l 132 956 q 186 1000 140 958 l 220 1000 q 254 990 251 990 q 288 1004 267 990 q 322 997 295 1004 q 346 1014 322 1002 m 7 997 l 10 997 q 51 949 51 956 q 3 916 34 916 l 0 922 l 0 990 q 7 997 1 997 m 777 970 l 777 956 q 783 949 778 949 l 783 953 l 780 970 l 777 970 m 278 966 l 275 960 l 285 960 q 278 966 285 966 m 400 963 l 400 949 l 404 949 q 410 956 410 949 q 404 963 410 963 l 400 963 m 780 939 l 780 936 l 783 919 q 770 905 778 919 l 780 905 q 793 929 793 911 l 780 939 m 85 909 q 98 882 98 895 q 85 871 85 877 l 85 868 l 92 868 q 95 871 95 868 q 105 868 102 868 l 105 851 q 109 848 105 848 q 58 824 109 824 l 58 821 l 71 817 q 146 854 98 817 l 139 854 l 122 844 l 119 844 q 98 902 113 844 l 98 905 q 115 936 115 928 l 112 936 q 85 909 98 930 m 258 912 l 258 902 l 268 902 l 268 912 l 258 912 m 448 916 q 515 888 457 916 l 539 892 q 559 885 545 892 q 648 909 583 895 q 699 868 699 876 l 692 865 l 434 865 l 427 868 q 448 916 442 916 m 739 895 l 739 892 l 760 892 l 760 899 l 756 899 l 739 895 m 264 868 l 264 861 l 275 861 l 275 868 l 264 868 m 153 851 q 200 848 172 851 l 200 854 l 176 858 l 159 858 q 153 851 153 857 m 214 844 l 214 848 q 203 844 207 844 l 207 838 l 224 841 q 251 824 233 841 l 258 824 q 227 851 235 851 l 214 844 m 268 814 q 281 800 271 803 l 285 807 q 268 814 285 814 m 315 810 q 322 804 317 804 l 329 804 q 322 810 329 810 l 315 810 m 288 712 q 295 705 290 705 l 298 712 l 288 712 m 261 692 l 261 671 l 264 671 q 271 678 271 671 l 268 678 l 271 685 q 264 692 271 692 l 261 692 m 41 678 l 47 675 q 54 682 54 675 l 54 688 l 51 688 q 41 678 46 688 m 448 665 l 576 665 q 614 661 591 665 q 641 665 617 665 l 651 665 q 654 661 654 665 l 661 665 l 780 665 q 793 624 786 665 l 793 431 l 790 424 l 773 427 q 743 414 745 414 q 699 417 741 414 q 624 397 699 404 l 515 397 q 488 444 494 397 q 481 461 481 455 l 485 461 q 475 488 475 478 l 478 512 q 458 553 470 512 q 434 580 438 580 q 441 607 441 606 q 437 634 441 610 q 448 665 440 665 m 648 627 q 651 617 651 621 q 668 644 656 617 l 665 644 q 648 627 661 644 m 590 627 l 600 627 l 600 634 l 597 634 q 590 627 590 633 m 743 627 l 743 617 l 746 617 q 753 624 753 617 l 753 627 l 743 627 m 519 590 l 526 587 q 576 610 573 602 l 573 610 q 519 590 519 600 m 617 597 q 624 590 618 590 q 631 607 631 601 l 627 607 q 617 597 623 607 m 590 593 l 590 590 l 593 590 q 604 600 598 590 l 597 600 q 590 593 590 599 m 458 580 l 458 576 q 512 593 512 583 l 502 593 q 458 580 458 587 m 705 587 l 705 576 l 712 576 l 712 580 q 705 587 712 587 m 149 570 l 159 570 l 159 576 l 156 576 q 149 570 149 575 m 556 563 l 556 559 l 566 559 q 580 566 574 566 l 580 573 l 566 573 q 556 563 562 573 m 397 566 l 400 566 q 437 502 437 529 q 451 441 441 502 q 461 414 461 428 l 461 400 l 444 397 l 427 400 q 383 397 405 397 l 373 397 l 373 295 q 363 288 373 288 l 363 285 l 373 271 l 373 258 q 370 210 373 239 q 373 200 373 203 q 366 173 366 182 l 373 170 q 370 156 373 162 q 373 92 373 119 l 373 81 q 366 58 373 58 q 373 7 373 25 l 363 0 l 159 0 l 139 3 l 132 0 q 115 7 121 7 q 105 0 105 3 q 88 20 100 0 q 68 54 78 20 l 58 61 q 17 37 33 53 l 14 37 q 0 64 5 37 l 0 88 q 3 102 0 102 l 0 125 l 0 298 q 3 342 0 320 q 0 380 0 355 l 0 424 q 14 434 0 433 q 34 427 24 427 q 61 434 37 427 q 105 424 71 434 q 153 431 141 431 q 159 410 159 423 l 166 410 q 163 424 166 418 q 166 437 166 430 q 146 444 146 437 q 153 451 147 451 q 173 448 155 451 q 224 502 180 448 q 237 509 237 502 q 271 498 255 498 l 281 498 q 359 563 314 548 l 380 559 l 387 559 l 397 566 m 237 437 q 244 431 239 431 l 248 431 l 248 444 l 244 444 q 237 437 237 443 m 529 417 q 536 410 530 410 l 539 410 q 549 420 544 410 l 546 420 l 529 417 m 766 414 q 777 404 771 414 q 770 397 777 397 l 726 397 l 726 404 q 766 414 756 414 m 705 407 l 709 400 l 709 397 l 699 397 q 692 404 692 397 q 705 407 694 404 m 180 387 l 183 363 l 190 363 l 186 387 l 180 387 m 312 356 l 326 356 q 332 370 326 361 l 332 373 q 312 356 312 373 m 170 305 q 176 298 176 304 q 173 288 173 292 l 183 288 q 193 305 183 294 l 193 322 l 197 322 l 227 319 l 227 322 q 193 349 193 340 l 173 309 q 170 305 170 309 m 248 329 l 248 315 q 258 305 248 311 l 264 305 q 275 315 269 305 q 261 329 275 321 l 248 329 m 302 305 l 302 295 l 309 295 q 315 302 315 295 l 315 309 l 312 309 q 302 305 305 305 m 159 302 q 156 292 159 298 l 163 292 q 166 302 163 295 l 159 302 m 125 275 l 125 271 l 132 271 q 139 278 139 271 l 139 281 l 132 281 q 125 275 125 280 m 248 227 l 248 220 l 261 220 l 261 224 l 258 231 q 248 227 251 227 m 292 224 l 292 220 q 298 214 293 214 l 305 214 q 309 224 305 217 l 292 224 m 322 224 l 322 220 q 346 200 322 216 l 359 200 q 363 210 359 203 q 322 224 353 210 m 342 173 l 342 159 q 356 170 356 165 l 349 173 l 342 173 m 312 153 l 312 142 q 319 149 319 142 l 319 153 l 312 153 m 180 109 l 180 85 q 186 92 186 85 l 186 115 q 180 109 180 114 m 180 75 q 142 34 172 34 l 142 27 l 146 27 q 180 54 180 43 q 186 71 180 60 l 180 75 m 61 51 l 71 37 l 68 20 q 85 10 79 10 l 85 7 q 78 0 85 0 l 64 0 q 37 3 50 0 q 10 0 24 0 q 0 10 5 0 l 0 24 q 10 34 0 28 q 14 31 14 34 q 61 51 47 51 m 278 20 l 275 14 l 281 10 l 285 10 l 285 14 q 278 20 285 20 z "},"G":{"ha":1153,"x_min":0,"x_max":1149,"o":"m 532 1156 l 532 1153 l 539 1156 l 610 1156 q 648 1153 625 1156 q 651 1156 651 1153 q 787 1119 787 1137 q 800 1109 800 1114 l 800 1105 q 790 1102 790 1105 q 780 1105 783 1105 q 732 1034 739 1105 q 712 1000 730 1034 q 715 997 712 997 q 709 953 711 960 q 712 939 712 947 q 688 912 692 912 l 678 912 q 573 970 606 939 l 570 970 q 668 895 593 926 q 671 888 668 888 q 661 868 667 868 q 587 882 640 878 q 390 705 440 882 q 370 559 376 654 q 373 546 373 553 l 373 522 q 363 512 373 517 l 322 512 q 302 583 312 512 q 285 607 290 583 q 288 621 288 613 l 288 627 l 231 732 q 244 766 244 756 q 186 807 211 776 l 183 807 l 186 783 l 180 780 l 176 780 q 156 787 167 780 l 142 780 q 102 804 134 780 l 95 804 q 92 800 95 800 q 85 810 92 810 q 41 777 57 784 q 37 780 41 780 q 176 1004 54 868 q 461 1146 299 1117 l 465 1139 q 458 1133 458 1138 l 465 1129 l 468 1129 l 475 1133 q 481 1116 481 1124 l 488 1116 q 529 1143 529 1129 q 515 1149 515 1143 l 532 1156 m 848 1095 q 1105 865 1023 1030 q 1149 719 1147 768 l 1143 715 l 1058 715 l 1044 732 q 1031 719 1039 732 q 1021 722 1024 722 q 1000 715 1010 715 l 936 715 q 905 726 930 715 l 892 722 q 834 753 861 753 q 709 834 833 759 l 709 838 q 749 902 709 858 q 780 1021 749 962 q 787 1048 787 1042 q 783 1058 783 1055 q 848 1095 848 1058 m 309 966 l 292 966 q 275 980 275 978 l 268 977 l 244 977 q 231 973 237 977 l 224 977 l 207 973 q 186 980 196 980 l 186 973 q 207 956 207 973 q 193 943 203 943 q 197 922 193 940 q 170 885 183 885 l 170 875 q 190 858 190 875 l 190 854 q 159 793 159 835 l 159 790 q 237 848 189 828 q 309 885 274 878 q 363 963 309 963 q 454 1007 434 1007 q 481 997 471 997 q 522 1004 498 997 l 539 1000 l 546 1004 q 570 994 563 994 l 600 997 q 661 956 600 988 l 661 960 q 600 1010 610 1010 q 566 1024 575 1010 l 549 1021 l 532 1021 q 529 1024 529 1021 l 488 1010 l 475 1010 l 475 1017 q 492 1027 475 1023 l 488 1051 l 488 1058 q 498 1088 488 1064 q 495 1099 495 1095 q 458 1027 489 1098 q 356 980 429 1027 l 309 966 m 549 1065 l 549 1061 l 553 1061 q 563 1072 557 1061 l 563 1075 l 559 1075 q 549 1065 555 1075 m 404 1068 l 404 1065 l 410 1065 q 420 1082 418 1065 l 417 1082 q 404 1068 412 1082 m 448 1082 l 448 1078 l 461 1078 l 461 1082 l 448 1082 m 353 1068 l 353 1065 l 370 1065 l 370 1072 l 353 1068 m 607 1048 l 607 1044 l 624 1041 l 624 1051 l 607 1048 m 305 1048 l 305 1044 l 322 1044 l 322 1051 q 315 1058 322 1058 q 305 1048 311 1058 m 363 1044 q 366 1041 366 1044 q 380 1055 376 1044 l 373 1055 q 363 1044 368 1055 m 627 1024 l 627 1021 l 634 1021 q 641 1027 641 1021 l 641 1031 l 634 1031 q 627 1024 627 1029 m 241 1014 l 258 1010 l 261 1010 q 275 1024 267 1010 q 271 1027 271 1024 q 241 1014 241 1019 m 285 1014 l 285 1004 l 288 1004 q 295 1010 295 1004 l 288 1014 l 285 1014 m 207 997 q 210 987 210 990 l 214 987 l 214 997 l 207 997 m 214 966 q 234 963 231 963 q 254 966 252 966 l 275 963 l 275 966 q 309 946 309 951 l 309 936 q 231 868 309 888 q 200 851 231 859 q 193 888 197 856 q 214 943 202 900 q 220 949 220 943 l 214 960 l 214 966 m 539 943 l 539 936 l 549 936 l 549 943 l 539 943 m 115 838 l 136 838 q 142 844 142 838 l 136 848 q 115 838 115 844 m 1044 800 l 1051 797 l 1055 797 l 1055 807 l 1051 807 q 1044 800 1044 806 m 278 790 l 278 783 l 302 790 l 302 793 q 295 800 302 800 l 288 800 q 278 790 283 800 m 770 783 l 773 783 q 844 739 814 768 q 878 722 871 739 q 871 715 878 715 l 814 715 q 777 770 793 715 q 770 783 770 770 m 115 780 q 139 760 127 760 q 203 766 196 766 q 227 753 227 758 q 217 719 217 722 l 217 715 q 278 583 273 641 q 302 512 292 583 l 302 509 l 295 505 l 275 505 q 231 471 248 505 l 231 461 q 248 451 237 461 l 248 454 l 244 478 l 281 495 l 288 495 q 359 488 317 495 q 370 492 366 492 l 376 481 l 376 468 q 373 417 376 451 l 376 417 l 373 410 q 376 397 373 403 q 336 376 367 376 q 329 383 336 383 l 288 376 l 288 370 l 292 370 q 329 373 299 370 q 349 363 345 363 l 387 383 l 383 400 l 390 400 q 404 346 404 360 q 393 342 397 342 l 393 336 l 400 336 l 410 342 l 417 332 l 417 329 l 414 322 q 478 268 420 322 q 587 234 528 241 l 607 237 l 637 237 l 644 241 l 648 234 l 648 227 q 617 193 625 227 q 627 166 627 179 q 576 146 623 166 q 543 153 562 146 q 492 136 540 153 l 448 142 q 427 132 427 138 q 444 119 434 132 l 448 119 q 458 136 450 136 l 465 136 l 465 129 l 471 132 l 481 132 l 492 125 l 498 125 q 593 146 533 138 q 631 156 593 153 q 654 81 644 106 q 644 68 650 68 q 688 -3 644 63 l 692 -24 q 600 -37 631 -37 q 597 -27 597 -31 l 583 -27 q 576 -41 583 -41 l 553 -41 q 383 -14 391 -31 l 387 -7 l 383 -7 l 370 -14 q 180 102 208 43 q 176 98 176 102 q 27 346 64 191 q 14 400 22 346 q 31 404 19 404 l 10 417 l 10 434 q 34 448 28 434 q 27 454 34 454 l 24 454 l 7 451 q 3 454 7 454 q 0 536 3 457 q 41 749 9 749 q 109 780 69 780 l 115 780 m 668 614 l 983 614 q 1010 593 997 614 q 1021 614 1015 614 l 1102 614 q 1122 543 1109 614 l 1102 488 q 1146 407 1146 458 l 1146 373 q 1136 363 1146 368 q 1126 366 1129 366 l 1122 359 q 1129 353 1129 358 l 1129 342 q 1116 278 1122 336 q 1055 261 1093 264 q 1031 264 1041 264 q 1000 207 1016 229 q 990 186 1000 186 q 973 200 975 193 l 973 210 q 980 217 975 217 l 977 224 q 1014 258 1014 252 l 1007 261 q 997 254 997 258 q 987 258 990 258 q 960 244 960 252 l 960 241 l 973 227 q 916 217 973 217 q 895 271 916 229 l 895 275 q 939 261 936 261 l 943 261 q 905 295 943 268 q 827 332 905 332 q 807 326 817 326 l 804 326 q 793 346 793 329 q 797 366 793 349 q 777 383 777 366 q 753 424 777 395 q 810 451 759 437 q 926 488 846 469 q 946 485 943 485 l 949 492 l 949 495 l 946 495 q 746 431 849 487 q 651 522 699 498 q 648 529 651 529 q 668 614 648 582 m 1129 614 l 1136 614 q 1146 604 1141 614 q 1139 583 1146 597 q 1146 536 1146 557 l 1146 475 q 1139 468 1146 468 q 1122 502 1122 491 q 1136 556 1136 536 l 1119 607 l 1129 614 m 661 597 l 665 590 l 665 576 q 658 570 665 570 l 654 570 l 654 590 q 661 597 656 597 m 51 593 l 51 590 q 58 583 52 583 q 64 590 64 583 l 64 593 l 51 593 m 1058 559 q 1061 532 1061 541 q 1048 498 1048 509 l 1055 498 q 1078 536 1069 536 l 1078 543 q 1058 559 1073 543 m 1017 498 l 1034 492 l 1034 498 q 1031 509 1031 505 q 1017 498 1017 504 m 641 509 q 665 485 641 504 l 665 478 l 682 481 q 715 427 694 469 q 763 387 735 406 l 760 380 l 763 373 q 749 366 755 366 l 732 376 l 719 366 l 692 366 q 671 373 682 366 q 651 366 661 366 l 644 366 q 634 404 637 366 q 637 407 634 407 l 634 431 l 634 502 q 641 509 635 509 m 1038 485 l 1038 475 l 1044 475 l 1044 478 q 1038 485 1044 485 m 326 481 l 326 478 q 356 444 326 463 l 363 444 q 326 481 343 458 m 1082 465 l 1085 465 q 1095 475 1090 465 l 1095 478 q 1082 465 1090 478 m 51 417 l 51 410 l 64 410 l 64 417 l 51 417 m 159 393 l 159 387 q 170 380 170 387 l 170 373 q 159 366 159 373 q 180 353 170 366 l 180 356 l 176 373 l 183 376 l 190 376 l 203 366 l 210 366 l 210 370 q 159 393 186 393 m 122 366 l 125 366 l 146 370 l 146 376 l 142 376 q 122 366 122 373 m 1078 370 l 1078 363 l 1082 363 q 1095 366 1084 363 q 1109 363 1101 363 l 1109 370 l 1078 370 m 220 366 q 241 349 220 361 l 248 349 q 261 353 255 349 q 275 349 267 349 q 278 356 275 356 q 275 366 275 363 q 248 359 248 364 q 220 366 235 366 m 332 342 q 309 309 332 326 q 329 298 312 298 q 332 302 329 302 l 336 295 q 326 292 329 292 l 326 281 q 336 275 326 275 q 356 281 347 281 q 390 268 356 275 q 400 271 397 271 l 400 275 q 380 285 397 285 l 370 285 q 346 302 370 302 l 346 295 q 336 298 339 298 l 336 302 l 342 302 l 342 305 q 329 315 329 305 q 339 342 339 338 l 332 342 m 943 339 l 943 332 l 946 332 q 953 339 953 332 l 943 339 m 373 322 l 373 315 q 383 326 378 315 q 373 322 376 322 m 783 326 q 797 298 788 311 q 851 309 836 303 q 899 285 881 309 l 899 281 l 888 268 l 888 261 l 909 227 l 905 220 l 909 200 q 858 132 864 132 q 831 122 831 129 l 861 122 q 899 170 861 128 q 922 207 899 187 q 932 203 929 203 l 939 207 q 973 180 961 207 q 987 173 987 179 l 994 176 l 997 176 q 1010 159 1000 176 q 983 47 1007 117 q 929 24 964 35 l 929 20 q 983 37 968 20 l 997 37 q 1082 -10 1082 10 l 1075 -14 l 1014 -14 q 983 -10 1002 -14 q 963 -14 979 -14 l 963 -10 l 956 -14 l 912 -14 l 905 -10 q 916 14 909 3 l 916 17 l 912 17 q 902 14 905 14 q 892 88 899 18 l 885 88 q 763 3 806 16 q 705 -17 763 -5 q 671 41 694 25 q 661 64 668 54 l 661 68 q 682 102 670 102 q 749 115 711 115 q 739 125 749 120 l 671 112 l 668 112 q 637 207 637 163 q 675 248 654 208 q 783 326 720 256 m 390 312 q 387 302 390 309 l 393 298 q 400 305 400 298 l 400 312 l 390 312 m 254 258 l 254 254 l 261 254 q 285 285 285 271 l 278 285 q 254 258 274 285 m 1139 278 l 1143 278 l 1146 261 l 1146 20 q 1139 14 1146 14 q 1129 17 1133 17 q 1146 -7 1146 -3 l 1136 -14 l 1119 -14 q 1065 27 1108 -14 l 1004 51 l 1004 61 l 1031 153 q 1014 193 1014 185 l 1014 200 q 1058 248 1050 248 l 1099 248 l 1112 237 l 1112 241 q 1109 251 1109 248 q 1139 278 1139 266 m 465 203 l 465 200 l 471 200 q 478 207 478 200 l 471 210 q 465 203 465 209 m 180 207 l 176 190 l 176 170 q 186 207 184 170 l 180 207 m 393 203 l 393 193 l 397 193 q 400 203 397 197 l 393 203 m 434 183 l 434 180 l 444 180 q 451 186 451 180 l 451 190 l 441 190 q 434 183 434 189 m 543 173 l 543 170 q 566 180 554 170 l 570 180 q 593 170 581 180 l 604 170 q 566 186 604 177 q 543 173 543 182 m 390 173 l 390 166 l 397 166 l 397 180 q 390 173 390 178 m 170 159 l 166 142 l 166 125 q 173 132 173 125 l 173 159 l 170 159 m 932 156 q 939 149 934 149 l 943 149 l 943 156 l 932 156 m 373 139 l 373 136 q 387 146 387 141 l 380 146 q 373 139 373 144 m 760 115 l 760 109 l 766 109 q 787 125 787 121 l 780 125 q 760 115 764 115 m 695 85 l 695 78 q 705 88 700 78 l 705 92 l 702 92 q 695 85 695 90 m 902 75 l 909 71 l 912 78 l 912 81 l 909 81 q 902 75 902 80 m 465 78 q 471 71 466 71 q 478 78 478 71 l 465 78 m 627 78 q 597 47 602 47 q 546 64 561 54 l 546 61 l 539 64 l 532 64 q 505 54 524 59 q 492 58 499 58 l 485 58 q 492 51 486 51 l 509 51 q 543 58 515 51 q 553 47 543 53 l 559 51 q 610 41 595 41 q 637 68 620 68 l 637 75 q 627 78 634 75 m 451 75 q 424 54 451 62 q 410 34 424 47 l 410 31 l 417 31 q 431 51 431 36 l 448 51 q 458 71 458 54 l 451 75 m 1078 47 l 1078 41 l 1092 41 l 1092 44 l 1078 47 m 1105 31 l 1105 27 q 1116 20 1105 20 l 1119 20 l 1119 24 q 1105 31 1114 24 m 960 14 l 960 0 l 966 0 l 966 14 l 960 14 m 600 -3 l 600 -7 l 604 -7 q 614 -3 610 -3 l 614 3 l 607 3 q 600 -3 600 2 z "},"H":{"ha":1085,"x_min":0,"x_max":1109,"o":"m 10 1133 l 125 1133 q 146 1126 135 1133 q 166 1133 157 1133 l 166 1129 l 173 1133 l 244 1133 q 251 1126 251 1131 l 248 1095 q 264 1065 248 1076 l 264 1055 q 241 1041 246 1055 l 241 1038 q 261 1044 252 1044 q 295 966 295 1006 q 370 916 312 941 l 373 909 l 373 834 q 363 810 373 818 q 373 770 373 793 q 329 712 373 722 l 309 712 l 285 715 q 258 688 285 709 q 248 610 258 672 l 237 610 l 217 607 q 186 624 204 611 l 183 624 q 122 604 128 604 q 98 607 109 607 q 10 583 39 583 l 7 583 q 0 590 0 583 l 0 851 l 3 892 l 0 892 q 7 902 3 902 q 0 926 0 916 q 20 953 0 934 l 17 953 l 7 946 q 0 953 0 946 l 0 1004 q 27 1017 0 1014 l 68 1014 q 88 1024 71 1024 l 102 1024 l 102 1027 q 92 1038 102 1032 q 105 1055 96 1053 q 132 1038 114 1038 q 180 1055 180 1040 l 180 1061 q 125 1048 171 1055 l 98 1061 l 95 1061 q 54 1024 95 1039 q 24 1034 32 1034 q 3 1024 20 1024 l 0 1031 l 0 1044 q 3 1085 0 1067 q 0 1126 0 1103 l 10 1133 m 275 1133 l 339 1133 q 353 1129 347 1133 q 363 1133 359 1133 q 373 1109 373 1120 l 373 1044 q 370 1010 373 1028 q 373 980 373 998 l 373 943 q 363 936 373 936 q 305 977 328 946 q 268 1055 305 1019 l 271 1061 l 271 1085 l 268 1085 l 261 1082 q 254 1119 258 1086 q 275 1133 258 1133 m 729 1133 q 736 1129 736 1133 l 777 1133 l 804 1133 l 827 1126 q 858 1133 850 1133 l 871 1133 q 960 1092 943 1133 l 963 1072 l 966 1072 l 966 1078 q 943 1129 966 1089 l 943 1133 l 1085 1133 q 1095 1122 1090 1133 l 1095 1017 q 1082 1007 1095 1007 q 1072 1010 1075 1010 l 1072 1004 l 1095 990 l 1095 987 q 1088 980 1095 980 l 1078 987 q 1072 980 1078 980 l 1051 983 l 1038 977 q 1027 980 1031 980 l 1027 973 q 1044 970 1039 973 q 1058 973 1050 973 q 1078 966 1078 972 l 1085 970 l 1088 970 q 1095 963 1095 968 q 1088 929 1095 929 q 1095 892 1095 916 l 1095 685 q 1092 648 1095 671 q 1095 621 1095 644 l 1095 600 q 1068 587 1095 592 q 1055 604 1055 590 l 1051 604 q 1007 580 1026 580 l 1014 570 l 1014 559 l 1017 519 l 1027 519 q 1021 546 1021 531 l 1021 566 q 1058 587 1021 573 q 1068 576 1058 582 l 1092 580 l 1095 573 l 1095 475 q 1085 465 1095 470 l 1078 465 q 1072 471 1072 465 q 1075 481 1075 478 q 1041 515 1048 515 l 1031 515 l 1031 512 q 1068 471 1057 512 l 1061 468 l 1038 471 l 1024 468 l 1017 471 q 949 420 981 471 q 912 404 912 410 l 916 404 q 892 363 911 363 q 817 302 835 302 q 763 285 777 285 q 753 295 763 290 q 760 336 760 319 q 753 370 753 363 q 797 417 758 417 q 838 431 827 421 l 848 424 q 888 431 878 431 l 888 434 q 858 451 888 440 q 763 420 858 438 q 732 475 755 463 l 732 481 l 715 481 q 671 546 708 481 q 634 576 661 546 l 634 600 q 675 631 661 604 q 729 675 708 641 l 736 671 l 756 671 q 726 685 756 675 l 726 688 q 777 756 728 705 l 777 760 q 770 790 770 782 l 770 797 q 821 814 789 797 q 854 807 829 814 q 899 824 863 807 q 936 821 922 821 l 953 821 l 977 824 q 949 844 949 838 l 949 848 l 946 848 l 946 844 q 949 831 949 838 q 932 824 939 824 l 929 831 q 932 841 932 838 l 926 841 l 926 831 l 892 834 l 888 834 q 851 821 871 821 l 817 821 q 766 804 789 804 q 749 865 759 817 q 743 885 743 865 l 753 892 q 722 949 722 942 l 722 1007 q 739 1058 722 1019 l 739 1075 l 756 1072 l 760 1078 l 760 1082 l 743 1078 q 722 1105 722 1081 l 722 1122 l 729 1133 m 139 1116 q 142 1105 142 1109 l 149 1105 l 149 1116 l 139 1116 m 1027 1105 q 1034 1099 1029 1099 l 1038 1099 l 1038 1105 l 1027 1105 m 777 1092 l 770 1082 l 773 1082 q 787 1088 781 1088 l 787 1092 l 777 1092 m 966 1061 l 966 1051 q 980 1044 972 1051 l 980 1051 q 970 1061 980 1056 l 966 1061 m 770 1048 l 770 1041 l 780 1041 l 780 1048 l 770 1048 m 217 1041 l 217 1031 l 220 1031 q 231 1041 225 1031 l 217 1041 m 139 1027 l 136 1021 l 149 1010 l 156 1010 l 156 1014 q 139 1027 156 1019 m 210 1021 q 203 1014 210 1014 l 200 1014 l 183 1017 l 180 1010 q 254 949 201 1010 l 264 943 l 268 943 q 214 1021 214 998 l 210 1021 m 800 1000 q 797 990 800 997 l 804 987 l 807 987 q 814 994 814 987 q 807 1000 814 1000 l 800 1000 m 1000 960 l 1000 949 l 1004 949 q 1017 970 1004 954 l 1017 973 l 1014 973 q 1000 960 1005 960 m 780 963 q 787 956 781 956 l 790 956 q 797 963 797 956 l 797 966 l 780 963 m 932 949 l 932 946 l 943 946 l 943 956 l 939 956 q 932 949 932 955 m 278 939 l 278 936 q 292 929 283 936 l 292 932 q 281 939 292 939 l 278 939 m 783 919 q 756 892 783 892 l 756 885 q 763 882 763 885 l 797 912 l 800 912 l 865 895 q 905 905 865 905 l 905 909 q 899 912 899 909 l 851 902 q 783 919 851 915 m 963 909 l 960 909 q 956 912 956 909 q 936 882 945 912 l 939 882 q 973 902 939 902 l 973 919 l 970 919 q 963 909 963 919 m 722 905 l 726 905 q 732 899 732 904 l 729 882 q 722 888 722 882 l 722 905 m 916 888 q 922 882 917 882 l 932 882 l 932 888 l 916 888 m 729 851 q 760 763 753 798 q 732 732 760 757 q 715 702 732 724 q 661 637 715 661 q 631 617 650 617 q 600 658 620 617 l 583 658 q 546 651 559 658 q 498 675 498 660 l 498 678 l 509 692 q 488 729 509 696 q 498 753 492 753 l 502 753 q 529 749 526 753 q 566 753 552 753 l 624 753 q 651 749 638 753 q 678 753 664 753 l 722 753 l 722 800 q 726 838 722 814 q 722 848 722 844 l 729 851 m 227 827 l 227 810 l 234 810 l 234 827 l 227 827 m 1004 814 l 1004 810 l 1007 810 q 1021 821 1021 816 l 1010 821 q 1004 814 1004 819 m 821 780 q 804 787 810 787 q 827 773 804 781 q 865 793 865 783 l 858 797 l 854 797 q 821 780 833 780 m 1000 793 l 997 777 l 1004 777 q 1007 790 1004 784 l 1000 793 m 946 777 l 946 773 l 960 773 l 960 780 l 956 780 q 946 777 949 777 m 997 763 q 994 753 997 760 l 997 753 q 1004 760 1004 753 l 1004 763 l 997 763 m 919 753 l 919 749 l 929 749 l 929 760 l 926 760 q 919 753 919 758 m 410 753 l 414 753 q 420 746 420 751 l 417 739 q 420 736 420 739 l 468 749 q 481 746 474 746 l 478 722 q 505 695 486 722 q 502 685 502 688 q 458 699 461 699 l 454 699 q 492 665 454 691 q 529 631 502 631 l 549 631 q 553 634 553 631 l 559 631 l 597 631 q 621 590 605 609 l 617 566 q 644 536 624 565 l 644 532 q 475 475 568 493 q 461 471 475 471 q 451 475 454 475 l 448 468 l 448 465 q 614 509 495 465 q 654 526 640 526 q 746 437 691 465 l 746 410 q 736 359 746 392 q 743 312 743 323 l 732 275 q 766 217 748 237 l 766 210 q 732 159 752 199 l 722 159 l 722 437 l 478 437 q 465 441 471 437 q 451 437 458 437 l 373 437 l 373 383 q 366 376 373 376 l 363 376 q 353 404 363 386 q 366 441 353 410 l 366 444 l 363 444 q 339 407 363 439 q 373 349 373 366 l 373 339 q 346 315 373 321 l 339 319 l 332 319 q 302 312 324 319 q 281 346 290 312 l 285 353 l 285 356 q 275 424 275 409 q 295 475 295 469 q 251 522 281 475 q 241 529 251 529 l 244 536 q 234 587 237 547 q 268 597 250 597 l 268 607 q 312 695 273 695 l 336 699 l 359 695 q 390 746 366 695 q 410 753 401 753 m 105 722 l 105 719 l 109 719 q 122 729 122 724 l 115 732 q 105 722 111 732 m 387 705 l 387 699 l 390 699 q 397 709 397 699 l 404 709 l 404 702 l 410 702 q 441 715 441 708 q 420 732 441 721 q 387 705 397 723 m 970 719 l 977 715 l 977 726 q 970 719 970 724 m 865 705 l 865 699 l 875 699 l 875 705 l 865 705 m 922 705 q 932 692 928 692 l 939 692 q 946 699 946 692 q 929 705 929 699 l 922 705 m 92 685 l 92 682 l 102 682 l 102 692 l 98 692 q 92 685 92 690 m 997 685 q 1010 671 997 682 l 1017 675 l 1027 675 l 1027 665 l 1017 665 l 1017 658 l 1034 661 l 1051 658 l 1051 665 q 1061 661 1058 661 l 1061 658 l 1055 658 l 1055 654 q 1068 634 1068 654 q 1085 654 1074 634 q 1061 661 1085 661 l 1072 675 l 1072 678 q 1065 685 1072 685 l 1041 678 q 1007 692 1041 685 l 1004 692 q 997 685 997 690 m 899 685 q 909 675 899 680 l 912 675 q 919 682 919 675 l 912 685 l 899 685 m 994 644 l 997 644 q 1007 661 1004 644 l 1004 661 q 994 644 996 661 m 939 658 l 939 654 q 960 634 939 634 l 980 634 l 980 641 l 977 641 l 960 637 q 943 658 948 658 l 939 658 m 987 624 l 987 614 l 990 614 q 1024 637 998 614 l 1021 644 q 997 624 1008 644 l 987 624 m 1055 621 q 1061 614 1056 614 l 1065 621 l 1065 627 l 1061 627 q 1055 621 1055 626 m 905 624 l 899 614 l 902 614 l 909 624 l 905 624 m 699 604 l 699 600 l 715 597 l 715 607 l 699 604 m 190 587 q 231 570 231 577 l 227 549 q 244 495 232 549 q 275 465 245 486 l 288 444 l 271 390 l 292 336 q 275 292 292 292 q 220 254 254 292 q 227 234 227 241 l 234 234 q 288 278 254 278 q 322 275 318 275 q 383 288 339 280 l 387 281 l 387 224 q 376 207 387 207 l 376 197 q 387 180 387 197 l 387 136 l 376 122 q 387 92 387 109 l 387 7 q 383 3 387 3 l 387 -3 l 387 -10 q 380 -17 387 -17 q 373 -3 373 -17 q 349 -20 363 -20 l 346 -20 q 339 -14 339 -20 q 349 -7 339 -7 l 349 -3 l 339 -3 q 319 -17 330 -3 l 312 -17 q 295 -3 297 -3 l 295 -20 l 220 -20 q 180 -17 197 -20 q 139 -20 162 -20 l 109 -20 q 81 0 95 -20 q 71 -20 77 -20 l 24 -20 q 14 -10 19 -20 l 14 112 q 68 136 14 136 q 109 159 90 154 l 115 156 q 142 163 119 156 q 186 146 144 152 q 214 149 205 149 q 248 105 242 149 q 244 95 244 98 q 248 81 244 87 q 244 51 244 63 l 244 44 q 285 3 244 26 l 295 3 q 319 17 295 10 l 319 20 q 312 27 312 20 q 302 17 302 27 q 254 47 254 24 l 264 81 l 264 95 q 258 119 264 119 q 264 163 264 155 q 254 203 254 180 l 258 203 q 241 227 251 224 l 237 227 l 237 200 q 248 159 237 190 l 241 156 l 234 156 l 224 163 q 176 159 205 163 q 149 180 155 163 l 142 183 q 51 153 86 169 q 17 146 23 149 l 14 153 l 14 441 q 27 502 14 456 q 61 549 27 549 q 163 570 134 570 l 190 587 m 288 597 l 288 590 l 315 590 l 315 597 l 288 597 m 661 590 l 658 583 l 668 583 q 661 590 668 590 m 743 580 q 749 573 744 573 l 753 573 l 753 580 l 743 580 m 871 566 q 878 559 873 559 l 878 573 q 871 566 871 572 m 3 566 l 7 566 q 14 559 14 565 q 3 532 14 534 l 0 532 l 0 549 l 3 566 m 838 509 l 838 502 l 841 502 q 868 543 868 534 l 865 543 q 838 509 861 543 m 309 498 q 298 488 309 488 l 298 481 q 312 495 312 485 l 312 498 l 309 498 m 10 478 q 17 471 12 471 l 20 471 l 20 478 l 10 478 m 359 471 l 359 468 q 370 454 365 454 q 376 461 376 454 q 366 471 366 461 l 359 471 m 1058 434 l 1088 434 q 1099 424 1093 434 l 1099 397 q 1109 339 1109 353 l 1109 186 q 1105 139 1109 168 q 1109 119 1109 134 l 1099 85 l 1105 75 q 1095 37 1105 60 l 1099 31 l 1095 10 q 1109 3 1109 10 l 1109 -10 q 1099 -20 1109 -15 q 1092 -17 1092 -20 l 1051 -20 l 746 -20 q 736 -10 741 -20 l 736 20 q 746 27 736 27 l 810 3 l 810 14 q 739 58 739 52 q 787 153 739 100 q 810 180 787 170 l 810 186 q 780 237 780 214 l 865 271 q 953 370 936 338 q 1021 427 960 370 q 1058 434 1034 434 m 214 366 l 203 373 l 200 373 q 207 359 203 359 q 186 342 201 342 l 186 322 l 190 322 q 231 349 231 342 q 261 380 244 349 l 251 380 q 227 356 248 380 l 224 356 l 224 359 l 234 376 l 234 383 l 231 383 q 214 366 229 383 m 132 356 l 139 353 l 142 359 l 142 363 l 139 363 q 132 356 132 361 m 180 302 q 163 288 180 297 l 170 285 q 180 288 176 288 q 186 281 181 281 l 190 281 q 197 288 197 281 l 180 302 m 102 271 l 105 254 l 112 254 l 112 271 l 102 271 z "},"I":{"ha":407,"x_min":14,"x_max":393,"o":"m 24 1133 l 136 1133 q 139 1129 139 1133 l 146 1133 l 231 1133 q 264 1129 247 1133 q 295 1133 277 1133 l 315 1133 q 359 1075 344 1133 q 383 1038 369 1075 l 380 1024 q 383 1014 383 1017 q 380 1000 380 1008 q 387 994 387 999 l 387 983 q 373 960 377 960 q 359 963 367 963 l 356 956 q 387 946 387 952 l 387 892 q 380 878 380 884 q 387 858 387 867 l 387 746 q 380 722 387 722 l 383 709 q 380 658 380 666 q 383 637 380 655 q 380 624 380 631 q 387 617 387 623 l 387 526 q 373 481 387 494 l 373 478 q 376 475 373 475 q 373 465 373 468 q 346 471 370 465 l 342 471 l 342 468 q 383 437 383 444 l 376 437 q 387 373 387 385 l 387 356 q 363 302 387 335 l 332 281 l 326 281 l 305 292 q 264 258 278 292 q 200 227 222 227 l 186 231 q 170 224 176 224 q 119 349 141 224 q 105 380 114 351 l 109 387 q 85 414 109 414 q 51 441 79 414 l 47 441 q 17 434 39 441 l 14 441 q 17 448 14 448 l 14 471 l 14 495 q 17 509 14 509 l 14 532 l 14 627 q 47 665 14 646 q 20 675 45 665 l 24 682 q 14 705 14 694 q 37 726 14 715 l 37 736 q 14 749 22 736 l 14 800 q 17 804 14 804 l 14 810 l 14 854 q 20 875 14 864 q 14 895 14 886 q 17 916 14 911 q 14 953 14 939 l 14 980 q 20 1000 14 989 q 14 1021 14 1011 l 14 1027 q 17 1061 14 1044 q 14 1092 14 1074 q 17 1095 17 1092 q 78 1082 23 1095 l 78 1085 q 17 1109 78 1091 l 14 1126 l 24 1133 m 349 1133 l 376 1133 q 387 1122 381 1133 l 387 1075 q 380 1068 387 1068 q 353 1116 370 1068 q 342 1122 342 1116 l 342 1126 q 349 1133 344 1133 m 136 1085 l 132 1068 q 142 1072 136 1068 l 159 1068 l 159 1075 q 136 1085 146 1075 m 112 990 l 112 987 l 119 987 l 119 997 q 129 1021 119 1008 l 129 1027 q 112 990 121 1027 m 359 997 l 359 994 l 363 994 q 370 1000 370 994 l 370 1004 l 366 1004 q 359 997 359 1002 m 302 1000 l 302 990 l 312 990 l 312 994 q 305 1000 312 1000 l 302 1000 m 315 977 l 309 980 l 295 980 l 281 970 l 275 970 l 261 980 l 261 977 q 268 970 262 970 l 251 949 l 251 946 l 254 946 q 312 973 304 973 q 332 970 330 970 q 346 983 336 983 l 346 990 l 315 977 m 105 966 l 102 960 l 102 953 q 112 963 106 953 l 105 966 m 281 932 l 285 932 q 298 936 291 936 l 298 929 l 315 929 q 319 939 315 932 l 298 939 q 319 956 298 949 l 319 963 l 315 963 q 281 932 281 942 m 122 953 q 119 943 122 949 q 142 932 132 939 l 146 932 l 146 936 q 129 953 146 941 l 122 953 m 193 899 l 193 895 l 207 895 q 275 922 220 895 l 275 932 q 203 905 232 905 q 193 899 193 905 m 353 916 q 366 888 358 888 l 370 888 l 370 895 q 353 916 357 916 m 112 905 l 112 902 q 119 895 113 895 l 122 895 l 122 909 q 112 905 115 905 m 170 902 l 170 888 l 176 888 q 186 899 181 888 l 180 902 l 170 902 m 163 861 l 163 858 q 166 854 166 858 q 159 848 159 853 q 176 766 170 818 q 190 746 190 760 l 193 746 q 200 753 200 746 q 180 783 180 768 l 180 790 l 190 804 l 180 804 l 180 817 l 183 824 q 180 827 180 824 l 183 827 l 180 834 l 193 851 l 193 854 l 190 854 l 173 851 q 163 861 173 856 m 58 844 l 58 841 l 88 841 l 88 851 l 71 851 q 58 844 63 844 m 146 827 l 142 821 l 142 814 q 153 824 147 814 l 146 827 m 75 793 l 75 787 l 85 787 l 85 793 l 75 793 m 132 783 l 142 783 l 142 790 l 139 790 q 132 783 132 789 m 75 756 l 75 746 l 92 746 q 98 753 98 746 l 95 760 q 75 756 90 756 m 193 743 q 163 712 193 728 q 166 709 166 712 q 115 654 146 708 l 71 648 q 61 665 61 659 l 58 665 q 51 658 51 663 q 54 654 54 658 q 51 651 51 654 q 75 641 63 641 l 81 641 l 122 644 l 132 627 l 146 627 q 166 634 153 634 l 166 648 l 153 648 l 153 641 l 142 641 q 129 658 138 641 q 203 732 130 667 l 203 739 q 193 743 200 739 m 149 726 l 149 722 l 159 722 l 159 732 l 156 732 q 149 726 149 731 m 81 699 l 81 692 l 92 692 l 92 699 l 81 699 m 54 685 l 61 682 l 68 682 l 68 692 l 61 692 q 54 685 54 690 m 186 637 l 186 634 l 197 634 l 197 644 l 193 644 q 186 637 186 643 m 214 621 l 214 617 l 227 617 l 227 621 q 220 627 227 627 q 214 621 214 626 m 186 621 l 186 614 q 197 604 186 609 l 200 610 q 186 621 200 616 m 207 583 l 207 576 q 210 580 210 576 q 275 563 245 563 l 278 570 q 271 576 278 576 l 268 576 q 254 570 260 570 q 224 590 240 576 l 214 590 q 207 583 207 589 m 47 573 l 47 570 q 61 580 61 575 l 61 583 l 58 583 q 47 573 53 583 m 309 570 l 309 566 q 315 559 310 559 q 322 566 322 559 l 322 570 l 309 570 m 119 543 l 119 536 l 122 515 l 115 502 l 119 502 q 129 549 126 502 l 125 549 q 119 543 119 548 m 200 502 l 210 502 l 210 509 l 207 509 q 200 502 200 507 m 251 485 l 254 478 q 268 488 268 484 l 268 495 l 261 495 q 251 485 256 495 m 112 488 q 109 478 112 485 l 112 478 l 115 485 l 115 488 l 112 488 m 295 475 q 319 458 300 458 l 322 465 q 312 485 322 482 l 305 485 q 295 475 302 485 m 237 424 l 237 414 q 254 420 248 420 l 254 431 l 244 431 q 237 424 237 429 m 37 404 q 92 370 61 382 q 112 288 92 351 l 112 261 q 129 217 121 252 l 156 186 q 149 149 149 173 l 149 132 q 153 129 149 129 l 149 122 l 149 115 q 197 85 149 111 l 197 81 q 170 17 170 56 q 163 10 163 16 l 163 7 l 166 7 l 176 14 l 183 14 q 200 3 183 3 q 207 10 207 3 q 197 27 207 27 q 224 85 197 31 q 173 115 224 88 q 170 129 170 121 l 170 149 q 224 190 186 190 q 292 224 253 190 q 312 251 292 244 q 353 241 341 241 q 373 264 373 246 l 373 275 q 390 278 385 275 l 393 271 l 393 231 q 390 197 393 197 q 393 149 393 168 l 393 -10 q 387 -17 393 -17 l 353 -17 l 342 -10 q 332 -20 342 -15 q 264 0 315 0 l 264 -7 q 285 -14 271 -7 q 298 -10 291 -10 q 309 -14 305 -14 q 302 -20 309 -20 l 292 -20 q 288 -17 288 -20 l 281 -20 l 258 -20 q 251 -7 251 -20 l 244 -7 l 244 -17 l 237 -17 q 227 14 229 -17 l 220 14 q 210 3 216 14 q 217 -14 217 -7 q 190 -20 205 -20 l 31 -20 q 20 -10 26 -20 l 20 75 q 24 92 20 86 l 20 112 l 20 146 q 71 176 20 168 q 109 183 85 176 l 115 180 l 115 193 l 24 173 q 20 183 20 180 q 24 200 20 195 q 20 231 20 218 l 20 234 q 24 264 20 252 q 20 298 20 282 l 20 339 q 47 349 22 349 l 47 356 l 20 356 l 20 390 q 37 404 20 395 m 322 356 l 322 346 l 326 346 q 332 353 332 346 l 332 356 l 322 356 m 309 129 q 298 112 309 123 l 298 105 q 305 98 300 98 l 309 98 l 309 109 q 315 129 309 118 l 309 129 z "},"J":{"ha":949,"x_min":20,"x_max":916,"o":"m 553 1163 q 566 1160 566 1163 l 590 1163 l 688 1163 q 722 1160 705 1163 q 753 1163 735 1163 l 807 1163 q 810 1160 810 1163 l 817 1163 l 838 1163 l 844 1160 q 838 1126 841 1134 l 844 1126 q 868 1163 844 1163 l 878 1163 q 885 1149 885 1163 l 888 1149 q 895 1163 888 1163 l 905 1163 q 916 1153 910 1163 l 916 1122 l 912 1105 l 916 1105 l 912 1099 l 912 1088 q 916 1085 912 1085 q 875 1058 916 1080 l 871 1051 l 878 1048 q 912 1061 897 1061 l 916 1055 l 916 936 l 909 936 q 878 1027 878 985 q 871 1021 871 1026 l 871 1004 q 868 973 871 991 l 868 970 l 871 970 l 871 977 l 882 977 q 912 905 896 952 q 888 878 912 889 q 885 868 885 871 l 882 868 l 878 882 l 875 882 q 865 871 870 882 l 865 865 l 875 865 l 882 868 l 882 854 q 865 838 882 850 q 909 766 891 773 l 912 743 q 905 712 910 712 q 831 692 884 699 l 831 688 q 841 685 834 688 q 902 702 890 692 q 916 682 916 699 l 916 604 q 895 549 916 574 q 854 495 895 508 q 810 465 822 465 q 780 509 800 475 l 770 509 l 770 505 q 760 509 763 509 q 722 502 753 509 q 678 526 693 502 l 685 536 q 637 546 646 546 q 671 515 637 540 q 705 481 682 481 l 732 481 q 736 485 736 481 l 749 478 q 777 485 762 485 q 800 420 800 441 q 827 383 800 416 q 648 322 745 342 l 631 326 l 627 319 l 627 315 q 797 359 679 315 q 827 380 806 359 q 882 315 833 380 l 899 305 q 783 98 864 168 q 736 64 774 89 l 729 64 q 682 88 717 78 l 668 105 l 671 125 l 671 129 l 665 129 q 651 112 665 112 q 631 119 640 119 q 587 105 595 105 l 580 105 l 580 95 l 597 95 q 637 105 629 105 l 641 105 q 688 71 651 105 q 722 64 708 71 l 722 61 q 526 3 722 32 l 505 3 q 502 0 502 3 l 478 7 l 451 0 q 397 27 427 0 l 397 20 q 407 14 402 20 q 404 3 404 7 q 329 20 330 16 q 326 17 326 20 q 98 153 173 55 q 31 332 35 258 q 64 383 64 354 q 125 404 90 404 l 142 404 q 190 417 151 413 l 193 410 q 156 322 193 348 l 153 322 l 136 326 q 102 278 122 299 l 98 271 q 102 251 102 267 l 109 251 l 105 268 q 193 366 193 335 q 231 420 193 420 q 356 448 294 437 q 441 278 356 288 l 441 261 q 458 200 441 256 l 458 193 q 420 156 458 156 q 390 122 390 129 l 393 105 l 397 105 q 451 149 429 147 q 488 146 481 146 q 559 159 553 159 l 563 159 q 573 132 563 155 l 583 132 q 573 163 583 138 q 583 183 583 166 q 566 217 583 201 l 563 210 l 563 203 l 573 190 l 573 180 l 566 170 l 553 173 q 519 166 528 166 q 509 173 509 170 l 492 163 l 488 163 q 465 193 465 163 l 468 210 q 454 271 454 258 q 532 329 496 281 l 539 326 l 539 329 l 536 342 q 543 393 543 374 l 543 529 q 576 600 555 576 l 576 617 l 593 621 q 604 604 601 621 l 600 587 l 604 587 q 661 593 606 593 l 665 587 q 661 573 661 581 q 685 539 685 549 l 688 539 l 688 549 q 668 604 668 573 l 699 654 l 699 661 q 678 648 685 648 l 678 637 l 682 631 q 651 604 659 604 q 607 631 607 604 l 583 634 q 580 631 583 631 q 566 651 568 651 q 593 763 570 687 q 637 780 617 780 l 637 787 l 617 783 q 607 787 610 787 q 590 770 607 782 q 543 804 543 777 l 543 858 q 546 861 543 861 l 543 868 l 543 949 q 546 977 543 964 q 543 1004 543 989 l 543 1038 l 593 1027 l 593 1044 l 583 1044 q 580 1041 580 1044 q 543 1055 543 1050 l 543 1095 q 549 1126 543 1104 q 543 1133 543 1126 l 543 1153 q 553 1163 543 1158 m 607 1149 l 604 1133 l 604 1129 l 610 1133 q 614 1129 610 1129 l 610 1122 l 610 1119 l 624 1119 l 624 1143 q 617 1149 624 1149 l 607 1149 m 899 1116 l 899 1105 l 909 1105 l 909 1109 q 902 1116 909 1116 l 899 1116 m 810 1112 q 817 1095 811 1095 q 807 1082 812 1082 l 787 1085 q 760 1075 787 1077 l 766 1065 l 766 1061 l 763 1055 l 770 1055 q 814 1078 783 1055 q 861 1058 854 1063 l 865 1058 l 865 1068 q 827 1085 865 1076 l 827 1088 q 838 1112 827 1100 l 827 1112 l 827 1105 l 824 1105 l 814 1112 l 810 1112 m 702 1105 l 702 1102 q 709 1095 703 1095 l 712 1095 l 712 1099 q 705 1105 712 1105 l 702 1105 m 814 963 q 797 953 814 953 l 797 946 q 804 939 804 946 q 821 960 821 947 l 814 963 m 627 936 l 624 912 q 631 919 631 912 l 631 936 l 627 936 m 797 936 l 797 929 q 807 932 804 932 l 807 936 l 797 936 m 705 922 l 715 922 l 715 929 l 712 929 q 705 922 705 928 m 627 905 l 627 888 l 631 888 l 634 902 l 627 905 m 729 905 l 729 899 l 746 899 l 746 902 l 729 905 m 787 905 q 777 888 787 899 l 777 885 q 790 902 783 886 l 790 905 l 787 905 m 743 885 l 739 871 l 743 871 q 760 882 760 874 l 753 885 l 743 885 m 912 882 l 916 875 l 916 787 q 909 780 916 780 l 878 834 q 912 882 878 855 m 617 861 l 627 861 l 627 868 l 624 868 q 617 861 617 867 m 699 844 l 702 844 l 722 861 l 719 861 q 699 844 701 854 m 760 854 l 763 848 q 777 858 777 853 l 777 861 l 766 861 q 760 854 760 860 m 651 793 l 651 790 l 665 790 q 699 834 690 825 l 699 841 q 665 800 676 827 q 651 793 656 793 m 549 766 q 573 753 573 758 q 546 668 553 668 l 543 675 l 543 760 q 549 766 544 766 m 665 732 l 665 729 l 675 729 l 675 739 l 671 739 q 665 732 665 738 m 871 729 l 871 719 l 882 719 l 882 732 q 871 729 875 729 m 715 692 l 715 682 l 739 682 q 746 688 746 682 q 715 692 734 688 m 793 688 l 793 682 l 797 682 q 804 688 804 682 l 793 688 m 549 651 q 566 610 566 620 l 546 593 l 543 600 l 543 644 q 549 651 544 651 m 563 553 l 570 549 l 583 556 q 590 549 585 549 q 621 566 621 561 q 600 580 614 580 q 563 553 585 574 m 75 543 l 248 543 q 254 536 254 541 l 254 532 l 248 532 l 248 529 l 258 529 q 278 543 258 543 l 366 543 q 376 532 371 543 l 376 509 q 322 475 376 475 q 302 478 319 475 q 170 448 260 456 q 139 441 170 444 q 129 444 132 444 q 102 434 110 434 q 71 488 102 453 q 61 539 61 510 q 75 543 67 543 m 905 519 l 909 519 q 916 512 916 517 l 916 448 q 909 441 916 441 l 916 427 q 902 329 912 368 l 892 329 q 878 349 892 334 q 817 424 878 373 l 814 441 q 848 468 814 447 q 888 495 848 481 q 905 519 905 513 m 610 475 l 610 468 l 614 468 q 621 475 621 468 l 610 475 m 24 465 l 27 465 q 58 417 27 453 q 61 397 61 399 q 34 353 44 397 l 24 353 q 20 420 20 399 l 20 431 l 24 465 m 885 454 l 885 448 l 895 448 l 895 454 l 885 454 m 841 437 l 841 434 l 848 434 l 848 444 q 841 437 841 443 m 543 319 l 543 315 l 546 298 q 509 258 531 258 l 509 254 q 539 227 539 252 l 546 227 l 546 234 q 536 258 536 246 l 536 268 l 559 312 q 543 319 553 312 m 109 234 q 95 193 95 201 l 98 193 q 115 231 105 193 l 109 234 m 380 231 l 380 224 l 387 214 l 387 203 q 366 180 366 185 q 370 176 370 180 l 387 180 l 397 180 q 437 220 397 184 l 437 227 l 427 227 q 404 203 408 203 l 404 210 l 414 227 l 414 231 l 410 231 q 400 217 402 231 l 390 217 q 380 231 390 231 m 312 207 l 319 203 l 322 210 l 322 214 l 319 214 q 312 207 312 212 m 359 153 q 346 142 359 142 l 346 136 l 363 139 q 373 129 363 129 l 376 136 q 366 153 366 146 l 359 153 m 285 122 l 285 119 l 288 102 q 295 109 295 102 l 292 115 q 295 119 295 115 l 288 122 l 285 122 m 407 95 l 407 61 q 414 54 408 54 q 424 71 421 54 q 410 95 419 95 l 407 95 m 546 78 l 546 64 l 553 64 q 563 75 557 64 l 563 78 l 546 78 z "},"K":{"ha":1153,"x_min":-14,"x_max":1187,"o":"m 14 1133 q 41 1129 38 1129 q 51 1133 47 1133 q 64 1119 51 1127 l 71 1119 q 75 1129 71 1122 q 85 1126 81 1126 q 115 1133 107 1133 l 261 1133 l 281 1129 q 298 1133 287 1133 l 302 1133 q 339 1129 316 1133 l 346 1133 q 373 1122 373 1129 l 373 1034 q 370 1031 373 1031 l 373 1024 l 373 1014 q 329 983 373 991 l 329 977 l 332 977 l 349 987 l 366 987 q 373 980 373 985 l 373 773 l 376 773 l 481 885 q 546 960 481 892 q 553 953 553 958 l 536 929 l 536 912 l 553 888 l 553 875 q 526 838 526 854 q 536 756 536 779 q 492 729 522 754 q 431 709 441 721 l 424 712 l 410 712 q 359 702 378 702 q 295 743 325 726 l 292 743 q 278 739 284 743 q 264 743 272 743 l 258 743 q 254 739 254 743 q 214 746 248 742 l 197 743 q 176 753 176 748 q 183 783 176 768 q 176 804 176 794 q 186 854 186 834 l 186 871 q 203 905 203 895 l 197 905 q 176 871 197 885 l 180 848 l 170 814 l 173 790 q 105 736 173 736 q 51 712 70 712 q 14 739 33 712 q 0 760 0 743 l 0 804 q 3 834 0 821 q 0 868 0 852 l 0 946 q 58 980 0 980 q 75 987 58 986 l 92 983 q 75 997 92 987 l 44 983 q 34 987 37 987 l 17 977 l 7 977 q 0 983 0 977 l 0 1004 q 37 1065 0 1034 l 37 1068 q 20 1072 26 1068 q 3 1041 20 1055 l 0 1048 l 0 1122 q 14 1133 0 1131 m 702 1133 l 709 1129 l 719 1129 l 726 1133 q 736 1099 733 1124 l 739 1099 q 773 1133 739 1133 l 777 1133 q 780 1129 780 1133 l 787 1133 l 821 1133 q 831 1129 831 1133 l 848 1133 l 895 1133 q 929 1129 911 1133 q 960 1133 942 1133 l 980 1133 q 983 1129 983 1133 l 990 1133 l 1014 1133 l 1038 1126 q 1044 1133 1039 1133 l 1055 1133 q 1102 1129 1074 1133 q 1116 1133 1108 1133 l 1119 1126 l 1119 1119 q 1072 1068 1075 1068 l 1061 1075 l 1055 1075 l 1055 1072 q 1061 1055 1061 1061 q 831 821 1056 1053 q 810 797 810 821 q 722 699 722 718 q 804 576 726 698 l 804 573 q 760 553 790 553 l 746 556 q 726 549 735 549 q 685 627 704 573 l 688 644 q 665 736 668 685 q 614 766 640 736 l 610 766 q 570 756 600 766 q 546 838 555 756 q 573 871 546 843 l 573 888 q 553 922 557 905 q 597 983 569 970 q 607 990 607 983 q 587 997 593 997 l 587 1004 q 658 1075 642 1075 q 702 1133 658 1095 m 688 1112 l 688 1105 l 692 1105 q 705 1116 705 1111 l 702 1116 q 688 1112 696 1112 m 1038 1116 l 1034 1109 l 1034 1102 q 1058 1085 1034 1099 l 1061 1085 l 1061 1092 q 1038 1116 1061 1097 m 841 1102 l 841 1099 q 851 1095 844 1099 l 854 1102 l 841 1102 m 739 1095 l 739 1092 q 756 1072 751 1072 q 763 1078 763 1072 l 739 1095 m 37 1082 l 44 1082 q 51 1088 51 1082 l 44 1088 q 37 1082 37 1087 m 943 1044 l 949 1041 q 990 1085 949 1063 l 990 1088 l 987 1088 q 943 1044 943 1074 m 753 1065 q 695 1010 753 1058 q 637 973 695 979 q 617 987 634 973 q 604 970 614 970 l 604 963 l 614 963 l 614 973 q 641 966 626 966 l 654 966 q 682 973 658 966 q 695 953 682 968 l 702 953 q 709 960 709 953 q 692 977 700 977 q 760 1048 692 1007 l 760 1058 q 753 1065 760 1065 m 261 1031 l 261 1027 q 278 1010 261 1023 l 281 1010 l 281 1014 q 268 1038 268 1029 q 261 1031 261 1036 m 197 1024 q 203 1017 198 1017 l 210 1017 q 203 1024 210 1024 l 197 1024 m 641 1024 l 641 1017 l 658 1017 l 658 1024 l 641 1024 m 936 994 q 939 980 939 987 l 946 980 l 946 983 q 943 987 946 987 q 949 1014 949 999 l 949 1024 q 936 994 945 1024 m 621 1021 l 617 1014 l 617 1007 l 631 1007 l 631 1010 q 621 1021 631 1015 m 281 1007 q 285 990 285 1002 q 292 997 292 990 l 292 1007 l 281 1007 m 576 994 l 580 994 l 580 983 q 570 973 580 979 l 566 973 l 566 983 q 576 994 566 988 m 129 966 l 132 966 l 163 970 l 163 980 l 159 980 q 129 966 129 970 m 712 966 l 712 960 l 729 960 l 729 966 q 722 973 729 973 l 719 973 q 712 966 712 972 m 285 970 l 285 963 l 288 956 q 275 943 283 956 l 275 939 l 278 939 q 302 966 282 939 l 285 970 m 746 966 l 746 963 q 753 956 747 956 l 760 966 q 756 970 756 966 q 746 966 749 966 m 773 953 l 773 949 q 780 943 774 943 l 790 943 q 793 953 790 946 q 790 956 790 953 q 773 953 785 953 m 746 946 l 746 932 q 756 929 749 932 q 766 932 763 932 l 766 939 q 749 946 758 939 l 746 946 m 251 943 l 251 936 l 264 936 l 264 943 l 251 943 m 607 899 l 607 895 l 614 895 q 624 905 618 895 l 624 916 l 621 916 q 607 899 616 916 m 770 916 q 766 905 770 912 q 814 888 778 905 q 824 892 821 892 q 834 888 831 888 l 838 895 l 838 902 l 831 902 l 821 895 l 810 895 l 783 916 l 770 916 m 868 888 l 875 885 q 882 892 882 885 l 882 895 l 875 895 q 868 888 868 894 m 685 878 l 682 871 l 682 861 q 692 875 687 861 l 685 878 m 682 851 q 661 790 682 830 l 661 787 l 665 787 q 688 841 688 831 l 688 844 q 682 851 688 851 m 471 824 l 471 817 l 481 817 l 481 824 l 471 824 m 566 746 l 597 746 q 648 715 617 726 q 668 627 648 693 l 668 617 q 665 614 668 614 q 678 576 678 593 l 678 559 q 709 529 696 559 q 702 509 709 523 q 705 478 705 490 q 702 458 702 460 l 753 431 q 726 366 726 406 q 712 353 712 356 l 712 349 l 719 349 l 732 359 q 746 322 746 346 q 692 224 746 315 q 682 197 692 209 l 685 173 q 648 153 685 161 q 610 207 635 153 l 617 210 q 671 197 629 203 q 593 227 629 227 q 461 444 505 384 l 454 444 l 366 356 q 373 336 373 345 l 373 305 l 370 305 l 353 322 q 285 319 302 319 q 268 346 271 330 l 264 346 l 261 339 l 237 342 l 214 342 q 210 339 210 342 q 180 376 180 347 q 186 417 186 400 l 186 424 q 92 546 172 465 q 88 559 88 552 q 119 617 119 590 l 119 621 l 115 621 l 112 604 l 105 604 q 92 658 95 604 l 88 658 q 95 688 95 673 l 88 702 q 125 726 88 722 l 136 726 l 142 722 q 176 743 142 729 q 200 732 193 732 q 207 736 207 732 l 231 732 l 295 732 q 373 685 353 692 q 404 702 373 691 q 441 699 433 699 q 509 722 462 711 q 566 746 528 746 m -7 722 l 24 699 q 51 702 48 702 q 68 692 68 698 l 68 685 q 61 648 68 681 q 78 580 65 648 q 54 543 71 578 l 51 543 l 51 536 q 102 492 67 536 q 156 407 122 492 q 149 376 156 402 q 153 339 153 353 q 64 251 103 253 q 27 234 60 244 l 24 227 l 27 203 l 24 183 l 31 183 q 34 203 31 186 l 31 217 q 58 237 37 237 l 58 234 l 75 244 l 78 244 l 78 241 q 44 217 62 217 l 44 210 l 47 210 q 92 251 92 223 l 119 268 l 122 268 q 132 248 129 268 q 125 231 125 237 l 132 227 q 139 248 139 238 l 139 254 l 132 264 l 132 268 q 176 336 132 294 q 193 322 191 322 l 197 322 q 207 326 207 322 q 271 295 241 326 l 292 295 q 295 298 295 295 l 302 295 l 336 298 q 359 261 359 267 l 356 237 q 359 227 359 231 q 353 207 353 216 q 359 200 359 205 l 359 24 q 339 7 359 20 q 356 0 356 7 q 349 -7 356 -7 l 237 -7 q 217 3 220 -7 l 217 10 q 254 24 217 16 q 258 27 254 27 q 261 17 261 20 l 264 17 l 275 24 q 302 3 297 3 l 319 3 q 326 10 326 3 q 275 34 292 10 l 275 41 q 285 47 285 41 l 281 47 l 234 27 q 224 31 227 31 l 200 17 q 214 3 203 3 q 203 -7 214 -1 l 136 -7 l 119 -3 l 119 3 l 125 3 l 125 7 q 115 24 115 18 l 112 24 q 105 17 105 22 l 115 3 l 115 -3 l 98 -7 l 68 -7 q 61 0 61 -7 q 105 34 99 18 q 98 64 105 39 l 102 85 l 95 85 q 92 51 92 55 l 98 47 q 51 7 98 22 l 34 10 l 14 7 l -3 10 l 7 -3 l 0 -7 l -3 -7 l -14 0 q -10 10 -14 3 l -14 51 q -10 71 -14 66 q -14 109 -14 94 l -14 193 q 10 220 -14 210 q 14 234 14 227 l 7 234 l -7 220 l -10 220 l -10 227 q -7 231 -10 231 q -14 254 -14 244 l -10 254 l -14 261 l -14 448 q -10 495 -14 467 q -14 505 -14 502 q -10 509 -14 509 l -14 526 q -10 539 -14 539 l -14 563 l -14 715 q -7 722 -12 722 m 583 702 l 583 692 q 600 699 594 699 l 600 702 l 583 702 m 312 600 l 312 597 q 319 590 313 590 l 322 590 l 322 600 l 312 600 m 142 559 l 142 556 l 156 553 l 159 559 l 142 559 m 214 559 l 214 556 q 234 546 218 556 l 234 549 q 217 559 234 557 l 214 559 m 24 556 l 24 549 l 27 549 q 41 553 29 549 q 54 549 47 549 q 47 556 54 556 l 24 556 m 553 546 l 553 543 l 556 543 l 573 546 l 573 556 l 563 556 q 553 546 558 556 m 821 549 q 997 271 997 285 l 987 264 l 963 264 l 929 268 l 929 261 l 946 258 l 966 258 q 1007 264 983 258 q 1034 207 1031 222 q 1017 180 1017 198 l 1044 200 q 1075 149 1075 169 l 1075 146 q 997 119 1034 119 q 966 115 997 115 l 966 119 q 1000 149 966 123 q 1007 163 1000 155 l 1004 163 q 943 115 999 163 l 902 115 q 871 125 889 125 l 868 125 l 841 112 q 804 115 818 115 q 780 102 798 102 q 702 139 743 139 l 702 149 q 712 156 707 149 l 709 173 q 777 309 709 222 l 790 309 l 790 312 q 770 346 770 312 q 780 356 774 346 l 780 359 l 763 356 q 756 387 760 363 q 777 420 756 390 l 777 431 q 729 458 773 439 q 722 481 729 465 q 770 536 738 536 l 793 536 q 821 549 812 549 m 607 526 l 607 529 q 553 512 576 515 l 553 505 q 675 536 644 522 l 675 539 l 671 539 l 607 526 m 275 532 l 275 515 l 281 515 l 281 526 q 275 532 281 532 m 526 515 l 526 512 l 529 512 q 539 515 536 515 l 539 526 l 536 526 q 526 515 531 526 m 502 515 l 502 512 l 505 512 q 512 519 512 512 l 512 522 l 509 522 q 502 515 502 521 m 621 495 l 627 492 l 631 498 l 631 502 l 627 502 q 621 495 621 500 m 309 498 l 309 495 l 329 485 l 332 485 l 332 488 q 312 498 328 488 l 309 498 m 465 478 l 465 471 l 468 471 q 481 498 477 471 l 478 498 q 465 478 473 498 m 376 495 l 376 485 l 380 485 q 390 488 387 488 q 383 495 390 495 l 376 495 m 244 481 l 244 468 l 258 468 l 258 475 q 251 481 258 481 l 244 481 m 349 475 l 349 454 q 356 461 356 454 l 356 468 q 349 475 356 475 m 868 454 q 861 441 868 449 l 861 424 l 868 424 q 875 454 868 439 l 868 454 m 342 424 l 342 420 l 349 420 l 349 431 q 342 424 342 429 m 831 410 l 831 404 l 841 404 q 834 410 841 410 l 831 410 m 309 387 l 312 387 q 329 404 317 387 l 322 404 q 309 387 317 404 m 349 393 l 356 390 l 359 397 l 359 400 l 356 400 q 349 393 349 399 m 214 315 l 214 312 q 220 305 215 305 l 220 315 l 214 315 m 797 312 q 804 305 798 305 l 814 305 l 814 309 l 797 312 m 848 312 l 848 309 q 858 298 848 304 l 861 298 l 861 302 q 851 312 861 307 l 848 312 m 875 288 l 875 285 q 888 278 880 285 l 888 281 q 878 288 888 288 l 875 288 m 224 285 l 224 281 q 231 254 231 271 q 237 261 237 254 q 231 285 231 271 l 224 285 m 895 271 q 905 264 895 264 q 919 275 919 270 q 895 271 915 271 m 210 231 q 214 214 214 225 q 234 237 220 214 l 234 244 l 210 231 m 112 227 l 112 224 l 129 220 l 129 227 l 112 227 m 336 193 l 336 186 l 346 186 q 363 210 346 198 l 363 214 l 356 214 q 336 193 351 214 m 865 214 l 865 203 l 868 203 q 875 210 875 203 l 868 214 l 865 214 m 136 200 l 132 186 l 136 186 q 142 193 142 186 l 142 200 l 136 200 m 231 176 q 237 170 232 170 q 288 190 288 183 l 278 197 l 275 197 q 231 176 255 176 m 119 163 l 129 163 l 146 166 l 146 173 q 136 183 136 173 q 119 163 131 183 m 163 183 l 146 146 l 149 146 q 220 170 159 170 q 227 176 227 170 q 203 183 214 176 l 200 176 q 163 183 195 176 m 346 170 l 346 159 q 353 153 347 153 l 353 163 q 346 170 353 170 m 92 163 l 88 146 l 88 142 q 105 98 98 98 l 105 102 q 95 159 95 142 q 98 163 98 159 l 92 163 m 719 163 l 719 159 q 726 153 720 153 l 729 153 l 729 163 l 719 163 m 332 132 l 332 119 l 336 119 q 349 136 336 134 l 349 139 l 339 139 q 332 132 332 138 m 695 119 q 760 78 703 104 q 770 81 766 81 q 763 75 770 75 q 777 58 770 59 l 810 75 q 831 68 824 68 q 875 81 861 81 l 878 81 l 899 71 l 966 78 q 987 71 980 71 q 997 81 987 76 l 1000 75 q 983 64 1000 64 l 983 58 q 997 31 997 43 q 970 -20 985 -20 l 746 -20 q 688 58 724 -20 q 658 112 658 94 q 695 119 665 115 m 1095 119 l 1102 119 q 1133 88 1116 96 l 1187 -3 l 1180 -7 l 1072 -7 q 1034 -3 1057 -7 q 1014 -7 1029 -7 l 1007 3 q 1024 37 1007 16 l 1024 51 q 1010 61 1024 60 l 1010 68 q 1061 102 1025 102 q 1095 119 1069 119 m 336 109 l 322 61 q 342 98 330 61 q 339 109 339 105 l 336 109 m 719 54 l 719 41 l 729 41 l 729 47 q 722 54 729 54 l 719 54 m 186 37 l 183 31 l 210 31 l 210 34 l 186 37 m 149 27 l 149 20 q 159 24 156 24 l 159 27 l 149 27 m 54 10 q 61 3 61 9 l 61 0 l 47 0 l 47 3 q 54 10 49 10 z "},"L":{"ha":882,"x_min":0,"x_max":882,"o":"m 27 1133 l 119 1133 q 156 1129 133 1133 q 170 1133 162 1133 l 203 1109 l 203 1116 l 193 1129 l 193 1133 l 241 1133 q 353 1051 262 1084 q 322 953 332 971 q 342 905 342 919 q 295 858 305 858 l 244 858 q 217 831 244 854 q 200 753 210 753 l 183 753 q 142 770 163 753 q 85 749 89 749 l 61 753 q 3 736 23 736 l 0 743 l 0 787 q 7 804 1 804 q 0 824 0 814 l 0 1088 q 7 1119 0 1097 l 7 1129 l 27 1133 m 271 1133 q 278 1129 278 1133 l 302 1133 l 363 1133 q 373 1122 368 1133 q 370 1119 373 1119 l 373 1095 l 373 1082 q 366 1065 373 1065 q 268 1122 268 1095 q 264 1126 264 1122 q 271 1133 266 1133 m 227 1088 q 244 1078 227 1082 l 244 1085 l 227 1088 m 363 1034 l 366 1034 q 373 1027 373 1033 l 373 1004 q 370 956 373 985 q 373 943 373 950 q 353 929 370 929 q 346 943 353 935 l 346 963 l 363 1034 m 186 973 l 186 960 q 193 966 193 960 l 193 973 l 186 973 m 186 943 q 183 932 186 939 l 190 932 l 190 943 l 186 943 m 370 916 l 373 909 l 373 888 q 342 848 373 875 l 342 844 l 349 844 q 356 854 356 844 l 366 854 q 373 838 366 846 l 373 627 q 359 617 373 617 l 359 614 q 373 597 373 614 l 373 410 q 356 400 373 400 l 356 397 q 373 380 373 383 l 373 268 l 448 268 q 475 264 471 268 q 512 268 498 268 l 648 268 q 668 258 668 266 q 624 183 668 241 q 593 71 624 115 q 587 47 593 61 q 590 34 590 41 q 526 3 526 28 l 519 0 l 380 0 q 363 37 363 11 q 390 20 369 37 l 410 20 l 410 27 q 353 78 376 27 q 339 81 347 81 q 322 75 333 81 q 237 119 237 75 q 241 149 241 137 l 241 176 l 251 176 l 268 180 l 268 183 q 261 190 268 190 l 254 190 l 241 180 l 203 200 l 200 207 q 210 248 200 216 l 210 258 q 203 285 210 273 l 210 326 q 200 363 203 336 l 203 370 q 186 393 195 391 l 180 393 q 193 326 183 352 q 186 319 186 324 q 163 329 170 329 q 109 326 128 326 q 98 346 98 334 l 88 346 q 3 319 27 337 l 0 326 l 0 573 q 3 610 0 587 q 0 637 0 614 l 0 641 q 3 644 0 644 l 0 651 l 0 705 q 81 732 0 718 q 139 753 125 736 l 142 753 q 176 736 176 739 l 173 719 q 214 641 188 641 q 234 604 214 639 q 217 549 217 564 l 231 529 l 227 522 l 227 519 l 237 498 q 197 451 237 451 l 166 420 q 173 400 173 407 l 180 400 q 224 444 180 420 q 231 448 231 444 q 268 441 244 441 l 332 454 l 339 454 q 349 427 346 454 l 359 427 l 359 437 l 353 448 q 363 485 363 484 q 349 515 349 503 l 342 515 l 342 505 q 353 478 342 499 q 342 465 348 465 l 332 465 q 295 461 318 465 q 285 465 288 465 q 264 458 274 458 q 241 488 248 458 q 244 512 244 502 q 231 556 235 556 q 275 641 248 618 l 275 644 l 271 644 q 251 621 267 644 q 197 695 197 663 q 193 732 197 709 l 214 743 l 231 743 q 224 753 227 753 q 241 824 233 774 q 298 844 260 844 q 326 841 311 841 q 366 916 356 916 l 370 916 m 64 868 l 64 865 l 71 865 q 81 875 76 865 l 75 878 q 64 868 70 878 m 51 831 l 51 827 l 61 827 l 61 838 l 58 838 q 51 831 51 836 m 268 743 l 264 736 l 275 736 q 268 743 275 743 m 315 580 l 315 576 l 326 546 q 336 556 330 546 l 336 559 q 319 580 322 559 l 315 580 m 322 543 q 298 505 322 538 q 326 468 322 468 l 329 468 q 312 498 316 498 q 326 539 312 503 l 326 543 l 322 543 m 156 526 l 156 522 q 163 502 163 511 l 163 498 q 146 481 146 485 l 146 468 l 149 468 q 214 522 214 496 l 210 522 l 183 498 l 180 505 q 193 522 184 505 l 186 526 l 173 515 l 159 526 l 156 526 m 92 502 l 98 498 l 102 505 l 102 509 l 98 509 q 92 502 92 507 m 122 431 l 153 427 l 153 431 l 142 444 q 122 431 122 436 m 61 417 l 61 414 q 68 407 62 407 l 71 407 l 71 417 l 61 417 m 322 322 l 322 319 q 329 312 323 312 q 339 322 334 312 l 339 326 l 322 322 m 88 329 q 153 312 88 312 l 170 312 q 193 271 185 312 q 190 261 190 264 q 193 248 190 254 q 190 217 190 229 l 190 214 q 220 176 190 186 q 224 136 220 159 l 220 112 q 231 85 220 100 q 193 68 213 81 l 190 68 l 193 75 l 193 81 l 186 81 q 170 68 170 73 l 170 64 q 176 58 171 58 q 166 37 166 42 l 159 37 q 153 47 153 37 l 156 64 l 153 64 q 146 58 146 63 l 146 37 q 119 0 146 0 l 10 0 q 0 10 5 0 l 0 220 q 3 224 0 224 l 0 231 l 0 288 q 81 326 28 326 q 88 329 81 329 m 709 220 l 871 220 q 882 210 876 220 l 882 197 q 878 149 882 178 q 882 136 882 143 q 878 132 882 132 l 882 115 l 882 109 q 878 78 882 91 q 882 44 882 60 l 882 37 q 878 20 882 26 l 882 0 l 882 -37 q 871 -47 882 -42 l 865 -47 q 841 -44 845 -47 q 810 -47 823 -47 l 743 -47 q 739 -44 739 -47 l 732 -47 l 688 -47 q 671 -44 677 -47 l 651 -47 l 580 -47 l 580 -44 q 617 3 617 -28 q 641 68 617 18 q 644 115 641 94 l 641 122 q 668 153 641 130 l 675 153 q 746 125 694 139 q 770 105 754 111 l 770 112 q 685 170 766 134 l 685 173 q 709 220 685 220 m 688 115 l 688 109 q 743 51 688 102 l 743 44 l 773 44 q 793 34 786 34 q 814 37 811 37 l 831 34 q 848 41 842 41 l 848 37 q 861 58 861 41 q 810 54 827 54 q 780 64 786 64 q 763 58 763 64 l 695 102 q 688 115 695 115 m 736 17 l 736 14 l 743 14 q 749 20 749 14 l 749 24 l 743 24 q 736 17 736 22 m 332 20 l 336 20 q 359 3 353 20 l 359 0 l 346 0 q 326 10 333 10 l 326 14 q 332 20 327 20 m 234 64 q 285 58 266 58 l 292 58 l 315 61 q 356 3 356 17 l 349 0 l 275 0 q 248 3 260 0 q 220 0 235 0 l 217 0 q 173 3 195 0 q 149 0 159 0 l 142 10 q 156 24 146 24 q 166 20 163 20 q 227 64 174 64 l 234 64 m 814 -24 l 814 -31 l 817 -31 q 827 -27 824 -27 l 827 -17 l 821 -17 q 814 -24 814 -18 m 777 -20 l 777 -31 l 783 -31 l 783 -20 l 777 -20 z "},"M":{"ha":1289,"x_min":-14,"x_max":1295,"o":"m 10 1133 l 37 1133 q 58 1116 58 1133 l 68 1116 l 64 1122 l 64 1133 l 78 1133 q 81 1122 78 1129 q 71 1119 75 1119 l 71 1116 l 75 1109 q 27 1082 47 1087 q 0 1109 0 1090 l 0 1122 q 10 1133 0 1127 m 85 1133 q 98 1129 92 1133 q 142 1133 127 1133 q 170 1129 151 1133 l 190 1133 q 197 1129 197 1133 l 231 1133 l 309 1133 l 322 1122 q 342 1133 326 1133 l 427 1133 q 451 1068 437 1133 l 451 1065 q 431 1048 441 1048 l 431 1041 l 434 1041 l 451 1055 q 458 1048 458 1053 l 458 1038 q 424 1014 458 1035 l 393 1014 q 387 1007 387 1013 q 356 1017 362 1017 l 353 1017 l 353 1014 q 366 997 366 1014 l 373 997 q 437 1010 381 1004 q 458 1024 437 1013 l 461 1024 q 566 661 469 1024 q 580 604 580 632 l 570 590 l 570 587 q 573 583 570 583 q 570 573 570 576 q 543 580 567 573 l 539 580 l 539 576 q 573 559 539 570 l 570 543 l 570 539 l 576 539 l 576 549 q 590 580 576 575 q 621 468 610 519 l 610 468 q 600 485 608 485 q 597 461 600 475 q 621 458 607 461 l 621 448 l 614 448 l 593 451 q 553 407 584 451 l 529 390 l 522 390 l 502 400 q 461 366 473 400 l 417 339 l 414 339 q 322 644 400 362 q 326 658 326 650 l 326 661 q 302 695 319 661 l 302 692 q 309 597 309 608 q 295 573 309 593 l 302 573 l 302 580 l 305 580 q 315 526 315 580 l 315 509 q 312 495 315 501 q 319 468 319 483 l 319 454 l 315 454 q 302 488 309 454 l 305 495 q 281 522 305 522 q 248 549 275 522 l 244 549 q 207 539 233 549 q 180 621 193 539 q 210 668 210 656 q 186 702 210 671 q 224 760 205 754 q 241 766 224 766 l 241 777 q 220 793 220 777 l 220 797 l 203 797 l 186 800 l 186 814 l 193 824 q 183 841 186 824 l 186 858 q 173 868 173 863 l 173 878 q 197 885 181 878 l 197 888 l 183 888 l 159 885 l 163 892 l 163 895 q 129 943 129 936 q 153 977 129 947 l 146 977 q 125 970 136 977 q 102 1010 109 970 l 95 1010 l 95 1007 q 119 929 95 996 l 119 919 q 115 916 115 919 q 166 851 144 916 q 173 844 173 850 l 173 807 l 149 800 l 142 800 q 129 875 129 872 q 132 885 132 882 l 125 885 q 112 871 125 871 q 132 834 112 857 l 132 817 q 109 790 132 800 l 109 787 l 159 793 q 186 736 186 793 q 170 702 170 713 l 170 695 l 190 671 q 163 637 190 650 l 159 617 q 170 539 170 581 q 125 512 161 539 q 68 492 68 500 l 51 495 q 7 485 41 495 l -3 485 q -14 505 -14 488 l -14 760 q 7 773 -7 773 l 20 770 q 31 773 27 773 l 31 777 l -7 777 q -14 783 -14 777 l -14 787 q -7 810 -12 810 q -14 831 -14 821 l -14 875 q -10 888 -14 882 q -14 902 -14 895 q -10 905 -14 905 l -14 922 l -14 1075 q -7 1082 -12 1082 q 20 1072 10 1072 q 75 1092 68 1092 l 81 1092 l 78 1068 q 98 1027 93 1027 l 102 1034 q 85 1088 102 1038 q 95 1092 92 1092 l 95 1095 q 75 1119 83 1095 l 75 1129 q 85 1133 78 1129 m 854 1133 l 980 1133 q 987 1122 980 1122 l 990 1122 q 1007 1133 990 1133 l 1031 1133 q 1034 1129 1034 1133 l 1041 1133 l 1085 1133 q 1109 1129 1105 1133 q 1139 1133 1127 1133 l 1200 1133 q 1207 1126 1207 1131 l 1207 1122 q 1183 1095 1199 1122 q 1136 1082 1166 1095 l 1116 1085 q 1085 1068 1103 1081 l 1068 1068 q 1041 1041 1061 1041 l 1014 1041 l 1017 1024 q 1010 1004 1010 1013 q 1017 997 1012 997 q 1078 1051 1017 1028 q 1163 1075 1110 1075 q 1170 1085 1163 1085 l 1183 1082 q 1258 1112 1202 1099 q 1255 1122 1255 1119 l 1251 1122 q 1204 1105 1251 1105 l 1204 1112 q 1231 1133 1208 1123 q 1255 1126 1244 1126 l 1258 1133 l 1265 1129 l 1289 1133 q 1295 1126 1290 1126 q 1292 1119 1295 1119 l 1295 1078 l 1295 1068 q 1292 1034 1295 1052 q 1295 1004 1295 1021 l 1295 997 q 1289 973 1295 973 q 1295 953 1295 962 l 1295 899 l 1292 875 l 1289 875 q 1282 885 1289 885 q 1272 858 1275 885 l 1251 858 q 1292 804 1251 817 q 1295 790 1295 798 l 1295 783 l 1292 766 l 1295 766 l 1292 760 q 1295 729 1295 741 q 1292 726 1295 726 l 1295 719 l 1295 712 q 1289 688 1295 688 q 1295 668 1295 677 l 1295 444 q 1258 427 1295 437 q 1207 397 1244 397 q 1177 353 1207 382 l 1177 342 l 1183 339 q 1292 420 1251 420 q 1295 407 1295 414 l 1295 173 q 1258 146 1292 146 l 1258 132 l 1292 142 l 1295 136 l 1295 10 q 1285 0 1295 5 l 1068 0 q 1061 7 1061 0 q 1099 47 1061 47 q 1109 44 1105 44 q 1146 54 1132 44 q 1173 51 1171 51 q 1234 75 1213 58 q 1258 81 1258 75 l 1258 92 l 1227 95 q 1194 75 1227 83 q 1183 78 1187 78 q 1163 71 1173 71 q 1153 75 1160 71 q 1136 58 1136 71 l 1133 58 q 1099 71 1099 67 q 1092 102 1092 94 l 1092 149 l 1082 166 q 1095 197 1095 191 l 1092 197 l 1068 170 q 1024 200 1039 180 l 1024 203 q 1072 298 1024 224 l 1085 298 q 1075 339 1078 313 q 1112 414 1087 393 q 1143 465 1143 431 q 1204 481 1174 481 l 1217 481 q 1255 495 1240 495 l 1255 509 l 1241 509 l 1194 498 l 1187 502 q 1160 492 1164 492 q 1126 549 1160 511 q 1088 641 1109 641 q 1085 651 1088 644 q 1126 760 1126 701 q 1129 787 1126 768 q 1116 797 1116 793 q 1105 790 1105 793 l 1099 793 l 1092 793 q 1044 777 1071 777 q 1010 780 1027 780 l 1010 787 l 1034 817 l 1031 817 q 960 763 994 775 q 946 753 960 753 l 946 746 q 980 712 966 746 q 916 665 980 676 q 905 644 911 665 l 899 644 l 899 637 q 936 665 917 637 l 943 661 l 953 661 l 960 665 q 963 661 960 661 q 919 543 936 543 l 895 543 l 895 536 l 916 536 l 922 539 l 926 532 q 858 302 865 302 q 814 359 814 348 q 804 417 806 359 q 834 519 804 475 l 827 519 q 804 468 804 492 l 787 465 l 770 465 q 743 471 746 471 l 719 465 l 712 465 q 661 478 700 465 q 770 854 763 839 l 773 854 q 821 834 773 846 q 858 851 836 844 l 875 848 l 888 848 q 949 858 912 854 q 977 851 962 851 q 990 882 989 867 l 1007 882 q 1031 851 1031 882 l 1038 848 l 1038 851 l 1031 875 q 1034 885 1034 882 q 1004 909 1004 885 q 990 922 996 909 q 1010 953 994 939 l 1010 960 q 990 953 1000 953 l 973 956 q 970 949 973 949 q 983 899 977 939 l 966 865 l 943 868 q 888 858 920 868 l 888 861 l 882 858 q 854 861 857 861 q 807 841 850 861 q 773 865 807 846 l 773 868 q 821 1027 810 1010 l 827 1027 q 858 983 846 988 l 861 983 l 861 990 l 868 990 q 953 956 935 972 l 960 956 q 966 963 966 956 q 946 987 946 981 q 953 1010 946 994 l 946 1014 q 939 1000 946 1000 l 936 1000 l 926 1007 l 926 1004 l 932 994 l 932 983 l 916 983 q 844 1007 890 999 l 844 1010 q 848 1021 848 1017 q 824 1048 848 1026 q 854 1133 842 1133 m 142 1112 l 142 1105 l 153 1105 l 153 1116 q 142 1112 146 1112 m 322 1105 l 322 1099 q 329 1105 329 1099 l 329 1112 q 322 1105 322 1111 m 1126 1105 q 1133 1099 1127 1099 l 1136 1099 l 1136 1105 l 1126 1105 m 115 1095 l 115 1092 q 136 1075 123 1075 l 136 1082 q 122 1095 136 1087 l 115 1095 m 315 1075 l 298 1051 l 302 1051 q 322 1072 312 1051 l 315 1075 m 1004 1058 l 1004 1055 l 1007 1055 q 1027 1061 1015 1061 l 1027 1068 q 1004 1058 1004 1065 m 336 1065 l 329 1051 l 336 1048 l 342 1051 q 353 1041 342 1046 l 353 1044 q 336 1065 340 1065 m 983 1055 l 983 1048 l 997 1048 l 997 1055 l 983 1055 m 919 1044 l 912 1024 l 919 1021 l 922 1041 l 922 1044 l 919 1044 m 407 1027 l 410 1027 q 424 1034 418 1034 l 424 1041 l 420 1041 q 407 1027 415 1041 m 1092 1024 l 1092 1021 q 1112 990 1092 999 l 1112 994 l 1092 1024 m 322 1007 l 322 1004 l 332 1004 q 336 1014 332 1007 l 329 1014 q 322 1007 322 1013 m 166 983 l 166 980 l 180 980 q 186 987 180 987 l 186 994 q 166 983 166 991 m 214 983 q 217 970 217 977 q 227 980 222 970 l 227 987 l 220 987 l 214 983 m 254 983 l 254 980 l 268 980 l 268 983 l 254 983 m 1126 983 l 1126 977 q 1139 963 1126 971 l 1143 963 l 1143 966 q 1129 983 1134 983 l 1126 983 m 366 973 q 373 966 368 966 l 376 966 l 376 973 l 366 973 m 1072 960 l 1082 953 l 1085 953 q 1092 960 1092 953 l 1092 963 q 1085 970 1092 970 l 1082 970 q 1072 960 1077 970 m 190 966 l 190 960 l 197 960 q 203 966 203 960 l 190 966 m 275 960 l 275 949 l 298 949 l 298 963 q 275 960 285 960 m 370 960 l 370 953 q 383 878 383 916 l 390 878 l 387 885 q 400 909 387 909 l 400 912 q 390 916 390 912 q 393 936 390 918 q 390 946 390 943 q 404 960 395 946 l 404 963 l 400 963 q 387 960 393 963 l 380 963 q 370 960 373 960 m 1143 960 l 1143 953 l 1149 943 q 1146 929 1146 937 l 1204 895 q 1255 943 1204 905 l 1255 946 l 1251 946 q 1200 919 1206 919 q 1149 956 1149 930 l 1143 960 m 349 929 l 349 926 l 356 926 q 363 932 363 926 l 363 936 l 356 936 q 349 929 349 935 m 1095 922 l 1105 922 q 1119 929 1114 929 l 1119 936 q 1095 922 1101 936 m 1078 929 q 1061 905 1078 916 l 1044 905 l 1044 895 q 1092 926 1063 895 l 1085 929 l 1078 929 m 895 909 l 902 905 l 905 912 l 905 916 l 902 916 q 895 909 895 914 m 281 902 l 281 895 l 292 895 l 292 902 l 281 902 m 339 895 l 339 892 l 349 892 l 349 899 q 339 895 342 895 m 34 895 l 31 871 l 34 871 q 41 878 41 871 l 41 895 l 34 895 m 865 892 l 865 885 l 868 885 q 875 892 875 885 l 865 892 m 492 888 l 492 878 l 495 878 q 502 885 502 878 l 495 888 l 492 888 m 1204 888 q 1160 838 1204 879 q 1146 841 1152 838 q 1116 824 1116 830 l 1116 817 q 1122 810 1117 810 q 1153 831 1122 823 q 1163 827 1160 827 l 1180 838 l 1207 838 q 1241 851 1241 842 l 1238 851 q 1194 844 1207 844 q 1187 851 1187 844 q 1211 878 1187 858 l 1211 888 l 1204 888 m 1048 882 l 1048 875 q 1058 858 1058 864 q 1048 834 1058 849 l 1055 834 l 1068 841 q 1051 882 1064 882 l 1048 882 m 471 875 l 471 865 q 478 871 478 865 l 478 875 l 471 875 m 397 871 l 397 861 l 400 854 q 410 858 407 858 l 410 861 q 397 871 410 867 m 275 861 l 275 851 q 309 858 300 854 q 305 868 305 865 q 275 861 299 865 m 214 841 l 214 824 l 227 824 q 248 841 248 836 q 234 851 234 843 l 231 851 q 214 841 220 841 m 373 824 l 376 817 l 376 814 l 370 817 l 342 793 q 346 783 346 787 q 414 844 413 835 l 414 848 l 404 848 q 373 824 387 828 m 61 800 l 61 797 l 71 797 q 125 831 103 808 l 129 831 l 129 838 l 88 810 q 61 800 63 810 m 1068 821 l 1068 817 q 1082 797 1076 797 l 1088 797 q 1068 821 1072 821 m 1282 821 l 1292 821 l 1292 817 q 1285 810 1292 810 l 1282 817 l 1282 821 m 288 807 l 288 800 l 302 800 l 302 807 l 288 807 m 268 800 l 268 790 l 278 790 l 278 800 l 268 800 m 905 793 l 905 790 q 912 783 907 783 l 916 783 l 916 793 l 905 793 m 214 787 l 224 787 l 227 770 l 227 766 q 217 756 227 762 q 207 783 207 758 l 214 787 m 1095 787 l 1105 787 q 1116 777 1110 787 q 1078 668 1116 692 q 1068 654 1074 654 q 1044 675 1047 674 l 1027 675 q 1007 654 1027 667 q 994 658 1001 658 l 994 651 q 1004 641 994 646 l 1007 641 q 1038 661 1030 661 q 1095 590 1095 613 q 1136 495 1095 536 l 1136 478 q 1109 427 1118 465 q 1068 383 1083 414 l 1072 366 q 1055 332 1068 366 l 1048 332 l 1048 329 q 1065 319 1065 328 l 1065 312 q 1014 227 1050 297 l 1014 200 q 1007 197 1007 200 l 1000 200 l 997 200 l 990 197 q 1027 176 990 185 q 1072 146 1072 155 q 1082 122 1072 127 q 1078 112 1082 119 q 1085 64 1078 104 q 1065 51 1082 51 q 1055 54 1058 54 q 1041 3 1055 31 q 1027 7 1029 7 q 1007 0 1017 0 l 970 0 q 960 10 965 0 l 963 31 q 960 44 960 37 q 966 51 966 44 l 973 47 l 983 47 q 987 58 983 51 l 983 58 l 966 54 q 960 75 960 65 l 960 200 q 966 207 961 207 l 970 207 q 990 200 979 207 l 990 207 l 960 231 l 960 295 q 966 509 960 414 l 963 515 q 983 675 977 667 l 987 675 l 997 668 l 1000 668 l 1000 688 l 1017 685 q 983 736 1002 698 q 977 743 977 736 l 977 746 q 1078 777 996 766 q 1095 787 1078 779 m 285 756 q 271 773 271 760 l 268 773 q 261 766 261 772 l 261 763 q 278 749 261 758 l 295 749 l 329 753 q 342 736 342 741 l 356 736 q 376 743 363 743 l 376 756 l 366 756 l 356 749 l 353 749 q 336 770 348 749 l 342 770 l 342 780 q 285 756 324 756 m 397 746 l 397 743 l 407 743 l 410 756 l 407 756 q 397 746 402 756 m 153 749 q 159 743 154 743 l 166 743 q 173 749 173 743 l 166 753 q 153 749 160 749 m 1153 743 l 1153 739 q 1160 732 1154 732 q 1166 739 1166 732 l 1166 749 l 1160 749 q 1153 743 1153 748 m 420 736 l 420 732 q 427 726 422 726 l 434 726 q 444 736 439 726 q 437 739 437 736 q 420 736 432 736 m 848 729 l 848 726 l 871 719 l 875 719 q 858 736 875 724 l 854 736 q 848 729 848 734 m 397 722 q 407 712 397 718 l 414 712 l 414 715 q 407 722 414 722 l 397 722 m 882 712 q 905 692 882 706 l 916 692 q 888 712 916 697 l 882 712 m 258 685 l 258 678 l 261 678 q 271 688 266 678 l 271 699 q 258 685 266 699 m 417 699 l 414 685 l 417 685 q 420 688 420 685 q 465 671 456 671 q 468 675 468 671 l 475 671 l 481 671 q 488 678 488 671 q 481 685 488 685 l 478 685 q 465 678 470 678 q 434 699 450 684 l 417 699 m 1265 682 l 1272 682 q 1278 688 1278 682 l 1272 688 q 1265 682 1265 687 m 922 685 q 929 678 924 678 l 936 678 q 929 685 936 685 l 922 685 m 519 678 l 519 675 q 526 668 520 668 q 532 675 532 668 l 529 682 q 519 678 522 678 m 410 610 l 417 607 l 420 614 l 420 617 l 417 617 q 410 610 410 616 m 465 604 l 461 590 l 475 590 q 478 600 475 593 l 471 604 l 465 604 m 505 583 l 505 580 q 522 566 507 573 q 532 573 532 570 q 522 593 529 593 l 515 593 q 505 583 511 593 m 451 543 q 444 526 451 536 l 451 522 l 465 536 q 458 543 465 543 l 451 543 m 241 532 q 295 498 264 509 q 315 424 295 467 l 315 390 q 336 336 324 375 l 336 332 q 332 329 336 329 l 336 322 l 336 264 q 332 217 336 246 q 336 200 336 212 q 332 197 336 197 l 336 173 l 336 10 q 326 0 336 5 l 292 0 q 214 10 270 7 q 180 0 196 0 l 132 0 q 34 78 92 0 q 0 119 12 78 l 0 156 q 10 180 0 168 l 10 183 q 0 190 0 183 l 0 220 q 7 254 0 227 q 0 275 0 265 l 0 471 l 3 471 q 17 468 11 471 q 58 485 47 485 q 81 478 68 485 q 112 495 94 482 l 119 495 q 122 492 122 495 q 210 529 197 529 l 237 529 q 241 532 241 529 m 590 529 l 590 522 q 593 512 593 515 l 597 512 l 597 522 q 590 529 597 529 m 977 515 l 977 512 l 980 512 q 987 519 987 512 l 987 526 q 977 515 982 526 m 231 485 l 231 475 q 251 485 251 478 q 241 488 244 488 q 231 485 234 485 m 532 465 l 532 451 l 539 451 l 539 465 l 532 465 m 661 431 l 665 431 q 709 420 703 420 q 746 427 738 427 q 793 410 793 418 l 793 356 q 797 353 793 353 l 793 346 l 793 342 q 844 268 793 312 q 851 234 851 247 l 841 217 l 841 200 q 831 193 836 200 l 834 186 q 814 153 834 173 l 814 125 q 817 122 814 122 q 780 51 806 51 l 770 51 l 770 47 q 793 41 793 47 q 770 -27 793 12 l 763 -24 l 753 -24 l 746 -27 q 739 -20 746 -20 q 719 -27 728 -27 l 702 -27 q 682 -17 684 -27 l 682 -14 l 692 0 l 688 0 l 682 -3 q 671 34 674 4 q 719 47 684 47 l 719 51 l 702 54 l 631 20 l 617 20 q 570 31 570 20 q 543 27 557 27 q 553 20 543 20 q 563 27 563 24 q 597 14 587 14 l 621 14 q 661 24 629 14 l 665 24 l 675 -24 l 668 -27 l 532 -27 q 512 -7 528 -27 l 512 3 l 515 10 q 495 54 507 10 l 505 54 q 536 34 521 41 l 536 37 q 481 109 481 73 q 431 288 465 156 q 505 349 491 309 l 512 353 q 556 342 548 342 q 576 366 576 348 l 573 366 q 597 387 573 370 q 641 417 597 400 l 651 417 q 661 431 656 431 m 203 383 l 203 376 l 214 376 l 214 383 l 203 383 m 71 342 l 68 336 l 68 332 l 71 332 q 78 339 78 332 l 71 342 m 200 332 l 200 326 l 210 326 q 220 336 215 326 q 217 339 217 336 q 200 332 206 332 m 617 322 l 624 319 l 634 332 l 627 332 q 617 322 623 332 m 64 315 l 71 312 l 75 312 l 75 322 l 71 322 q 64 315 64 321 m 254 309 l 254 312 q 203 292 203 296 l 203 288 q 322 319 308 308 l 322 322 l 254 309 m 1183 312 q 1170 275 1183 295 l 1177 271 q 1194 309 1194 298 l 1194 312 l 1183 312 m 146 292 l 149 292 l 163 298 q 159 309 159 305 q 146 292 153 307 m 173 298 l 173 292 l 180 292 q 190 302 184 292 l 190 309 l 183 309 q 173 298 178 309 m 1102 281 l 1102 278 q 1112 258 1112 265 l 1116 258 q 1143 275 1127 275 l 1146 281 l 1102 281 m 24 271 l 31 268 l 34 275 l 34 278 l 31 278 q 24 271 24 277 m 122 275 q 109 254 122 268 l 115 254 q 125 264 120 254 l 125 275 l 122 275 m 180 271 l 180 264 l 183 264 q 190 271 190 264 l 180 271 m 566 241 l 566 237 l 573 237 l 573 248 q 566 241 566 246 m 519 241 q 509 214 509 224 l 509 207 l 515 207 q 526 237 515 213 l 519 241 m 1112 234 q 1102 210 1102 214 q 1116 231 1107 210 l 1116 234 l 1112 234 m 478 193 l 475 186 l 488 186 l 488 190 q 478 193 485 190 m 1014 132 l 1014 129 q 1021 122 1015 122 l 1021 132 l 1014 132 m 1014 109 l 1014 105 l 1021 105 l 1021 115 q 1014 109 1014 114 m 732 112 l 732 102 l 736 102 q 743 109 743 102 l 743 112 l 732 112 m 736 78 l 736 71 l 756 71 q 763 78 763 71 l 736 78 m 994 78 l 994 71 l 1017 71 q 1010 78 1017 78 l 994 78 m -7 64 q 24 41 20 50 l 24 34 q 7 27 7 34 l 7 24 l 14 24 l 27 34 q 61 0 44 0 l 61 -3 l 54 -7 q 24 0 33 0 l 14 0 l -10 -3 l -14 3 l -14 58 q -7 64 -12 64 m 1034 64 l 1034 61 q 1048 58 1042 61 l 1048 61 l 1041 64 l 1034 64 z "}}}
